<svg width="21" height="26" viewBox="0 0 21 26" fill="none" xmlns="http://www.w3.org/2000/svg">
<g id="apple_logo.svg" clip-path="url(#clip0_824_4023)">
<g id="Group">
<path id="Vector" d="M19.8735 8.83148C18.2349 9.84402 17.2229 11.5798 17.2229 13.5084C17.2229 15.6782 18.5241 17.655 20.5 18.4747C20.1145 19.7283 19.5361 20.8855 18.8133 21.9462C17.753 23.4409 16.6446 24.9838 15.006 24.9838C13.3675 24.9838 12.8855 24.0195 10.9578 24.0195C9.07831 24.0195 8.40361 25.0321 6.86145 25.0321C5.31928 25.0321 4.25904 23.6338 3.05422 21.898C1.46386 19.4872 0.548193 16.6907 0.5 13.7495C0.5 8.97613 3.58434 6.42068 6.66867 6.42068C8.30723 6.42068 9.65663 7.48143 10.6687 7.48143C11.6325 7.48143 13.1747 6.37246 15.006 6.37246C16.9337 6.32425 18.7651 7.24035 19.8735 8.83148ZM14.1386 4.34739C14.9578 3.38307 15.3916 2.17767 15.4398 0.924055C15.4398 0.779407 15.4398 0.586543 15.3916 0.441895C13.994 0.586543 12.6928 1.26157 11.7771 2.32232C10.9578 3.23842 10.4759 4.39561 10.4277 5.64922C10.4277 5.79387 10.4277 5.93852 10.4759 6.08317C10.5723 6.08317 10.7169 6.13138 10.8133 6.13138C12.1145 6.03495 13.3193 5.35993 14.1386 4.34739Z" fill="black"/>
</g>
</g>
<defs>
<clipPath id="clip0_824_4023">
<rect width="20" height="24.5902" fill="white" transform="translate(0.5 0.441895)"/>
</clipPath>
</defs>
</svg>
