<svg width="40" height="40" viewBox="0 0 40 40" fill="none" xmlns="http://www.w3.org/2000/svg">
<rect x="0.5" y="0.5" width="39" height="39" rx="19.5" stroke="#EEEEEE"/>
<path fill-rule="evenodd" clip-rule="evenodd" d="M20.5004 12C20.5004 11.4477 20.0526 11 19.5004 11C18.9481 11 18.5004 11.4477 18.5004 12V12.5709C15.1082 13.0559 12.5004 15.9722 12.5004 19.4989L12.5004 23.4993C12.5003 23.4993 12.5004 23.4991 12.5004 23.4993C12.5003 23.5012 12.4996 23.5146 12.4952 23.5409C12.49 23.5724 12.4808 23.6152 12.4655 23.6703C12.4346 23.782 12.3854 23.9211 12.3166 24.0855C12.1788 24.4151 11.9844 24.7947 11.7694 25.1776C11.3653 25.8975 11.1616 26.7554 11.3145 27.5712C11.4758 28.4316 12.0296 29.1819 12.9754 29.542C13.8203 29.8637 14.945 30.1579 16.4302 30.333C16.4656 30.3637 16.5073 30.3987 16.5553 30.4371C16.7056 30.5574 16.9204 30.7132 17.1917 30.8682C17.7303 31.176 18.5266 31.5 19.5004 31.5C20.4741 31.5 21.2704 31.176 21.809 30.8682C22.0804 30.7132 22.2951 30.5574 22.4454 30.4371C22.4934 30.3987 22.5352 30.3637 22.5705 30.333C24.0557 30.1579 25.1804 29.8637 26.0253 29.542C26.9711 29.1819 27.5249 28.4316 27.6862 27.5712C27.8391 26.7554 27.6354 25.8975 27.2313 25.1776C27.0163 24.7947 26.8219 24.4151 26.6841 24.0855C26.6153 23.9211 26.5661 23.782 26.5352 23.6703C26.5199 23.6152 26.5107 23.5724 26.5055 23.5409C26.5011 23.5146 26.5005 23.5015 26.5004 23.4996C26.5004 23.4994 26.5004 23.4996 26.5004 23.4996L26.5004 23.4911V19.4994C26.5004 15.9728 23.8925 13.056 20.5004 12.5709V12ZM14.5004 19.4989C14.5004 16.7377 16.7387 14.5 19.5004 14.5C22.2619 14.5 24.5004 16.7381 24.5004 19.4994V23.5C24.5004 23.9629 24.6738 24.4623 24.8389 24.8571C25.0183 25.2861 25.2534 25.74 25.4873 26.1566C25.7146 26.5616 25.7689 26.9444 25.7204 27.2027C25.6803 27.4166 25.5735 27.574 25.3136 27.6729C24.2387 28.0822 22.4243 28.5 19.5004 28.5C16.5764 28.5 14.762 28.0822 13.6871 27.6729C13.4272 27.574 13.3204 27.4166 13.2803 27.2027C13.2318 26.9444 13.2861 26.5616 13.5134 26.1566C13.7473 25.74 13.9824 25.2861 14.1618 24.8571C14.3269 24.4623 14.5004 23.9629 14.5004 23.5V19.4989Z" fill="#01020D"/>
<rect x="22.5" y="5.5" width="11" height="11" rx="5.5" fill="#FF6A55"/>
<rect x="22.5" y="5.5" width="11" height="11" rx="5.5" stroke="#EEEEEE"/>
</svg>
