<svg width="70" height="71" viewBox="0 0 70 71" fill="none" xmlns="http://www.w3.org/2000/svg">
<path d="M44.3093 18.9652C46.3477 16.9272 49.6662 16.9272 51.7045 18.9652C53.7429 21.0032 53.7429 24.3212 51.7045 26.3592C50.5238 27.5397 48.908 28.0741 47.2674 27.8379C47.1928 27.8255 47.1058 27.8255 47.0312 27.8379C46.5465 27.7758 46.0369 27.8379 45.5522 28.0616C44.8686 28.3723 44.3839 28.9439 44.1477 29.6025C43.9116 30.2487 43.924 30.9819 44.2347 31.6405C45.9872 35.4307 45.1793 39.9665 42.2212 42.924C39.2631 45.8816 34.7266 46.6894 30.9357 44.9372C30.2521 44.6265 29.5188 44.6141 28.8601 44.8626C28.2138 45.0987 27.6669 45.5834 27.3562 46.2544C27.1573 46.6894 27.0827 47.1367 27.1076 47.5841C27.0952 47.6711 27.0952 47.7581 27.1076 47.845C27.381 49.5102 26.8342 51.2127 25.641 52.4057C23.6026 54.4437 20.2841 54.4437 18.2457 52.4057C17.2514 51.4115 16.717 50.1067 16.717 48.7025C16.717 47.3107 17.2638 45.9935 18.2457 44.9993C19.4265 43.8188 21.0423 43.2844 22.6829 43.5205C22.7077 43.5205 22.7326 43.5205 22.7699 43.5205C22.9439 43.5578 23.1179 43.5827 23.3043 43.5827C23.6896 43.5827 24.0749 43.5081 24.4354 43.3341C25.1065 43.0235 25.5788 42.4767 25.8274 41.8429C26.076 41.1843 26.076 40.4387 25.7528 39.7552C24.0004 35.965 24.8082 31.4293 27.7663 28.4717C30.7244 25.5141 35.261 24.7064 39.0518 26.4586C39.723 26.7692 40.4687 26.7817 41.1151 26.5456C41.7614 26.3095 42.3207 25.8248 42.6314 25.1538C42.8675 24.6318 42.9297 24.0726 42.8427 23.5383V23.5259C42.5692 21.8607 43.1161 20.1582 44.3093 18.9652ZM39.1388 39.8422C41.4009 37.5805 41.4009 33.9146 39.1388 31.653C36.8768 29.3913 33.2102 29.3913 30.9482 31.653C28.6861 33.9146 28.6861 37.5805 30.9482 39.8422C33.2102 42.1039 36.8768 42.1039 39.1388 39.8422ZM35 0.76001C54.3271 0.76001 70 16.4302 70 35.7538C70 55.0774 54.3395 70.76 35 70.76C15.6605 70.76 0 55.0899 0 35.7538C0 16.4177 15.6729 0.76001 35 0.76001ZM53.6559 28.3102C56.7507 25.2159 56.7507 20.2079 53.6559 17.1136C50.5611 14.0194 45.5522 14.0194 42.4574 17.1136C41.3139 18.2569 40.593 19.6736 40.2947 21.1523C34.6893 19.0398 28.2511 20.3819 23.9631 24.6691C19.6751 28.9564 18.3327 35.3934 20.4581 41.0103C18.9666 41.3086 17.5497 42.0293 16.3938 43.185C13.299 46.2793 13.299 51.2873 16.3938 54.3815C19.4886 57.4758 24.4975 57.4758 27.5923 54.3815C28.7482 53.2258 29.4815 51.7843 29.7674 50.2931C31.5075 50.9393 33.3221 51.2624 35.1243 51.2624C39.1388 51.2624 43.1037 49.7091 46.0494 46.7639C50.3125 42.5015 51.6673 36.1017 49.5916 30.4973C51.0707 30.1866 52.5 29.4659 53.6559 28.3102Z" fill="white"/>
</svg>
