<svg width="21" height="20" viewBox="0 0 21 20" fill="none" xmlns="http://www.w3.org/2000/svg">
<g id="icon / bulb">
<g id="icon">
<path d="M11.4931 6.07504C11.7805 6.36011 11.8168 6.80267 11.6009 7.1275C11.8126 7.19929 11.9906 7.35476 12.0884 7.56421C12.2254 7.85753 12.1801 8.20362 11.9722 8.4518L10.9254 9.7018C10.6299 10.0546 10.1043 10.1011 9.75143 9.80563C9.43446 9.54017 9.36472 9.08903 9.56804 8.74425C9.27198 8.70905 9.01404 8.51711 8.89743 8.23725C8.76804 7.92671 8.83807 7.56883 9.07496 7.32995L10.3146 6.07995C10.6387 5.75316 11.1663 5.75096 11.4931 6.07504Z" fill="#01020D"/>
<path fill-rule="evenodd" clip-rule="evenodd" d="M4.25 7.91675C4.25 4.46497 7.04822 1.66675 10.5 1.66675C13.9518 1.66675 16.75 4.46497 16.75 7.91675C16.75 10.2186 15.5055 12.2284 13.6559 13.3125L13.0365 15.79C12.9077 16.3053 12.4447 16.6667 11.9136 16.6667C11.7986 16.6667 11.6811 16.6774 11.552 16.6957C11.9062 16.7918 12.1667 17.1155 12.1667 17.5001C12.1667 17.9603 11.7936 18.3334 11.3333 18.3334H9.66667C9.20643 18.3334 8.83333 17.9603 8.83333 17.5001C8.83333 17.1155 9.09383 16.7918 9.44799 16.6957C9.31886 16.6774 9.20143 16.6667 9.08638 16.6667C8.55527 16.6667 8.09232 16.3053 7.96351 15.79L7.34411 13.3125C5.49448 12.2284 4.25 10.2186 4.25 7.91675ZM10.5 3.33341C7.96869 3.33341 5.91667 5.38544 5.91667 7.91675C5.91667 9.70549 6.94119 11.2564 8.43927 12.012C8.65557 12.1211 8.81369 12.3189 8.87244 12.5539L9.48947 15.022C9.74836 15.0487 9.98938 15.0951 10.1928 15.1342L10.2204 15.1396C10.2748 15.15 10.3267 15.16 10.3781 15.1696C10.4464 15.1823 10.4862 15.1851 10.5 15.1851C10.5138 15.1851 10.5536 15.1823 10.6219 15.1696C10.6733 15.16 10.7252 15.15 10.7796 15.1396L10.8072 15.1342C11.0106 15.0951 11.2517 15.0487 11.5105 15.022L12.1276 12.5539C12.1863 12.3189 12.3444 12.1211 12.5607 12.012C14.0588 11.2564 15.0833 9.70549 15.0833 7.91675C15.0833 5.38544 13.0313 3.33341 10.5 3.33341Z" fill="#01020D"/>
</g>
</g>
</svg>
