<svg width="20" height="20" viewBox="0 0 20 20" fill="none" xmlns="http://www.w3.org/2000/svg">
<g id="icon / bulb">
<g id="icon">
<path d="M10.9931 6.07504C11.2805 6.36011 11.3168 6.80267 11.1009 7.1275C11.3126 7.19929 11.4906 7.35476 11.5884 7.56421C11.7254 7.85753 11.6801 8.20362 11.4722 8.4518L10.4254 9.7018C10.1299 10.0546 9.60427 10.1011 9.25143 9.80563C8.93446 9.54017 8.86472 9.08903 9.06804 8.74425C8.77198 8.70905 8.51404 8.51711 8.39743 8.23725C8.26804 7.92671 8.33807 7.56883 8.57496 7.32995L9.81459 6.07995C10.1387 5.75316 10.6663 5.75096 10.9931 6.07504Z" fill="white"/>
<path fill-rule="evenodd" clip-rule="evenodd" d="M3.75 7.91675C3.75 4.46497 6.54822 1.66675 10 1.66675C13.4518 1.66675 16.25 4.46497 16.25 7.91675C16.25 10.2186 15.0055 12.2284 13.1559 13.3125L12.5365 15.79C12.4077 16.3053 11.9447 16.6667 11.4136 16.6667C11.2986 16.6667 11.1811 16.6774 11.052 16.6957C11.4062 16.7918 11.6667 17.1155 11.6667 17.5001C11.6667 17.9603 11.2936 18.3334 10.8333 18.3334H9.16667C8.70643 18.3334 8.33333 17.9603 8.33333 17.5001C8.33333 17.1155 8.59383 16.7918 8.94799 16.6957C8.81886 16.6774 8.70143 16.6667 8.58638 16.6667C8.05527 16.6667 7.59232 16.3053 7.46351 15.79L6.84411 13.3125C4.99448 12.2284 3.75 10.2186 3.75 7.91675ZM10 3.33341C7.46869 3.33341 5.41667 5.38544 5.41667 7.91675C5.41667 9.70549 6.44119 11.2564 7.93927 12.012C8.15557 12.1211 8.31369 12.3189 8.37244 12.5539L8.98947 15.022C9.24836 15.0487 9.48938 15.0951 9.6928 15.1342L9.72044 15.1396C9.77482 15.15 9.82666 15.16 9.87813 15.1696C9.94637 15.1823 9.98623 15.1851 10 15.1851C10.0138 15.1851 10.0536 15.1823 10.1219 15.1696C10.1733 15.16 10.2252 15.15 10.2796 15.1396L10.3072 15.1342C10.5106 15.0951 10.7517 15.0487 11.0105 15.022L11.6276 12.5539C11.6863 12.3189 11.8444 12.1211 12.0607 12.012C13.5588 11.2564 14.5833 9.70549 14.5833 7.91675C14.5833 5.38544 12.5313 3.33341 10 3.33341Z" fill="white"/>
</g>
</g>
</svg>
