<svg width="21" height="20" viewBox="0 0 21 20" fill="none" xmlns="http://www.w3.org/2000/svg">
<g id="icon / calendar">
<path id="icon" fill-rule="evenodd" clip-rule="evenodd" d="M7.16699 0.833252C7.62723 0.833252 8.00033 1.20635 8.00033 1.66659V2.49992H13.0003V1.66659C13.0003 1.20635 13.3734 0.833252 13.8337 0.833252C14.2939 0.833252 14.667 1.20635 14.667 1.66659V2.49992H15.5003C17.3413 2.49992 18.8337 3.9923 18.8337 5.83325V14.9999C18.8337 16.8409 17.3413 18.3333 15.5003 18.3333H5.50033C3.65938 18.3333 2.16699 16.8409 2.16699 14.9999V5.83325C2.16699 3.9923 3.65938 2.49992 5.50033 2.49992H6.33366V1.66659C6.33366 1.20635 6.70676 0.833252 7.16699 0.833252ZM13.0003 4.16659C13.0003 4.62682 13.3734 4.99992 13.8337 4.99992C14.2939 4.99992 14.667 4.62682 14.667 4.16659H15.5003C16.4208 4.16659 17.167 4.91278 17.167 5.83325V6.24992H3.83366V5.83325C3.83366 4.91278 4.57985 4.16659 5.50033 4.16659H6.33366C6.33366 4.62682 6.70676 4.99992 7.16699 4.99992C7.62723 4.99992 8.00033 4.62682 8.00033 4.16659H13.0003ZM17.167 7.91658H3.83366V14.9999C3.83366 15.9204 4.57985 16.6666 5.50033 16.6666H15.5003C16.4208 16.6666 17.167 15.9204 17.167 14.9999V7.91658Z" fill="#01020D"/>
</g>
</svg>
