<svg width="20" height="20" viewBox="0 0 20 20" fill="none" xmlns="http://www.w3.org/2000/svg">
<g id="icon / calendar">
<path id="icon" fill-rule="evenodd" clip-rule="evenodd" d="M6.66667 0.833374C7.1269 0.833374 7.5 1.20647 7.5 1.66671V2.50004H12.5V1.66671C12.5 1.20647 12.8731 0.833374 13.3333 0.833374C13.7936 0.833374 14.1667 1.20647 14.1667 1.66671V2.50004H15C16.8409 2.50004 18.3333 3.99242 18.3333 5.83337V15C18.3333 16.841 16.8409 18.3334 15 18.3334H5C3.15905 18.3334 1.66667 16.841 1.66667 15V5.83337C1.66667 3.99242 3.15905 2.50004 5 2.50004H5.83333V1.66671C5.83333 1.20647 6.20643 0.833374 6.66667 0.833374ZM12.5 4.16671C12.5 4.62694 12.8731 5.00004 13.3333 5.00004C13.7936 5.00004 14.1667 4.62694 14.1667 4.16671H15C15.9205 4.16671 16.6667 4.9129 16.6667 5.83337V6.25004H3.33333V5.83337C3.33333 4.9129 4.07952 4.16671 5 4.16671H5.83333C5.83333 4.62694 6.20643 5.00004 6.66667 5.00004C7.1269 5.00004 7.5 4.62694 7.5 4.16671H12.5ZM16.6667 7.91671H3.33333V15C3.33333 15.9205 4.07952 16.6667 5 16.6667H15C15.9205 16.6667 16.6667 15.9205 16.6667 15V7.91671Z" fill="white"/>
</g>
</svg>
