<svg width="21" height="20" viewBox="0 0 21 20" fill="none" xmlns="http://www.w3.org/2000/svg">
<g id="icon / coins">
<path id="icon" fill-rule="evenodd" clip-rule="evenodd" d="M7.64554 7.93755C7.60454 7.65847 7.58333 7.37322 7.58333 7.08333C7.58333 3.86167 10.195 1.25 13.4167 1.25C16.6383 1.25 19.25 3.86167 19.25 7.08333C19.25 10.305 16.6383 12.9167 13.4167 12.9167C13.1268 12.9167 12.8415 12.8955 12.5625 12.8545C12.5763 13.0122 12.5833 13.172 12.5833 13.3333C12.5833 16.3249 10.1582 18.75 7.16667 18.75C4.17512 18.75 1.75 16.3249 1.75 13.3333C1.75 10.3418 4.17512 7.91667 7.16667 7.91667C7.32804 7.91667 7.48776 7.92372 7.64554 7.93755ZM9.25 7.08333C9.25 4.78215 11.1155 2.91667 13.4167 2.91667C15.7179 2.91667 17.5833 4.78215 17.5833 7.08333C17.5833 9.38452 15.7179 11.25 13.4167 11.25C12.9439 11.25 12.491 11.1716 12.0695 11.0277C11.533 9.88873 10.6113 8.96702 9.47235 8.43048C9.32842 8.00895 9.25 7.55614 9.25 7.08333ZM3.41667 13.3333C3.41667 11.2623 5.0956 9.58333 7.16667 9.58333C9.23773 9.58333 10.9167 11.2623 10.9167 13.3333C10.9167 15.4044 9.23773 17.0833 7.16667 17.0833C5.0956 17.0833 3.41667 15.4044 3.41667 13.3333Z" fill="#01020D"/>
</g>
</svg>
