<svg width="20" height="20" viewBox="0 0 20 20" fill="none" xmlns="http://www.w3.org/2000/svg">
<g id="icon / coins">
<path id="icon" fill-rule="evenodd" clip-rule="evenodd" d="M7.14554 7.93755C7.10454 7.65847 7.08333 7.37322 7.08333 7.08333C7.08333 3.86167 9.69501 1.25 12.9167 1.25C16.1383 1.25 18.75 3.86167 18.75 7.08333C18.75 10.305 16.1383 12.9167 12.9167 12.9167C12.6268 12.9167 12.3415 12.8955 12.0625 12.8545C12.0763 13.0122 12.0833 13.172 12.0833 13.3333C12.0833 16.3249 9.65821 18.75 6.66667 18.75C3.67512 18.75 1.25 16.3249 1.25 13.3333C1.25 10.3418 3.67512 7.91667 6.66667 7.91667C6.82804 7.91667 6.98776 7.92372 7.14554 7.93755ZM8.75 7.08333C8.75 4.78215 10.6155 2.91667 12.9167 2.91667C15.2179 2.91667 17.0833 4.78215 17.0833 7.08333C17.0833 9.38452 15.2179 11.25 12.9167 11.25C12.4439 11.25 11.991 11.1716 11.5695 11.0277C11.033 9.88873 10.1113 8.96702 8.97235 8.43048C8.82842 8.00895 8.75 7.55614 8.75 7.08333ZM2.91667 13.3333C2.91667 11.2623 4.5956 9.58333 6.66667 9.58333C8.73773 9.58333 10.4167 11.2623 10.4167 13.3333C10.4167 15.4044 8.73773 17.0833 6.66667 17.0833C4.5956 17.0833 2.91667 15.4044 2.91667 13.3333Z" fill="white"/>
</g>
</svg>
