<svg width="89" height="89" viewBox="0 0 89 89" fill="none" xmlns="http://www.w3.org/2000/svg">
<g clip-path="url(#clip0_1212_10723)">
<circle cx="44.2327" cy="44.2325" r="44.2325" fill="#9F8D77"/>
<path d="M20.5056 73.4808C15.2599 76.7367 15.7414 82.4381 15.9344 86.1062C37.5084 89.1149 49.1615 89.3847 68.7533 86.1108C68.9294 83.438 69.1084 79.1107 67.1024 76.4626C63.3163 71.4646 58.021 72.2035 57.0207 72.2035C56.2205 72.2035 54.3734 72.0231 53.516 71.8585C52.4421 73.1379 48.656 74.659 43.1529 74.5721C35.7598 74.4553 32.587 71.8992 32.2236 71.5059C29.6881 72.5389 24.069 71.2691 20.5056 73.4808Z" fill="#B74444"/>
<path d="M47.6717 67.2672C48.6839 70.6411 52.1063 71.752 53.5964 71.8926C50.9459 74.2833 46.8142 74.777 42.9164 74.777C39.0648 74.777 34.5751 73.4777 32.0616 71.5342C33.5097 71.1131 35.9004 69.9177 36.8618 67.5011C38.1837 64.1787 37.5375 58.77 36.6163 54.4117C35.0981 55.2552 33.1731 53.6717 31.63 51.7246C30.3203 50.072 28.7307 46.1141 29.8557 44.2391C30.5226 43.1276 32.2371 42.8992 32.8557 42.9554C32.1267 40.3652 31.1064 36.5479 32.5886 31.5102C34.369 25.4588 40.7477 21.0808 48.7624 21.0811C56.5785 21.0813 62.8219 23.7691 64.5867 28.7471C66.494 34.1273 65.5416 40.9228 65.3495 45.1298C65.2366 47.5991 66.4784 50.3763 66.0886 54.378C65.5955 59.4401 57.5247 67.679 54.35 68.3326C51.6995 68.8783 48.8671 67.709 47.6717 67.2672Z" fill="#735151"/>
<path d="M37.3848 48.6453C37.3848 48.6453 36.0191 41.3868 31.0578 43.3272C26.5585 45.0869 32.6541 56.2304 36.6108 54.5215C37.7621 59.4097 45.2125 68.5299 52.7776 68.5234C55.4701 68.521 57.1761 66.7659 58.6664 65.5644C62.3369 62.6055 65.2725 58.1356 65.904 55.3934C66.6718 52.0594 65.4396 49.2906 65.3236 45.6462C65.2074 42.002 66.7499 32.9044 64.1368 27.791C61.5261 22.682 54.0615 20.879 48.1617 21.0953C41.6488 21.3341 27.9753 25.7829 32.801 43.038" stroke="#1A1A1C" stroke-width="0.410698" stroke-miterlimit="1.5" stroke-linecap="round" stroke-linejoin="round"/>
<path d="M34.741 45.8584C34.741 45.8584 35.9469 48.3693 35.8889 48.4971C35.8309 48.625 34.8892 47.788 34.3862 48.2414C33.8831 48.6947 35.5085 50.8916 35.5085 50.8916" stroke="#1A1A1C" stroke-width="0.410698" stroke-miterlimit="1.5" stroke-linecap="round" stroke-linejoin="round"/>
<path d="M42.1377 44.1772C42.1377 44.1772 44.4106 41.6185 47.4612 41.0949C50.5117 40.5714 52.1743 42.6327 52.1743 42.6327" stroke="#1A1A1C" stroke-width="0.410698" stroke-miterlimit="1.5" stroke-linecap="round" stroke-linejoin="round"/>
<path d="M65.3613 42.3788C65.3613 42.3788 64.1993 40.8211 62.1033 40.7165C60.0073 40.612 57.6793 43.6009 56.9531 46.0325C55.9611 49.3538 56.5814 50.6318 58.1293 52.666C59.6772 54.7003 57.2944 56.1444 57.2944 56.1444" stroke="#1A1A1C" stroke-width="0.410698" stroke-miterlimit="1.5" stroke-linecap="round" stroke-linejoin="round"/>
<path d="M36.6478 54.9014C36.6866 54.9594 39.0995 66.0835 35.6934 69.432C30.7982 74.2446 24.8905 70.5248 20.0858 74.0121C15.3441 77.4536 15.6615 81.4866 15.8615 86.2062" stroke="#1A1A1C" stroke-width="0.410698" stroke-miterlimit="1.5" stroke-linecap="round" stroke-linejoin="round"/>
<path d="M47.6367 67.2441C47.9202 68.1965 48.3364 68.9582 48.9281 69.5401C53.8231 74.3527 59.7308 70.6327 64.5356 74.1202C69.2775 77.5617 68.96 81.5947 68.76 86.3143" stroke="#1A1A1C" stroke-width="0.410698" stroke-miterlimit="1.5" stroke-linecap="round" stroke-linejoin="round"/>
<path fill-rule="evenodd" clip-rule="evenodd" d="M49.1747 58.1398C49.1747 58.1398 50.8473 60.0756 55.3489 59.8035C58.6576 59.6034 58.9914 57.8029 58.9449 57.8327C57.8319 58.5475 52.8086 58.7248 49.1747 58.1398Z" fill="#E3DACE" stroke="#1A1A1C" stroke-width="0.410698" stroke-miterlimit="1.5" stroke-linecap="round" stroke-linejoin="round"/>
<path d="M31.9885 71.6025C31.9885 71.6025 35.8804 74.783 43.4853 74.783C51.0901 74.783 53.5506 72.0057 53.5506 72.0057" stroke="#1A1A1C" stroke-width="0.410698" stroke-miterlimit="1.5" stroke-linecap="round" stroke-linejoin="round"/>
<path fill-rule="evenodd" clip-rule="evenodd" d="M48.0781 45.5117C48.0781 45.5117 49.3712 46.4425 49.1976 47.7088C49.024 48.9751 48.2427 49.4946 47.0014 49.5612C46.1221 49.6083 44.6339 48.5641 44.8435 47.8038C44.9262 47.5035 46.282 45.9546 48.0781 45.5117Z" fill="#0E0E0E"/>
<path fill-rule="evenodd" clip-rule="evenodd" d="M60.2219 45.8975C60.2219 45.8975 61.515 46.8283 61.3414 48.0946C61.1678 49.3609 60.3865 49.8803 59.1452 49.9469C58.2659 49.9941 56.7777 48.9498 56.9873 48.1896C57.07 47.8893 58.4258 46.3403 60.2219 45.8975Z" fill="#0E0E0E"/>
<path d="M48.0974 45.5566C48.0974 45.5566 49.3715 46.4424 49.1979 47.7087C49.0243 48.975 48.0878 49.5356 47.0017 49.561C46.0138 49.5841 45.057 48.7952 44.7832 48.0731" stroke="#1A1A1C" stroke-width="0.410698" stroke-miterlimit="1.5" stroke-linecap="round" stroke-linejoin="round"/>
<path d="M60.2405 45.8486C60.2405 45.8486 61.5146 46.7342 61.341 48.0005C61.1673 49.267 60.231 49.8274 59.1448 49.8529C58.1569 49.8759 57.2001 49.0871 56.9263 48.365" stroke="#1A1A1C" stroke-width="0.410698" stroke-miterlimit="1.5" stroke-linecap="round" stroke-linejoin="round"/>
<path d="M51.712 48.3999C51.712 48.3999 50.7775 45.3903 47.979 45.5767C45.6803 45.8281 44.1858 48.7288 44.1858 48.7288C44.1858 48.7288 42.7209 48.1722 42.4917 46.5098" stroke="#1A1A1C" stroke-width="0.410698" stroke-miterlimit="1.5" stroke-linecap="round" stroke-linejoin="round"/>
<path d="M56.533 48.7742C56.5253 48.7235 58.4839 45.6997 60.88 45.7952C62.1515 45.8459 63.2754 47.1185 62.9487 48.4195C63.8546 47.9859 64.3487 47.3634 64.5508 46.1242" stroke="#1A1A1C" stroke-width="0.410698" stroke-miterlimit="1.5" stroke-linecap="round" stroke-linejoin="round"/>
<ellipse cx="47.9802" cy="46.6093" rx="0.546862" ry="0.439421" fill="#E3DACE"/>
<ellipse cx="60.0788" cy="46.8095" rx="0.546862" ry="0.439421" fill="#E3DACE"/>
<path d="M15.7198 86.1975C14.5936 70.6644 16.2693 57.3852 19.1645 44.0201C22.3193 29.4561 28.4147 21.0378 37.1099 17.8766C46.7823 14.3602 58.694 22.0514 58.694 22.0514C58.694 22.0514 61.549 21.5946 66.1972 26.4925C70.5186 31.0454 68.6344 41.7965 68.8079 50.8581C68.9819 59.92 71.2984 63.8981 72.7315 72.0525C74.6059 82.7182 68.7022 86.2601 68.7022 86.2601L68.7092 86.4302C68.9091 81.7093 69.2267 77.6748 64.4841 74.2325C59.6787 70.7438 53.77 74.4649 48.8741 69.651C48.2822 69.0688 47.866 68.3072 47.5825 67.3544L47.7106 67.3791C49.3395 68.1577 51.0462 68.624 52.7586 68.6224C55.4514 68.6203 57.1578 66.8645 58.6484 65.6625C62.3194 62.7027 65.2554 58.2315 65.8872 55.4885C66.6551 52.1535 65.4109 49.3842 65.3068 45.7382C65.25 43.7579 65.6814 40.1616 65.6634 36.469L65.5276 36.4065C65.5276 36.4065 63.5044 36.4847 60.7811 32.7854C52.4708 39.1442 43.1049 37.4498 39.6767 40.3203C36.2489 43.1908 37.2674 48.6474 37.2674 48.6474L37.3124 48.698C37.3124 48.698 35.9464 41.4373 30.9844 43.3783C26.4844 45.1385 32.5809 56.2854 36.5384 54.576L36.5641 54.7091C36.6026 54.7672 39.0509 66.226 35.6443 69.5755C30.7483 74.3895 24.8396 70.6689 20.0341 74.1572C15.2917 77.5998 15.6092 81.634 15.8092 86.3549" fill="#2C2C2C"/>
<path d="M37.3229 48.6451C37.3229 48.6451 35.959 41.3963 31.0044 43.3341C26.5112 45.0915 32.5986 56.22 36.55 54.5133" stroke="#1A1A1C" stroke-width="0.410698" stroke-miterlimit="1.5" stroke-linecap="round" stroke-linejoin="round"/>
<path d="M47.7053 67.2954C49.3319 68.0729 51.0359 68.5382 52.7457 68.5369C55.4345 68.5345 57.1382 66.7817 58.6265 65.5819C62.2923 62.6269 65.2237 58.1631 65.8543 55.4246C66.6212 52.0951 65.3788 49.3304 65.2748 45.6905C65.2182 43.7134 65.6492 40.123 65.6311 36.4365" stroke="#1A1A1C" stroke-width="0.410698" stroke-miterlimit="1.5" stroke-linecap="round" stroke-linejoin="round"/>
<path d="M36.5757 54.6455C36.6141 54.7035 39.0588 66.1434 35.6573 69.4874C30.7687 74.2935 24.869 70.5787 20.0706 74.0613C15.3353 77.4984 15.6524 81.5257 15.8521 86.239" stroke="#1A1A1C" stroke-width="0.410698" stroke-miterlimit="1.5" stroke-linecap="round" stroke-linejoin="round"/>
<path d="M47.5774 67.2715C47.8605 68.2228 48.2761 68.9832 48.8671 69.5643C53.7557 74.3704 59.6553 70.6554 64.4537 74.1383C69.189 77.5751 68.8719 81.6027 68.6722 86.316" stroke="#1A1A1C" stroke-width="0.410698" stroke-miterlimit="1.5" stroke-linecap="round" stroke-linejoin="round"/>
<path d="M37.278 48.5945C37.278 48.5945 36.2611 43.1469 39.6837 40.2812C43.1066 37.4155 52.4584 39.1071 60.756 32.7588C63.4755 36.452 65.4956 36.3739 65.4956 36.3739" stroke="#1A1A1C" stroke-width="0.410698" stroke-miterlimit="1.5" stroke-linecap="round" stroke-linejoin="round"/>
</g>
<defs>
<clipPath id="clip0_1212_10723">
<rect width="88.465" height="88.5866" rx="44.2325" fill="white"/>
</clipPath>
</defs>
</svg>
