<svg width="89" height="89" viewBox="0 0 89 89" fill="none" xmlns="http://www.w3.org/2000/svg">
<g clip-path="url(#clip0_1212_10701)">
<circle cx="44.2329" cy="44.2325" r="44.2325" fill="#929F77"/>
<path fill-rule="evenodd" clip-rule="evenodd" d="M69.7991 86.0826C51.4619 89.4707 33.5513 89.3718 16.0311 86.0818C16.0293 82.6649 15.6095 80.654 19.0905 77.471C23.1763 73.7345 30.8048 73.6956 35.5781 70.9789C35.5781 70.9789 37.2081 74.0882 43.1911 73.8662C49.1744 73.6446 50.0869 70.8532 50.1125 70.903C54.8747 73.7037 62.6123 73.697 66.7399 77.4717C70.2206 80.6548 69.801 82.6657 69.7991 86.0826Z" fill="#B4D1E7"/>
<path fill-rule="evenodd" clip-rule="evenodd" d="M35.5587 70.9719C35.5587 70.9719 37.1809 74.0721 43.1565 73.8509C49.1321 73.6302 50.0539 70.8519 50.0794 70.9016C49.8425 70.7631 49.6128 70.6176 49.3911 70.4646C49.0035 70.1966 48.6722 69.7933 48.6722 69.2001C49.2317 69.3096 49.7701 69.3539 50.2759 69.3198C52.9912 69.1365 55.3208 66.9502 57.4462 64.7192C59.1587 62.9222 60.4195 61.4991 61.3817 57.72C61.9509 55.4849 62.1037 48.6121 62.3857 45.4861C63.1349 37.1793 64.3058 34.4451 63.0136 29.2657C62.3302 26.5269 60.5719 20.4914 48.8326 19.1974C39.8346 18.2055 28.7022 23.7187 27.6275 33.5737C27.1238 38.1915 29.6286 43.4156 29.6286 43.4156C28.2544 44.3083 28.1692 46.5263 28.972 48.6682C29.7907 50.8524 32.9801 53.0266 34.1527 50.9386C35.1649 56.0946 35.3404 58.6241 37.2881 61.3122C37.6839 64.4565 38.0289 69.3179 36.3707 70.4638C36.1107 70.6432 35.8397 70.8122 35.5587 70.9719Z" fill="#735151"/>
<path d="M30.3601 44.8242C30.3601 44.8242 31.5127 45.3394 31.8878 46.4936C30.6252 46.1432 30.5041 47.5075 31.931 48.7608" stroke="#1A1A1C" stroke-width="0.410698" stroke-miterlimit="1.5" stroke-linecap="round" stroke-linejoin="round"/>
<path fill-rule="evenodd" clip-rule="evenodd" d="M44.5073 58.2754C45.0894 58.8809 47.3014 60.5404 50.8827 60.4428C54.2633 60.3504 55.0806 58.913 55.5697 58.3831C51.7323 59.4148 45.4407 58.6507 44.5073 58.2754Z" fill="#E3DACE" stroke="#1A1A1C" stroke-width="0.410698" stroke-miterlimit="1.5" stroke-linecap="round" stroke-linejoin="round"/>
<path d="M33.2676 45.782C32.9539 44.8188 31.4042 42.1938 29.6975 43.3023C28.3232 44.1949 28.2381 46.4129 29.0408 48.5547C29.8597 50.7388 33.0491 52.9131 34.2215 50.8253C35.3293 56.4676 35.4349 58.9644 37.9578 61.966C40.4807 64.9676 46.3993 69.4723 50.3449 69.2064C53.0599 69.0231 55.3895 66.8368 57.515 64.6056C59.2276 62.8087 60.4882 61.3855 61.4506 57.6064C62.0198 55.3713 62.1726 48.4986 62.4544 45.3727C63.2036 37.0658 64.3747 34.3316 63.0825 29.1525C62.3991 26.4136 60.6406 20.3782 48.9016 19.0842C39.9036 18.0921 28.771 23.6054 27.6963 33.4604C27.1928 38.078 29.6971 43.3023 29.6971 43.3023" stroke="#1A1A1C" stroke-width="0.410698" stroke-miterlimit="1.5" stroke-linecap="round" stroke-linejoin="round"/>
<path d="M16.1002 85.9048C16.0984 82.5011 15.6791 80.4983 19.1556 77.3278C23.4785 73.3851 31.7718 73.5754 36.4396 70.3499C38.098 69.204 37.7244 64.3834 37.3285 61.2393" stroke="#1A1A1C" stroke-width="0.410698" stroke-miterlimit="1.5" stroke-linecap="round" stroke-linejoin="round"/>
<path d="M48.6882 69.0889C48.6882 69.6822 49.0723 70.0826 49.4601 70.3504C54.1278 73.576 62.4212 73.3856 66.7439 77.3283C70.2204 80.4988 69.8011 82.5018 69.7991 85.9052" stroke="#1A1A1C" stroke-width="0.410698" stroke-miterlimit="1.5" stroke-linecap="round" stroke-linejoin="round"/>
<path d="M35.6558 70.9408C35.6558 70.9408 37.2495 73.9583 43.2249 73.7372C49.2007 73.5164 50.1118 70.7362 50.1374 70.7858" stroke="#1A1A1C" stroke-width="0.410698" stroke-miterlimit="1.5" stroke-linecap="round" stroke-linejoin="round"/>
<path d="M30.3601 44.8447C30.3601 44.8447 31.5129 45.3599 31.8881 46.5143C30.6256 46.1639 30.5043 47.5282 31.9314 48.7815" stroke="#1A1A1C" stroke-width="0.410698" stroke-miterlimit="1.5" stroke-linecap="round" stroke-linejoin="round"/>
<path d="M38.9341 43.8257C38.9341 43.8257 43.2936 37.4859 47.3115 40.1635" stroke="#1A1A1C" stroke-width="0.410698" stroke-miterlimit="1.5" stroke-linecap="round" stroke-linejoin="round"/>
<path d="M60.7176 40.8637C60.7176 40.8637 59.9661 39.4462 57.8586 39.5047C55.9673 39.5573 53.1774 41.5187 53.019 44.8442C52.8607 48.1695 53.7707 50.6521 55.2011 53.0834C56.0694 54.559 55.2531 55.121 54.0515 55.7644" stroke="#1A1A1C" stroke-width="0.410698" stroke-miterlimit="1.5" stroke-linecap="round" stroke-linejoin="round"/>
<path fill-rule="evenodd" clip-rule="evenodd" d="M62.3495 46.7759C62.3833 46.2566 62.4179 45.7826 62.4549 45.3732C62.7957 41.595 63.4677 36.7425 63.4677 36.7425C63.4677 36.7425 62.5816 37.08 61.9096 36.2618C60.9908 35.143 62.0459 33.8108 62.0459 33.8108C62.0459 33.8108 60.7599 35.4609 58.8716 34.1454C57.3965 33.1178 58.2034 31.6119 58.2034 31.6119C58.2034 31.6119 57.4649 32.6724 55.9599 32.1618C54.1196 31.5373 54.2415 30.2736 54.2415 30.2736C54.2415 30.2736 53.8748 31.6119 51.6352 31.633C49.8634 31.6498 48.7283 30.0586 48.7283 30.0586C48.7283 30.0586 47.8958 31.5728 46.0122 31.9093C44.0529 32.2594 42.8331 31.1102 42.8331 31.1102C42.8331 31.1102 42.711 32.1608 41.9214 32.7553C40.8189 33.5857 39.3485 33.1655 39.3485 33.1655C39.3485 33.1655 40.6612 34.1692 39.802 35.2208C38.9428 36.2724 37.6063 35.2925 37.6063 35.2925C37.6063 35.2925 39.1896 36.5121 38.3023 38.0591C37.3493 39.7206 35.5536 39.4272 35.5536 39.4272C35.5536 39.4272 37.5585 39.8813 37.2004 41.1479C36.8425 42.4146 35.673 42.104 35.673 42.104C35.673 42.104 37.7998 43.964 36.037 45.7367C34.8518 46.9287 33.2681 45.7824 33.2681 45.7824C32.9544 44.8192 31.4048 42.1942 29.698 43.3027C28.3237 44.1954 28.2386 46.4134 29.0413 48.5551C29.8602 50.7393 33.0496 52.9135 34.2221 50.8257L34.6657 53.1717C34.6657 53.1717 32.848 55.5571 30.3888 54.5782C27.9297 53.5992 27.3186 51.7485 27.3186 51.7485C27.3186 51.7485 26.015 52.4819 24.7983 51.6414C23.297 50.6042 24.2178 48.6893 24.2178 48.6893C24.2178 48.6893 22.4001 50.0201 21.0864 48.1081C19.7729 46.1962 21.8502 45.3701 21.8502 45.3701C21.8502 45.3701 19.3621 45.8655 19.53 43.3876C19.6982 40.9097 22.4 41.8673 22.4 41.8673C22.4 41.8673 20.1784 41.1554 19.935 38.9658C19.7147 36.9845 22.2474 36.5751 22.2474 36.5751C22.2474 36.5751 19.9408 37.2998 19.5804 34.9146C19.3216 33.2002 20.7283 32.6754 20.7283 32.6754C20.7283 32.6754 18.3353 32.6824 18.5798 30.2047C18.824 27.7268 20.9642 28.2083 20.9642 28.2083C20.9642 28.2083 19.9713 27.9024 20.5519 27.0612C21.1322 26.2199 22.3542 26.9235 22.3542 26.9235C22.3542 26.9235 18.5355 25.3174 20.1853 23.0689C21.8349 20.8204 24.0651 22.1207 24.0651 22.1207C24.0651 22.1207 21.8655 20.6063 23.9275 18.9391C25.9896 17.2717 27.6087 19.7345 27.6087 19.7345C27.6087 19.7345 25.8522 16.9813 28.7544 15.7729C31.6567 14.5644 33.2453 17.3635 33.2453 17.3635C33.2453 17.3635 32.3389 15.4437 34.3945 14.9966C35.8189 14.6869 36.2239 16.5835 36.2239 16.5835C36.2239 16.5835 35.2209 12.5508 38.8663 11.6583C41.6893 10.9671 42.0435 14.7633 42.0435 14.7633C42.0435 14.7633 42.7631 12.6502 45.5566 11.9795C49.1017 11.1282 48.4673 14.4701 48.4673 14.4701C48.4673 14.4701 49.3599 11.8462 53.5454 11.9029C58.0569 11.9642 55.9894 16.1552 55.9894 16.1552C55.9894 16.1552 58.0449 13.1668 61.1239 15.0858C62.7908 16.1246 61.9159 18.3578 61.9159 18.3578C61.9159 18.3578 64.2221 16.2556 65.8874 18.2507C67.2958 19.9383 64.9709 21.3099 64.9709 21.3099C64.9709 21.3099 67.11 19.9724 68.7285 21.9523C70.3877 23.9818 67.623 25.0383 67.623 25.0383C67.623 25.0383 70.6809 23.9312 71.1084 26.0113C71.5361 28.0917 69.6297 27.4741 69.6297 27.4741C69.6297 27.4741 72.4573 28.1797 72.4508 30.6765C72.4435 33.4046 70.592 32.6594 70.592 32.6594C70.592 32.6594 72.003 33.4241 71.7127 34.6478C71.4227 35.8715 69.7519 35.6267 69.7519 35.6267C69.7519 35.6267 72.3088 36.656 71.3768 38.7929C70.6616 40.4325 68.3466 39.8636 68.3466 39.8636C68.3466 39.8636 70.685 41.2761 68.8211 43.6666C67.4421 45.4348 65.4903 44.2842 65.4903 44.2842C65.4903 44.2842 66.759 46.0059 65.0636 46.8472C63.368 47.6885 62.3495 46.7759 62.3495 46.7759Z" fill="#3D2604"/>
<path d="M62.349 46.7759C62.3828 46.2566 62.4174 45.7826 62.4544 45.3732C62.7952 41.595 63.4672 36.7425 63.4672 36.7425C63.4672 36.7425 62.581 37.08 61.909 36.2618C60.9903 35.1431 62.0453 33.8108 62.0453 33.8108C62.0453 33.8108 60.7594 35.4609 58.8711 34.1454C57.396 33.1179 58.2029 31.612 58.2029 31.612C58.2029 31.612 57.4644 32.6724 55.9594 32.1618C54.1191 31.5373 54.241 30.2736 54.241 30.2736C54.241 30.2736 53.8742 31.612 51.6347 31.633C49.8628 31.6498 48.7277 30.0586 48.7277 30.0586C48.7277 30.0586 47.8953 31.5728 46.0117 31.9093C44.0524 32.2594 42.8325 31.1102 42.8325 31.1102C42.8325 31.1102 42.7104 32.1608 41.9208 32.7553C40.8184 33.5858 39.348 33.1655 39.348 33.1655C39.348 33.1655 40.6607 34.1692 39.8015 35.2208C38.9423 36.2724 37.6058 35.2925 37.6058 35.2925C37.6058 35.2925 39.1891 36.5121 38.3018 38.0591C37.3488 39.7206 35.5531 39.4272 35.5531 39.4272C35.5531 39.4272 37.558 39.8813 37.1999 41.1479C36.842 42.4146 35.6725 42.104 35.6725 42.104C35.6725 42.104 37.7993 43.964 36.0365 45.7367C34.8512 46.9287 33.2676 45.7824 33.2676 45.7824C32.9539 44.8193 31.4042 42.1942 29.6974 43.3027C28.3232 44.1954 28.2381 46.4134 29.0408 48.5552C29.8597 50.7393 33.0491 52.9135 34.2215 50.8257L34.6652 53.1717" stroke="#1A1A1C" stroke-width="0.410698" stroke-miterlimit="1.5" stroke-linecap="round" stroke-linejoin="round"/>
<path d="M45.0326 47.7908C46.1108 47.7908 46.9849 46.9155 46.9849 45.8358C46.9849 44.7561 46.1108 43.8809 45.0326 43.8809C43.9544 43.8809 43.0803 44.7561 43.0803 45.8358C43.0803 46.9155 43.9544 47.7908 45.0326 47.7908Z" fill="#765D4A" stroke="#1A1A1C" stroke-width="0.410698"/>
<path d="M57.2445 47.7908C58.3227 47.7908 59.1968 46.9155 59.1968 45.8358C59.1968 44.7561 58.3227 43.8809 57.2445 43.8809C56.1663 43.8809 55.2922 44.7561 55.2922 45.8358C55.2922 46.9155 56.1663 47.7908 57.2445 47.7908Z" fill="#765D4A" stroke="#1A1A1C" stroke-width="0.410698"/>
<circle cx="45.5682" cy="45.0277" r="0.535515" fill="#E3DACE"/>
<path d="M58.3157 45.0277C58.3157 45.3235 58.0759 45.5632 57.7801 45.5632C57.4844 45.5632 57.2446 45.3235 57.2446 45.0277C57.2446 44.7319 57.4844 44.4922 57.7801 44.4922C58.0759 44.4922 58.3157 44.7319 58.3157 45.0277Z" fill="#E3DACE"/>
</g>
<defs>
<clipPath id="clip0_1212_10701">
<rect width="88.465" height="88.5866" rx="44.2325" fill="white"/>
</clipPath>
</defs>
</svg>
