<svg width="89" height="89" viewBox="0 0 89 89" fill="none" xmlns="http://www.w3.org/2000/svg">
<g clip-path="url(#clip0_1212_10639)">
<circle cx="44.2329" cy="44.2325" r="44.2325" fill="#779B9F"/>
<path d="M20.9194 73.4808C15.6738 76.7367 16.1552 82.4381 16.3482 86.1062C37.9222 89.1149 49.5753 89.3847 69.1671 86.1108C69.3432 83.438 69.5223 79.1107 67.5162 76.4626C63.7301 71.4646 58.4348 72.2035 57.4345 72.2035C56.6343 72.2035 54.7872 72.0231 53.9298 71.8585C52.856 73.1379 49.0698 74.659 43.5667 74.5721C36.1736 74.4553 33.0008 71.8992 32.6374 71.5059C30.1019 72.5389 24.4828 71.2691 20.9194 73.4808Z" fill="#B74444"/>
<path d="M48.1593 67.318C49.1715 70.6919 52.5939 71.8028 54.0839 71.9434C51.4334 74.3341 47.3018 74.8278 43.404 74.8278C39.5524 74.8278 35.0627 73.5285 32.5491 71.5849C33.9973 71.1639 36.3879 69.9685 37.3494 67.5519C38.6712 64.2294 38.025 58.8208 37.1039 54.4625C35.5856 55.306 33.6606 53.7225 32.1176 51.7754C30.8079 50.1228 29.2183 46.1648 30.3433 44.2898C31.0101 43.1784 32.7247 42.95 33.3432 43.0062C32.6142 40.4159 31.594 36.5987 33.0761 31.561C34.8565 25.5095 41.2352 21.1316 49.25 21.1318C57.066 21.1321 63.3094 23.8199 65.0742 28.7979C66.9816 34.1781 65.9696 41.0755 65.7774 45.2825C65.6645 47.7518 66.9207 50.5835 66.5309 54.5852C66.0379 59.6473 58.0123 67.7298 54.8375 68.3834C52.187 68.9291 49.3546 67.7598 48.1593 67.318Z" fill="#A66440"/>
<path d="M37.823 48.6473C37.823 48.6473 36.4574 41.3887 31.4961 43.3292C26.9968 45.0889 33.0924 56.2324 37.0491 54.5235C38.2003 59.4116 45.6508 68.5318 53.2158 68.5254C55.9083 68.523 57.6143 66.7678 59.1046 65.5664C62.7751 62.6074 65.7107 58.1376 66.3422 55.3954C67.1101 52.0614 65.8778 49.2926 65.7619 45.6481C65.6457 42.0039 67.1881 32.9064 64.5751 27.793C61.9644 22.684 54.4998 20.8809 48.6 21.0973C42.087 21.3361 28.4136 25.7848 33.2392 43.04" stroke="#1A1A1C" stroke-width="0.410698" stroke-miterlimit="1.5" stroke-linecap="round" stroke-linejoin="round"/>
<path d="M35.1792 45.8604C35.1792 45.8604 36.3851 48.3713 36.3271 48.499C36.2691 48.627 35.3275 47.7899 34.8244 48.2433C34.3213 48.6967 35.9467 50.8936 35.9467 50.8936" stroke="#1A1A1C" stroke-width="0.410698" stroke-miterlimit="1.5" stroke-linecap="round" stroke-linejoin="round"/>
<path d="M42.5759 44.1792C42.5759 44.1792 44.8489 41.6205 47.8994 41.0969C50.95 40.5733 52.6125 42.6346 52.6125 42.6346" stroke="#1A1A1C" stroke-width="0.410698" stroke-miterlimit="1.5" stroke-linecap="round" stroke-linejoin="round"/>
<path d="M65.7996 42.3807C65.7996 42.3807 64.6375 40.823 62.5415 40.7185C60.4455 40.614 58.1175 43.6028 57.3913 46.0344C56.3993 49.3558 57.0196 50.6338 58.5675 52.6679C60.1154 54.7022 57.7326 56.1464 57.7326 56.1464" stroke="#1A1A1C" stroke-width="0.410698" stroke-miterlimit="1.5" stroke-linecap="round" stroke-linejoin="round"/>
<path d="M37.0861 54.9033C37.1248 54.9614 39.5377 66.0854 36.1316 69.434C31.2364 74.2465 25.3288 70.5267 20.524 74.014C15.7823 77.4555 16.0998 81.4885 16.2997 86.2082" stroke="#1A1A1C" stroke-width="0.410698" stroke-miterlimit="1.5" stroke-linecap="round" stroke-linejoin="round"/>
<path d="M48.075 67.2461C48.3584 68.1985 48.7746 68.9601 49.3663 69.5421C54.2614 74.3546 60.169 70.6346 64.9738 74.1221C69.7157 77.5636 69.3982 81.5966 69.1983 86.3163" stroke="#1A1A1C" stroke-width="0.410698" stroke-miterlimit="1.5" stroke-linecap="round" stroke-linejoin="round"/>
<path fill-rule="evenodd" clip-rule="evenodd" d="M49.2709 58.6964C49.2709 58.6964 50.9435 60.6322 55.4451 60.3602C58.7538 60.1601 59.0875 58.3595 59.0411 58.3893C57.9281 59.1042 52.9048 59.2814 49.2709 58.6964Z" fill="#E3DACE" stroke="#1A1A1C" stroke-width="0.410698" stroke-miterlimit="1.5" stroke-linecap="round" stroke-linejoin="round"/>
<path d="M32.4268 71.6045C32.4268 71.6045 36.3186 74.7849 43.9236 74.7849C51.5284 74.7849 53.9889 72.0077 53.9889 72.0077" stroke="#1A1A1C" stroke-width="0.410698" stroke-miterlimit="1.5" stroke-linecap="round" stroke-linejoin="round"/>
<path d="M47.4382 46.8249C47.4064 46.7721 45.8621 46.6113 45.6799 45.0635" stroke="#1A1A1C" stroke-width="0.410698" stroke-miterlimit="1.5" stroke-linecap="round" stroke-linejoin="round"/>
<path d="M47.7275 47.1221C47.6761 47.0879 46.2118 47.6041 45.3857 46.2832" stroke="#1A1A1C" stroke-width="0.410698" stroke-miterlimit="1.5" stroke-linecap="round" stroke-linejoin="round"/>
<path d="M62.5881 46.8249C62.6199 46.7721 64.1643 46.6113 64.3464 45.0635" stroke="#1A1A1C" stroke-width="0.410698" stroke-miterlimit="1.5" stroke-linecap="round" stroke-linejoin="round"/>
<path d="M62.2983 47.1221C62.3495 47.0879 63.814 47.6041 64.6399 46.2832" stroke="#1A1A1C" stroke-width="0.410698" stroke-miterlimit="1.5" stroke-linecap="round" stroke-linejoin="round"/>
<path d="M48.3155 49.3555C49.2874 49.3555 50.0753 48.5666 50.0753 47.5933C50.0753 46.62 49.2874 45.8311 48.3155 45.8311C47.3436 45.8311 46.5557 46.62 46.5557 47.5933C46.5557 48.5666 47.3436 49.3555 48.3155 49.3555Z" fill="#55380D" stroke="#1A1A1C" stroke-width="0.410698"/>
<path d="M61.7105 49.3555C62.6824 49.3555 63.4703 48.5666 63.4703 47.5933C63.4703 46.62 62.6824 45.8311 61.7105 45.8311C60.7386 45.8311 59.9507 46.62 59.9507 47.5933C59.9507 48.5666 60.7386 49.3555 61.7105 49.3555Z" fill="#55380D" stroke="#1A1A1C" stroke-width="0.410698"/>
<circle cx="49.1157" cy="46.5508" r="0.546862" fill="#E3DACE"/>
<circle cx="62.345" cy="46.5508" r="0.546862" fill="#E3DACE"/>
<path d="M65.9771 33.4621C64.0731 40.4554 45.565 40.8269 40.3004 38.7843C41.2515 43.6482 37.9724 48.7607 37.9724 48.7607L37.9097 48.746C37.9097 48.746 36.5441 41.4853 31.582 43.4263C27.0817 45.1865 33.1783 56.3335 37.1357 54.624L37.1355 54.6776C37.1742 54.7356 39.6235 66.1878 36.2168 69.5373C31.321 74.3512 25.4125 70.6306 20.6067 74.1189C15.8643 77.5615 16.1818 81.5957 16.3817 86.3165L16.3836 86.2968C16.3836 86.2968 0.638314 87.8704 2.88076 76.7105C4.6772 67.7688 14.3948 66.5676 15.4015 62.3488C16.8218 56.3962 11.9077 56.2949 14.6468 49.5295C16.3321 45.3675 19.5861 46.084 21.1946 38.6494C22.8033 31.2146 21.5755 26.5091 29.1117 21.17C37.7058 15.0815 51.0265 17.4443 55.7858 18.8151C60.7229 20.2372 69.825 25.262 70.3729 34.3983C70.6669 39.2947 68.1032 42.6126 70.2753 47.3258C71.6179 50.239 80.8405 53.3617 81.6628 58.9652C82.4854 64.5684 76.6529 64.082 77.2291 68.4078C78.0033 74.219 84.8468 71.3462 85.7554 79.3118C86.8223 88.6646 69.6818 86.3536 69.6818 86.3536L69.2874 86.4274C69.4873 81.7061 69.8048 77.672 65.0623 74.2293C60.2569 70.7406 54.3483 74.4621 49.4524 69.6477C48.8604 69.0656 48.4442 68.304 48.1608 67.3511L48.234 67.3767C49.8694 68.1618 51.5834 68.6318 53.3035 68.6306C55.9965 68.6282 57.7026 66.8725 59.1932 65.6708C62.8642 62.711 65.8002 58.2398 66.432 55.4966C67.1999 52.1616 65.9676 49.3919 65.8512 45.7464C65.7707 43.2166 66.4891 38.0595 66.0629 33.4306" fill="#C8954A"/>
<path d="M37.8311 48.6968C37.8311 48.6968 36.4674 41.4481 31.5129 43.3859C27.0194 45.1432 33.1068 56.2717 37.0582 54.5651" stroke="#1A1A1C" stroke-width="0.410698" stroke-miterlimit="1.5" stroke-linecap="round" stroke-linejoin="round"/>
<path d="M48.1404 67.2959C49.7734 68.0797 51.4847 68.549 53.2022 68.5476C55.8908 68.5452 57.5945 66.7924 59.0828 65.5926C62.7485 62.6376 65.68 58.1738 66.3108 55.4353C67.0774 52.1058 65.8471 49.3407 65.7311 45.7012C65.6152 42.0619 67.1556 32.9766 64.5461 27.8701" stroke="#1A1A1C" stroke-width="0.410698" stroke-miterlimit="1.5" stroke-linecap="round" stroke-linejoin="round"/>
<path d="M37.0584 54.6182C37.0971 54.6762 39.5426 66.1094 36.1412 69.4534C31.2527 74.2595 25.3531 70.5447 20.5545 74.0273C15.8192 77.4641 16.1363 81.4917 16.336 86.205" stroke="#1A1A1C" stroke-width="0.410698" stroke-miterlimit="1.5" stroke-linecap="round" stroke-linejoin="round"/>
<path d="M48.0664 67.2705C48.3495 68.2218 48.7651 68.9823 49.356 69.5634C54.2447 74.3695 60.1443 70.6545 64.9427 74.1373C69.678 77.5741 69.3609 81.6017 69.1612 86.315" stroke="#1A1A1C" stroke-width="0.410698" stroke-miterlimit="1.5" stroke-linecap="round" stroke-linejoin="round"/>
<path d="M37.8936 48.7119C37.8936 48.7119 41.1676 43.6078 40.218 38.752C45.4746 40.7912 63.9548 40.4202 65.8558 33.4385" stroke="#1A1A1C" stroke-width="0.410698" stroke-miterlimit="1.5" stroke-linecap="round" stroke-linejoin="round"/>
</g>
<defs>
<clipPath id="clip0_1212_10639">
<rect width="88.465" height="88.5866" rx="44.2325" fill="white"/>
</clipPath>
</defs>
</svg>
