<svg width="89" height="89" viewBox="0 0 89 89" fill="none" xmlns="http://www.w3.org/2000/svg">
<g clip-path="url(#clip0_1212_10671)">
<circle cx="44.2327" cy="44.2325" r="44.2325" fill="#9F7785"/>
<path fill-rule="evenodd" clip-rule="evenodd" d="M70.5005 86.0826C52.1633 89.4707 34.2527 89.3718 16.7325 86.0818C16.7307 82.6649 16.3109 80.654 19.7919 77.471C23.8778 73.7345 31.5062 73.6956 36.2795 70.9789C36.2795 70.9789 37.9095 74.0882 43.8926 73.8662C49.8758 73.6446 50.7883 70.8532 50.8139 70.903C55.5762 73.7037 63.3137 73.697 67.4413 77.4717C70.9221 80.6548 70.5024 82.6657 70.5005 86.0826Z" fill="#B74444"/>
<path fill-rule="evenodd" clip-rule="evenodd" d="M36.2601 70.9728C36.2601 70.9728 37.8823 74.0731 43.8579 73.8519C49.8336 73.6312 50.7553 70.8529 50.7809 70.9025C50.5439 70.7641 50.3142 70.6186 50.0926 70.4655C49.705 70.1975 49.3736 69.7942 49.3736 69.2011C49.9331 69.3106 50.4715 69.3549 50.9773 69.3208C53.6926 69.1375 56.0222 66.9512 58.1477 64.7202C59.8601 62.9232 61.1209 61.5 62.0832 57.721C62.6523 55.4859 62.8051 48.6131 63.0871 45.4871C63.8364 37.1803 65.0073 34.4461 63.715 29.2667C63.0316 26.5279 61.2733 20.4924 49.5341 19.1984C40.536 18.2065 29.4036 23.7197 28.3289 33.5747C27.8252 38.1925 30.3301 43.4166 30.3301 43.4166C28.9558 44.3092 28.8707 46.5272 29.6734 48.6692C30.4921 50.8533 33.6815 53.0276 34.8542 50.9396C35.8664 56.0956 36.0418 58.6251 37.9895 61.3131C38.3853 64.4575 38.7303 69.3188 37.0721 70.4648C36.8121 70.6442 36.5411 70.8131 36.2601 70.9728Z" fill="#C69377"/>
<path d="M31.0798 44.9385C31.0798 44.9385 32.2324 45.4536 32.6077 46.6078C31.3451 46.2575 31.2238 47.6218 32.6509 48.875" stroke="#1A1A1C" stroke-width="0.410698" stroke-miterlimit="1.5" stroke-linecap="round" stroke-linejoin="round"/>
<path fill-rule="evenodd" clip-rule="evenodd" d="M45.2273 58.3896C45.8096 58.9952 48.0216 60.6547 51.6029 60.557C54.9834 60.4647 55.8005 59.0273 56.2898 58.4974C52.4525 59.5291 46.1606 58.765 45.2273 58.3896Z" fill="#E3DACE" stroke="#1A1A1C" stroke-width="0.410698" stroke-miterlimit="1.5" stroke-linecap="round" stroke-linejoin="round"/>
<path d="M33.9876 45.8962C33.6739 44.933 32.124 42.308 30.4175 43.4165C29.0432 44.3092 28.9581 46.5272 29.7608 48.6689C30.5795 50.8531 33.7689 53.0273 34.9415 50.9395C36.0493 56.5819 36.1547 59.0787 38.6776 62.0803C41.2005 65.0818 47.1193 69.5865 51.0648 69.3207C53.7799 69.1373 56.1095 66.9511 58.235 64.7199C59.9476 62.9229 61.2082 61.4997 62.1707 57.7207C62.7396 55.4856 62.8926 48.6128 63.1744 45.487C63.9237 37.18 65.0945 34.4459 63.8025 29.2667C63.1191 26.5279 61.3606 20.4924 49.6214 19.1984C40.6236 18.2063 29.491 23.7197 28.4163 33.5747C27.9126 38.1922 30.4171 43.4165 30.4171 43.4165" stroke="#1A1A1C" stroke-width="0.410698" stroke-miterlimit="1.5" stroke-linecap="round" stroke-linejoin="round"/>
<path d="M16.8199 86.019C16.8181 82.6153 16.3989 80.6126 19.8754 77.442C24.1983 73.4994 32.4915 73.6896 37.1593 70.4641C38.8177 69.3182 38.4441 64.4977 38.0482 61.3535" stroke="#1A1A1C" stroke-width="0.410698" stroke-miterlimit="1.5" stroke-linecap="round" stroke-linejoin="round"/>
<path d="M49.408 69.2031C49.408 69.7965 49.792 70.1968 50.1796 70.4646C54.8473 73.6903 63.1409 73.4999 67.4636 77.4426C70.9399 80.6131 70.5208 82.616 70.5189 86.0195" stroke="#1A1A1C" stroke-width="0.410698" stroke-miterlimit="1.5" stroke-linecap="round" stroke-linejoin="round"/>
<path d="M36.3757 71.055C36.3757 71.055 37.9694 74.0726 43.9449 73.8514C49.9207 73.6307 50.8318 70.8504 50.8573 70.9001" stroke="#1A1A1C" stroke-width="0.410698" stroke-miterlimit="1.5" stroke-linecap="round" stroke-linejoin="round"/>
<path d="M39.6531 43.94C39.6531 43.94 44.0126 37.6001 48.0303 40.2777" stroke="#1A1A1C" stroke-width="0.410698" stroke-miterlimit="1.5" stroke-linecap="round" stroke-linejoin="round"/>
<path d="M61.4366 40.9779C61.4366 40.9779 60.6854 39.5605 58.5778 39.6189C56.6866 39.6715 53.8966 41.6329 53.7383 44.9584C53.58 48.2837 54.4897 50.7664 55.9204 53.1976C56.7884 54.6732 55.9723 55.2353 54.7707 55.8786" stroke="#1A1A1C" stroke-width="0.410698" stroke-miterlimit="1.5" stroke-linecap="round" stroke-linejoin="round"/>
<path fill-rule="evenodd" clip-rule="evenodd" d="M67.2281 31.0019C61.9144 37.263 57.2284 31.6228 57.2284 31.6228C57.2284 31.6228 54.2349 33.1661 50.3718 31.8514C48.9956 32.8044 47.7763 33.3585 45.9634 33.8591C41.3771 35.1254 38.8015 33.6065 38.8015 33.6065C39.2794 41.5383 33.9868 45.8957 33.9868 45.8957C33.6731 44.9325 32.1228 42.3075 30.4163 43.416C30.221 43.5428 30.0918 43.6493 29.9474 43.8256C28.8701 40.8404 25.8275 31.0853 27.5472 27.5937C28.6009 25.4545 29.3338 25.6425 29.3338 25.6425C29.3338 25.6425 29.2983 22.79 33.1221 20.9301C36.9461 19.0703 40.4179 18.5228 45.3243 18.608C51.3332 18.7175 56.1617 19.6118 62.4216 21.337C65.6151 22.2172 68.8922 21.2771 71.749 18.6083C70.5764 21.6789 69.8286 23.3107 68.2068 25.9529C69.0509 25.446 69.987 24.8569 71.7394 22.7613C71.7394 22.7613 70.8314 25.9722 68.2068 29.7266C67.878 30.1971 67.5516 30.6209 67.2281 31.0019Z" fill="#2C2C2C"/>
<path fill-rule="evenodd" clip-rule="evenodd" d="M64.3709 33.3651C65.2246 32.9803 66.2881 31.9961 66.2881 31.9961C66.2881 31.9961 66.4507 33.4853 65.814 37.7233C65.6529 38.7944 65.2598 40.3233 64.6688 42.1953C63.9524 44.4641 63.2073 45.1209 63.2073 45.1209C63.2073 45.1209 63.4065 42.9403 63.6948 40.7578C64.0022 38.4323 64.4592 35.4201 64.3709 33.3651Z" fill="#2C2C2C"/>
<path fill-rule="evenodd" clip-rule="evenodd" d="M36.8004 59.0343C36.6612 59.0979 36.5221 59.131 36.3839 59.1369C33.9917 59.236 31.7856 51.1454 31.7856 51.1454C31.7856 51.1454 33.9176 52.7199 34.9402 50.9395C35.6236 54.4623 35.9457 56.8719 36.8004 59.0343Z" fill="#2C2C2C"/>
<path d="M29.948 43.8258C30.0923 43.6496 30.2215 43.543 30.4168 43.4162C32.1234 42.3077 33.6737 44.9327 33.9873 45.8959C33.9873 45.8959 39.28 41.5385 38.8021 33.6067C38.8021 33.6067 41.3777 35.1256 45.9639 33.8593C47.7769 33.3588 48.9962 32.8046 50.3724 31.8517C54.2355 33.1664 57.229 31.623 57.229 31.623C57.229 31.623 60.3335 35.3599 64.3542 33.3739M64.3542 33.3739C64.6616 33.2221 64.9743 33.0368 65.2915 32.8138L64.3542 33.3739Z" stroke="#1A1A1C" stroke-width="0.410698" stroke-miterlimit="1.5" stroke-linecap="round" stroke-linejoin="round"/>
<path d="M63.2073 45.121C63.2073 45.121 63.4065 42.9404 63.6948 40.7579C64.0022 38.4324 64.4592 35.4202 64.3709 33.3652" stroke="#1A1A1C" stroke-width="0.410698" stroke-miterlimit="1.5" stroke-linecap="round" stroke-linejoin="round"/>
<path d="M31.7866 51.1454C31.7866 51.1454 33.9186 52.7199 34.9412 50.9395C35.6246 54.4623 35.9467 56.8719 36.8014 59.0343" stroke="#1A1A1C" stroke-width="0.410698" stroke-miterlimit="1.5" stroke-linecap="round" stroke-linejoin="round"/>
<path fill-rule="evenodd" clip-rule="evenodd" d="M46.9871 44.3738C46.9871 44.3738 46.9035 46.4987 44.7445 46.6673C42.5854 46.8361 42.5288 45.2207 42.5288 45.2207C42.5288 45.2207 43.6787 44.6778 44.6404 44.4808C46.0909 44.1547 46.9871 44.3738 46.9871 44.3738Z" fill="#658566" stroke="#1A1A1C" stroke-width="0.410698" stroke-miterlimit="1.5" stroke-linecap="round" stroke-linejoin="round"/>
<path fill-rule="evenodd" clip-rule="evenodd" d="M59.3748 44.3738C59.3748 44.3738 59.291 46.4987 57.132 46.6673C54.9731 46.8361 54.9165 45.2207 54.9165 45.2207C54.9165 45.2207 56.0664 44.6778 57.0281 44.4808C58.4784 44.1547 59.3748 44.3738 59.3748 44.3738Z" fill="#658566" stroke="#1A1A1C" stroke-width="0.410698" stroke-miterlimit="1.5" stroke-linecap="round" stroke-linejoin="round"/>
<path d="M41.3352 45.8578C41.3352 45.8578 45.2871 43.3205 48.0354 44.7219" stroke="#1A1A1C" stroke-width="0.410698" stroke-miterlimit="1.5" stroke-linecap="round" stroke-linejoin="round"/>
<path d="M53.7229 45.8578C53.7229 45.8578 57.6748 43.3205 60.4231 44.7219" stroke="#1A1A1C" stroke-width="0.410698" stroke-miterlimit="1.5" stroke-linecap="round" stroke-linejoin="round"/>
<circle cx="45.787" cy="45.017" r="0.535515" fill="#E3DACE"/>
<circle cx="58.1383" cy="45.017" r="0.535515" fill="#E3DACE"/>
</g>
<defs>
<clipPath id="clip0_1212_10671">
<rect width="88.465" height="88.5866" rx="44.2325" fill="white"/>
</clipPath>
</defs>
</svg>
