<svg width="89" height="89" viewBox="0 0 89 89" fill="none" xmlns="http://www.w3.org/2000/svg">
<g clip-path="url(#clip0_1212_10755)">
<circle cx="44.2327" cy="44.2325" r="44.2325" fill="#77789F"/>
<path d="M20.9062 73.4799C15.6606 76.7357 16.142 82.4371 16.3351 86.1053C37.909 89.1139 49.5621 89.3837 69.1539 86.1098C69.33 83.437 69.5091 79.1097 67.503 76.4616C63.7169 71.4636 58.4217 72.2025 57.4213 72.2025C56.6211 72.2025 54.774 72.0221 53.9166 71.8575C52.8428 73.1369 49.0566 74.658 43.5536 74.5711C36.1604 74.4543 32.9876 71.8983 32.6242 71.5049C30.0887 72.5379 24.4697 71.2681 20.9062 73.4799Z" fill="#B74444"/>
<path d="M48.1012 67.0778C49.1133 70.4517 52.5357 71.5625 54.0258 71.7032C51.3753 74.0938 47.2437 74.5876 43.3459 74.5876C39.4942 74.5876 35.0046 73.2883 32.491 71.3447C33.9392 70.9236 36.3298 69.7283 37.2913 67.3117C38.6131 63.9892 37.9669 58.5806 37.0458 54.2223C35.5275 55.0658 33.6025 53.4823 32.0595 51.5352C30.7498 49.8825 29.1602 45.9246 30.2852 44.0496C30.952 42.9382 32.6666 42.7097 33.2851 42.766C32.5561 40.1757 31.5359 36.3585 33.018 31.3207C34.7984 25.2693 41.1771 20.8913 49.1919 20.8916C57.0079 20.8919 63.2513 23.5797 65.0161 28.5577C66.9235 33.9378 65.9114 40.8352 65.7192 45.0422C65.6064 47.5116 66.8626 50.3432 66.4728 54.345C65.9798 59.4071 57.9542 67.4896 54.7794 68.1432C52.1289 68.6889 49.2965 67.5195 48.1012 67.0778Z" fill="#E1C7C7"/>
<path d="M37.823 48.5516C37.823 48.5516 36.4574 41.293 31.4961 43.2335C26.9968 44.9932 33.0924 56.1367 37.0491 54.4278C38.2003 59.3159 45.6508 68.4361 53.2158 68.4296C55.9083 68.4273 57.6143 66.6721 59.1046 65.4707C62.7751 62.5117 65.7107 58.0419 66.3422 55.2997C67.1101 51.9657 65.8778 49.1969 65.7619 45.5524C65.6457 41.9082 67.1881 32.8107 64.5751 27.6973C61.9644 22.5882 54.4998 20.7852 48.6 21.0016C42.087 21.2404 28.4136 25.6891 33.2392 42.9443" stroke="#1A1A1C" stroke-width="0.410698" stroke-miterlimit="1.5" stroke-linecap="round" stroke-linejoin="round"/>
<path d="M35.1792 45.7627C35.1792 45.7627 36.3851 48.2736 36.3271 48.4014C36.2691 48.5293 35.3275 47.6923 34.8244 48.1457C34.3213 48.599 35.9467 50.7959 35.9467 50.7959" stroke="#1A1A1C" stroke-width="0.410698" stroke-miterlimit="1.5" stroke-linecap="round" stroke-linejoin="round"/>
<path d="M42.6401 43.9057C42.6401 43.9057 44.9131 41.347 47.9636 40.8235C51.0142 40.2999 52.6768 42.3612 52.6768 42.3612" stroke="#1A1A1C" stroke-width="0.410698" stroke-miterlimit="1.5" stroke-linecap="round" stroke-linejoin="round"/>
<path d="M65.7996 42.286C65.7996 42.286 64.6375 40.7283 62.5415 40.6238C60.4455 40.5192 58.1175 43.5081 57.3913 45.9397C56.3993 49.2611 57.0196 50.5391 58.5675 52.5732C60.1154 54.6075 57.7326 56.0517 57.7326 56.0517" stroke="#1A1A1C" stroke-width="0.410698" stroke-miterlimit="1.5" stroke-linecap="round" stroke-linejoin="round"/>
<path d="M37.0861 54.8076C37.1248 54.8657 39.5377 65.9897 36.1316 69.3383C31.2364 74.1508 25.3288 70.431 20.524 73.9183C15.7823 77.3598 16.0998 81.3928 16.2997 86.1125" stroke="#1A1A1C" stroke-width="0.410698" stroke-miterlimit="1.5" stroke-linecap="round" stroke-linejoin="round"/>
<path d="M48.075 67.1504C48.3584 68.1028 48.7746 68.8644 49.3663 69.4464C54.2614 74.2589 60.169 70.5389 64.9738 74.0264C69.7157 77.4679 69.3982 81.5009 69.1983 86.2206" stroke="#1A1A1C" stroke-width="0.410698" stroke-miterlimit="1.5" stroke-linecap="round" stroke-linejoin="round"/>
<path fill-rule="evenodd" clip-rule="evenodd" d="M49.12 58.3087C49.12 58.3087 50.7926 60.2445 55.2942 59.9725C58.603 59.7724 58.9367 57.9718 58.8902 58.0016C57.7773 58.7165 52.7539 58.8937 49.12 58.3087Z" fill="#E3DACE" stroke="#1A1A1C" stroke-width="0.410698" stroke-miterlimit="1.5" stroke-linecap="round" stroke-linejoin="round"/>
<path d="M32.4268 71.5088C32.4268 71.5088 36.3186 74.6892 43.9236 74.6892C51.5284 74.6892 53.9889 71.912 53.9889 71.912" stroke="#1A1A1C" stroke-width="0.410698" stroke-miterlimit="1.5" stroke-linecap="round" stroke-linejoin="round"/>
<path d="M50.5472 46.9552C50.6828 45.9453 49.4522 45.9453 48.6613 45.9453C47.1471 46.0236 46.6685 46.5415 46.7756 47.0768C46.9294 47.8458 48.1017 48.2143 48.6613 48.2021C49.221 48.1899 50.4377 47.7703 50.5472 46.9552Z" fill="#4D6F83"/>
<path d="M64.1082 46.9552C64.2439 45.9453 63.0132 45.9453 62.2223 45.9453C60.7081 46.0236 60.2296 46.5415 60.3366 47.0768C60.4904 47.8458 61.6627 48.2143 62.2223 48.2021C62.782 48.1899 63.9987 47.7703 64.1082 46.9552Z" fill="#4D6F83"/>
<path d="M63.4656 46.0322C63.8539 46.1838 64.0892 46.5715 64.0892 46.9313C64.0892 47.6395 63.2459 48.2135 62.2057 48.2135C61.1655 48.2135 60.3223 47.6395 60.3223 46.9313C60.3223 46.5643 60.5499 46.3288 60.8724 46.2168" stroke="#1A1A1C" stroke-width="0.410698"/>
<path d="M49.9123 46.0322C50.3007 46.1838 50.536 46.5715 50.536 46.9313C50.536 47.6395 49.6927 48.2135 48.6525 48.2135C47.6123 48.2135 46.769 47.6395 46.769 46.9313C46.769 46.5643 46.9967 46.3288 47.3192 46.2168" stroke="#1A1A1C" stroke-width="0.410698"/>
<path d="M44.9246 47.3651C45.1434 47.0557 48.7034 44.871 51.6824 46.6643" stroke="#1A1A1C" stroke-width="0.410698" stroke-miterlimit="1.5" stroke-linecap="round" stroke-linejoin="round"/>
<path d="M58.4775 47.3651C58.6964 47.0557 62.2564 44.871 65.2354 46.6643" stroke="#1A1A1C" stroke-width="0.410698" stroke-miterlimit="1.5" stroke-linecap="round" stroke-linejoin="round"/>
<ellipse cx="49.4595" cy="46.6445" rx="0.546862" ry="0.439421" fill="#E3DACE"/>
<ellipse cx="62.9619" cy="46.6445" rx="0.546862" ry="0.439421" fill="#E3DACE"/>
<path d="M65.9771 33.3361C64.0731 40.3294 45.565 40.7009 40.3004 38.6584C41.2515 43.5222 37.9724 48.6348 37.9724 48.6348L37.9097 48.62C37.9097 48.62 36.5441 41.3593 31.582 43.3003C27.0817 45.0605 33.1783 56.2075 37.1357 54.498L37.1355 54.5516C37.1742 54.6096 39.6235 66.0619 36.2168 69.4113C31.321 74.2253 25.4125 70.5046 20.6067 73.9929C15.8643 77.4356 16.1818 81.4697 16.3817 86.1906L16.3836 86.1708C16.3836 86.1708 0.638314 87.7444 2.88076 76.5845C4.6772 67.6428 14.3948 66.4416 15.4015 62.2229C16.8218 56.2702 11.9077 56.1689 14.6468 49.4036C16.3321 45.2415 19.5861 45.9581 21.1946 38.5234C22.8033 31.0886 21.5755 26.3831 29.1117 21.044C37.7058 14.9555 51.0265 17.3183 55.7858 18.6891C60.7229 20.1112 69.825 25.136 70.3729 34.2723C70.6669 39.1687 68.1032 42.4867 70.2753 47.1998C71.6179 50.113 80.8405 53.2357 81.6628 58.8392C82.4854 64.4424 76.6529 63.956 77.2291 68.2818C78.0033 74.0931 84.8468 71.2202 85.7554 79.1859C86.8223 88.5386 69.6818 86.2276 69.6818 86.2276L69.2874 86.3014C69.4873 81.5801 69.8048 77.546 65.0623 74.1034C60.2569 70.6147 54.3483 74.3361 49.4524 69.5217C48.8604 68.9397 48.4442 68.178 48.1608 67.2251L48.234 67.2507C49.8694 68.0358 51.5834 68.5058 53.3035 68.5047C55.9965 68.5022 57.7026 66.7465 59.1932 65.5448C62.8642 62.585 65.8002 58.1138 66.432 55.3706C67.1999 52.0356 65.9676 49.2659 65.8512 45.6204C65.7707 43.0906 66.4891 37.9336 66.0629 33.3046" fill="#F0CE56"/>
<path d="M37.8311 48.5728C37.8311 48.5728 36.4674 41.3241 31.5129 43.2619C27.0194 45.0192 33.1068 56.1477 37.0582 54.4411" stroke="#1A1A1C" stroke-width="0.410698" stroke-miterlimit="1.5" stroke-linecap="round" stroke-linejoin="round"/>
<path d="M48.1404 67.1718C49.7734 67.9557 51.4847 68.4249 53.2022 68.4236C55.8908 68.4212 57.5945 66.6684 59.0828 65.4686C62.7485 62.5136 65.68 58.0498 66.3108 55.3113C67.0774 51.9818 65.8471 49.2167 65.7311 45.5772C65.6152 41.9379 67.1556 32.8526 64.5461 27.7461" stroke="#1A1A1C" stroke-width="0.410698" stroke-miterlimit="1.5" stroke-linecap="round" stroke-linejoin="round"/>
<path d="M37.0584 54.4941C37.0971 54.5521 39.5426 65.9853 36.1412 69.3294C31.2527 74.1355 25.3531 70.4207 20.5545 73.9033C15.8192 77.3401 16.1363 81.3677 16.336 86.081" stroke="#1A1A1C" stroke-width="0.410698" stroke-miterlimit="1.5" stroke-linecap="round" stroke-linejoin="round"/>
<path d="M48.0664 67.1465C48.3495 68.0978 48.7651 68.8582 49.356 69.4394C54.2447 74.2454 60.1443 70.5304 64.9427 74.0133C69.678 77.4501 69.3609 81.4777 69.1612 86.191" stroke="#1A1A1C" stroke-width="0.410698" stroke-miterlimit="1.5" stroke-linecap="round" stroke-linejoin="round"/>
<path d="M37.8936 48.5879C37.8936 48.5879 41.1676 43.4838 40.218 38.6279C45.4746 40.6672 63.9548 40.2962 65.8558 33.3145" stroke="#1A1A1C" stroke-width="0.410698" stroke-miterlimit="1.5" stroke-linecap="round" stroke-linejoin="round"/>
</g>
<defs>
<clipPath id="clip0_1212_10755">
<rect width="88.465" height="88.5866" rx="44.2325" fill="white"/>
</clipPath>
</defs>
</svg>
