<svg width="89" height="89" viewBox="0 0 89 89" fill="none" xmlns="http://www.w3.org/2000/svg">
<g clip-path="url(#clip0_1212_10787)">
<circle cx="44.2325" cy="44.2325" r="44.2325" fill="#779B9F"/>
<path fill-rule="evenodd" clip-rule="evenodd" d="M71.1003 86.0816C52.7632 89.4697 34.8525 89.3708 17.3324 86.0808C17.3306 82.6639 16.9108 80.653 20.3917 77.47C24.4776 73.7336 32.1061 73.6946 36.8793 70.9779C36.8793 70.9779 38.5093 74.0873 44.4924 73.8652C50.4757 73.6436 51.3882 70.8522 51.4138 70.902C56.176 73.7027 63.9135 73.696 68.0411 77.4708C71.5219 80.6538 71.1023 82.6647 71.1003 86.0816Z" fill="#427FAC"/>
<path fill-rule="evenodd" clip-rule="evenodd" d="M37.0284 70.9269C37.0284 70.9269 38.6506 74.0272 44.6262 73.806C50.6019 73.5853 51.5236 70.807 51.5492 70.8566C51.3122 70.7182 51.0825 70.5727 50.8609 70.4197C50.4733 70.1516 50.1419 69.7483 50.1419 69.1552C50.7014 69.2647 51.2398 69.309 51.7456 69.2749C54.4609 69.0916 56.7905 66.9053 58.916 64.6743C60.6285 62.8773 61.8892 61.4541 62.8515 57.6751C63.4206 55.44 63.5734 48.5672 63.8554 45.4412C64.6047 37.1344 65.7756 34.4002 64.4833 29.2208C63.7999 26.482 62.0416 20.4465 50.3024 19.1525C41.3043 18.1606 30.1719 23.6738 29.0972 33.5288C28.5935 38.1466 31.0984 43.3707 31.0984 43.3707C29.7241 44.2633 29.639 46.4813 30.4417 48.6233C31.2604 50.8074 34.4498 52.9817 35.6225 50.8937C36.6347 56.0497 36.8101 58.5792 38.7578 61.2673C39.1537 64.4116 39.4986 69.2729 37.8404 70.4189C37.5804 70.5983 37.3094 70.7672 37.0284 70.9269Z" fill="#E8C0A9"/>
<path d="M31.6926 44.8936C31.6926 44.8936 32.8452 45.4087 33.2205 46.5629C31.9579 46.2126 31.8366 47.5769 33.2637 48.8301" stroke="#1A1A1C" stroke-width="0.410698" stroke-miterlimit="1.5" stroke-linecap="round" stroke-linejoin="round"/>
<path fill-rule="evenodd" clip-rule="evenodd" d="M45.8406 58.3438C46.4229 58.9493 48.6347 60.6088 52.216 60.5111C55.5965 60.4188 56.4138 58.9814 56.9031 58.4515C53.0657 59.4832 46.7739 58.7191 45.8406 58.3438Z" fill="#E3DACE" stroke="#1A1A1C" stroke-width="0.410698" stroke-miterlimit="1.5" stroke-linecap="round" stroke-linejoin="round"/>
<path d="M17.4334 85.9741C17.4317 82.5704 17.0124 80.5677 20.4889 77.3971C24.8116 73.4545 33.105 73.6447 37.7729 70.4192C39.4311 69.2733 39.0576 64.4527 38.6617 61.3086" stroke="#1A1A1C" stroke-width="0.410698" stroke-miterlimit="1.5" stroke-linecap="round" stroke-linejoin="round"/>
<path d="M50.0215 69.1582C50.0215 69.7515 50.4056 70.1519 50.7932 70.4197C55.4608 73.6454 63.7544 73.455 68.0771 77.3976C71.5534 80.5682 71.1344 82.5711 71.1324 85.9746" stroke="#1A1A1C" stroke-width="0.410698" stroke-miterlimit="1.5" stroke-linecap="round" stroke-linejoin="round"/>
<path d="M36.99 71.0101C36.99 71.0101 38.5837 74.0276 44.5591 73.8065C50.5347 73.5857 51.446 70.8055 51.4716 70.8551" stroke="#1A1A1C" stroke-width="0.410698" stroke-miterlimit="1.5" stroke-linecap="round" stroke-linejoin="round"/>
<path d="M40.2668 43.8951C40.2668 43.8951 44.6263 37.5552 48.644 40.2328" stroke="#1A1A1C" stroke-width="0.410698" stroke-miterlimit="1.5" stroke-linecap="round" stroke-linejoin="round"/>
<path d="M34.6008 45.8507C34.2871 44.8875 32.7373 42.2625 31.0307 43.371C29.6565 44.2637 29.5713 46.4816 30.3741 48.6234C31.1927 50.8075 34.3821 52.9818 35.5548 50.894C36.6626 56.5363 36.768 59.0332 39.2909 62.0347C41.8138 65.0363 47.7326 69.541 51.6779 69.2751C54.3931 69.0918 56.7227 66.9055 58.8482 64.6743C60.5607 62.8774 61.8215 61.4542 62.7839 57.6752C63.3528 55.44 63.5056 48.5673 63.7876 45.4415C64.2822 39.958 64.9575 37.0983 64.9898 34.165" stroke="#1A1A1C" stroke-width="0.410698" stroke-miterlimit="1.5" stroke-linecap="round" stroke-linejoin="round"/>
<path d="M62.0503 40.932C62.0503 40.932 61.2991 39.5146 59.1915 39.5731C57.3003 39.6256 54.5101 41.587 54.3518 44.9125C54.1935 48.2378 55.1034 50.7205 56.5341 53.1517C57.4021 54.6273 56.586 55.1894 55.3843 55.8327" stroke="#1A1A1C" stroke-width="0.410698" stroke-miterlimit="1.5" stroke-linecap="round" stroke-linejoin="round"/>
<path fill-rule="evenodd" clip-rule="evenodd" d="M64.9898 34.1647C64.9898 34.1647 61.4563 29.1466 53.4496 29.1405C43.8571 29.1334 38.359 34.7476 38.359 34.7476C38.359 34.7476 38.6864 36.8935 37.7898 40.3088C36.4799 45.2991 34.6008 45.8503 34.6008 45.8503C34.2872 44.8871 32.7373 42.2621 31.0307 43.3706C31.0307 43.3706 28.5259 38.1463 29.0296 33.5288C30.1043 23.6738 41.2368 18.1604 50.2347 19.1525C61.9739 20.4465 63.8748 26.3187 64.5582 29.0576C65.0248 30.9278 65.2294 32.5203 65.1894 34.1302" fill="#C8954A"/>
<path d="M64.9899 34.1648C64.9899 34.1648 61.4563 29.1467 53.4496 29.1406C43.8571 29.1335 38.359 34.7477 38.359 34.7477C38.359 34.7477 38.6864 36.8936 37.7899 40.3089C36.4799 45.2993 34.6009 45.8505 34.6009 45.8505C34.2872 44.8873 32.7373 42.2623 31.0308 43.3708" stroke="#1A1A1C" stroke-width="0.410698" stroke-miterlimit="1.5" stroke-linecap="round" stroke-linejoin="round"/>
<path fill-rule="evenodd" clip-rule="evenodd" d="M45.7654 44.1724C46.1153 44.1426 46.49 44.1476 46.8857 44.2021C46.9649 44.5264 47.0115 44.9222 47.0115 45.3492C47.0115 46.4492 46.7026 47.3421 46.3219 47.3421C45.9412 47.3421 45.6321 46.4492 45.6321 45.3492C45.6321 44.9092 45.6816 44.5023 45.7654 44.1724Z" fill="#4D6F83" stroke="#1A1A1C" stroke-width="0.410698" stroke-miterlimit="1.5" stroke-linecap="round" stroke-linejoin="round"/>
<path fill-rule="evenodd" clip-rule="evenodd" d="M58.1081 44.1724C58.458 44.1426 58.8328 44.1476 59.2287 44.2021C59.3077 44.5264 59.3544 44.9222 59.3544 45.3492C59.3544 46.4492 59.0453 47.3421 58.6646 47.3421C58.284 47.3421 57.9749 46.4492 57.9749 45.3492C57.9749 44.9092 58.0243 44.5023 58.1081 44.1724Z" fill="#4D6F83" stroke="#1A1A1C" stroke-width="0.410698" stroke-miterlimit="1.5" stroke-linecap="round" stroke-linejoin="round"/>
<path d="M42.824 45.3903C42.824 45.3903 43.9697 44.325 45.7645 44.1724C46.1144 44.1426 46.4892 44.1476 46.8848 44.2021C47.3349 44.2638 47.8122 44.3894 48.3109 44.6006" stroke="#1A1A1C" stroke-width="0.410698" stroke-miterlimit="1.5" stroke-linecap="round" stroke-linejoin="round"/>
<path d="M55.1665 45.3903C55.1665 45.3903 56.3123 44.325 58.107 44.1724C58.457 44.1426 58.8317 44.1476 59.2276 44.2021C59.6774 44.2638 60.1547 44.3894 60.6537 44.6006" stroke="#1A1A1C" stroke-width="0.410698" stroke-miterlimit="1.5" stroke-linecap="round" stroke-linejoin="round"/>
<circle cx="46.6075" cy="44.9576" r="0.370674" fill="#E3DACE"/>
<circle cx="58.9837" cy="44.9576" r="0.370674" fill="#E3DACE"/>
</g>
<defs>
<clipPath id="clip0_1212_10787">
<rect width="88.465" height="88.5866" rx="44.2325" fill="white"/>
</clipPath>
</defs>
</svg>
