<svg width="202" height="363" viewBox="0 0 202 363" fill="none" xmlns="http://www.w3.org/2000/svg">
<g opacity="0.1">
<path d="M51.3317 -19.2511C-45.5371 -51.194 -136.533 -38.8457 -151.908 8.34189C-162.383 40.4806 -135.067 80.4839 -85.9718 112.828C-75.9272 43.7069 -45.8753 -6.21225 -8.19781 -7.92318C40.4259 -10.129 83.5983 68.7953 89.2047 169.17C145.403 171.19 188.697 155.234 198.875 124.012C214.26 76.8351 148.201 12.6917 51.3317 -19.2511Z" fill="white"/>
<path d="M89.4639 173.462C89.4016 172.029 89.3201 170.596 89.2489 169.173C83.6411 68.7994 40.4806 -10.1249 -8.15367 -7.91923C-45.8313 -6.20814 -75.8831 43.7007 -85.9277 112.834C-89.0333 134.2 -90.2223 157.392 -89.1461 181.574C-84.5543 283.988 -40.8499 365.191 8.47056 362.955C57.7919 360.718 94.056 275.876 89.4639 173.462Z" fill="white"/>
<path d="M-8.16473 -7.91923C-45.8422 -6.20815 -75.8941 43.7006 -85.9387 112.834C-62.9592 127.964 -35.2237 141.426 -4.34112 151.609C28.4266 162.411 60.5079 168.143 89.2276 169.173C83.6198 68.7994 40.4695 -10.1249 -8.16473 -7.91923Z" fill="#B8B4B4"/>
</g>
</svg>
