<svg width="25" height="24" viewBox="0 0 25 24" fill="none" xmlns="http://www.w3.org/2000/svg">
<g id="google_symbol.svg">
<path id="Vector" d="M23.06 11.965C23.06 11.2031 22.99 10.4706 22.86 9.76733H12.5V13.9234H18.42C18.165 15.2664 17.39 16.4043 16.225 17.1662V19.862H19.78C21.86 17.9915 23.06 15.2371 23.06 11.965Z" fill="#4285F4"/>
<path id="Vector_2" d="M12.4999 22.465C15.4699 22.465 17.9599 21.5029 19.7799 19.862L16.2249 17.1662C15.2399 17.8108 13.9799 18.1917 12.4999 18.1917C9.63492 18.1917 7.20992 16.3017 6.34492 13.7622H2.66992V16.5459C4.47992 20.0573 8.19992 22.465 12.4999 22.465Z" fill="#34A853"/>
<path id="Vector_3" d="M6.345 13.7623C6.125 13.1176 6 12.429 6 11.7209C6 11.0127 6.125 10.3241 6.345 9.67947V6.89575H2.67C1.9 8.39296 1.49932 10.0454 1.5 11.7209C1.5 13.4546 1.925 15.0955 2.67 16.546L6.345 13.7623Z" fill="#FBBC05"/>
<path id="Vector_4" d="M12.4999 5.25006C14.1149 5.25006 15.5649 5.79216 16.7049 6.85681L19.8599 3.77518C17.9549 2.04146 15.4649 0.976807 12.4999 0.976807C8.19992 0.976807 4.47992 3.38448 2.66992 6.89588L6.34492 9.6796C7.20992 7.14006 9.63492 5.25006 12.4999 5.25006Z" fill="#EA4335"/>
</g>
</svg>
