<svg width="21" height="20" viewBox="0 0 21 20" fill="none" xmlns="http://www.w3.org/2000/svg">
<g id="icon / grid-2">
<g id="icon">
<path fill-rule="evenodd" clip-rule="evenodd" d="M2.16699 7.08342C2.16699 8.23401 3.09973 9.16675 4.25033 9.16675L16.7503 9.16675C17.9009 9.16675 18.8337 8.23401 18.8337 7.08341V3.75008C18.8337 2.59949 17.9009 1.66675 16.7503 1.66675H4.25033C3.09973 1.66675 2.16699 2.59949 2.16699 3.75008V7.08342ZM4.25033 7.50008C4.02021 7.50008 3.83366 7.31353 3.83366 7.08342L3.83366 3.75008C3.83366 3.51996 4.02021 3.33342 4.25033 3.33342L16.7503 3.33341C16.9804 3.33341 17.167 3.51996 17.167 3.75008V7.08341C17.167 7.31353 16.9804 7.50008 16.7503 7.50008L4.25033 7.50008Z" fill="#01020D"/>
<path fill-rule="evenodd" clip-rule="evenodd" d="M4.25033 18.3334C3.09973 18.3334 2.16699 17.4007 2.16699 16.2501V12.0834C2.16699 10.9328 3.09973 10.0001 4.25033 10.0001H7.58366C8.73425 10.0001 9.66699 10.9328 9.66699 12.0834V16.2501C9.66699 17.4007 8.73425 18.3334 7.58366 18.3334H4.25033ZM3.83366 16.2501C3.83366 16.4802 4.02021 16.6667 4.25033 16.6667H7.58366C7.81378 16.6667 8.00033 16.4802 8.00033 16.2501V12.0834C8.00033 11.8533 7.81378 11.6667 7.58366 11.6667H4.25033C4.02021 11.6667 3.83366 11.8533 3.83366 12.0834L3.83366 16.2501Z" fill="#01020D"/>
<path fill-rule="evenodd" clip-rule="evenodd" d="M13.417 18.3334C12.2664 18.3334 11.3337 17.4007 11.3337 16.2501V12.0834C11.3337 10.9328 12.2664 10.0001 13.417 10.0001H16.7503C17.9009 10.0001 18.8337 10.9328 18.8337 12.0834V16.2501C18.8337 17.4007 17.9009 18.3334 16.7503 18.3334H13.417ZM13.0003 16.2501C13.0003 16.4802 13.1869 16.6667 13.417 16.6667H16.7503C16.9804 16.6667 17.167 16.4802 17.167 16.2501V12.0834C17.167 11.8533 16.9804 11.6667 16.7503 11.6667H13.417C13.1869 11.6667 13.0003 11.8533 13.0003 12.0834V16.2501Z" fill="#01020D"/>
</g>
</g>
</svg>
