<svg width="20" height="20" viewBox="0 0 20 20" fill="none" xmlns="http://www.w3.org/2000/svg">
<g id="icon / grid-2">
<g id="icon">
<path fill-rule="evenodd" clip-rule="evenodd" d="M1.66667 7.08342C1.66667 8.23401 2.59941 9.16675 3.75001 9.16675L16.25 9.16675C17.4006 9.16675 18.3333 8.23401 18.3333 7.08341V3.75008C18.3333 2.59949 17.4006 1.66675 16.25 1.66675H3.75001C2.59941 1.66675 1.66667 2.59949 1.66667 3.75008V7.08342ZM3.75001 7.50008C3.51989 7.50008 3.33334 7.31353 3.33334 7.08342L3.33334 3.75008C3.33334 3.51996 3.51989 3.33342 3.75001 3.33342L16.25 3.33341C16.4801 3.33341 16.6667 3.51996 16.6667 3.75008V7.08341C16.6667 7.31353 16.4801 7.50008 16.25 7.50008L3.75001 7.50008Z" fill="white"/>
<path fill-rule="evenodd" clip-rule="evenodd" d="M3.75001 18.3334C2.59941 18.3334 1.66667 17.4007 1.66667 16.2501V12.0834C1.66667 10.9328 2.59941 10.0001 3.75001 10.0001H7.08334C8.23393 10.0001 9.16667 10.9328 9.16667 12.0834V16.2501C9.16667 17.4007 8.23393 18.3334 7.08334 18.3334H3.75001ZM3.33334 16.2501C3.33334 16.4802 3.51989 16.6667 3.75001 16.6667H7.08334C7.31346 16.6667 7.50001 16.4802 7.50001 16.2501V12.0834C7.50001 11.8533 7.31346 11.6667 7.08334 11.6667H3.75001C3.51989 11.6667 3.33334 11.8533 3.33334 12.0834L3.33334 16.2501Z" fill="white"/>
<path fill-rule="evenodd" clip-rule="evenodd" d="M12.9167 18.3334C11.7661 18.3334 10.8333 17.4007 10.8333 16.2501V12.0834C10.8333 10.9328 11.7661 10.0001 12.9167 10.0001H16.25C17.4006 10.0001 18.3333 10.9328 18.3333 12.0834V16.2501C18.3333 17.4007 17.4006 18.3334 16.25 18.3334H12.9167ZM12.5 16.2501C12.5 16.4802 12.6866 16.6667 12.9167 16.6667H16.25C16.4801 16.6667 16.6667 16.4802 16.6667 16.2501V12.0834C16.6667 11.8533 16.4801 11.6667 16.25 11.6667H12.9167C12.6866 11.6667 12.5 11.8533 12.5 12.0834V16.2501Z" fill="white"/>
</g>
</g>
</svg>
