<svg width="21" height="20" viewBox="0 0 21 20" fill="none" xmlns="http://www.w3.org/2000/svg">
<g id="icon / heart">
<path id="icon" fill-rule="evenodd" clip-rule="evenodd" d="M9.21488 2.27598C9.74845 2.5462 10.1828 2.86249 10.4997 3.12841C10.8166 2.86249 11.2509 2.54621 11.7845 2.27598C12.9936 1.66361 14.7338 1.28486 16.6908 2.27597C17.9409 2.90908 18.7865 3.86704 19.247 5.03012C19.7013 6.17757 19.763 7.4766 19.5443 8.79457C19.1718 11.0401 17.637 13.0438 16.0607 14.5876C14.4648 16.1507 12.7149 17.3495 11.728 17.9745C10.9726 18.453 10.0269 18.453 9.27146 17.9745C8.28455 17.3495 6.5346 16.1507 4.93863 14.5876C3.36233 13.0438 1.82752 11.0401 1.45494 8.79457C1.23626 7.4766 1.29798 6.17757 1.75229 5.03012C2.21278 3.86704 3.05841 2.90908 4.30851 2.27597C6.26551 1.28486 8.00574 1.66361 9.21488 2.27598ZM9.86481 4.82124C10.0231 5.00746 10.2552 5.11481 10.4997 5.11481C10.7438 5.11481 10.9755 5.00782 11.1338 4.8222C11.134 4.82199 11.1342 4.82178 11.1343 4.82156C11.1345 4.82131 11.1348 4.82106 11.135 4.82081L11.1476 4.80661C11.1606 4.79222 11.1824 4.76852 11.2126 4.73727C11.2731 4.67464 11.3665 4.58255 11.4897 4.47484C11.7378 4.25781 12.0958 3.98653 12.5375 3.76283C13.405 3.32348 14.5721 3.07118 15.9378 3.76283C16.8294 4.21441 17.3888 4.8643 17.6974 5.64366C18.0121 6.43866 18.0835 7.41667 17.9002 8.52176C17.6156 10.2366 16.3928 11.9294 14.8945 13.3969C13.4159 14.8451 11.7743 15.9724 10.8362 16.5665C10.6253 16.7001 10.3741 16.7001 10.1632 16.5665C9.22512 15.9724 7.58346 14.8451 6.10481 13.3969C4.60649 11.9294 3.38365 10.2366 3.09913 8.52176C2.91577 7.41667 2.98716 6.43866 3.30192 5.64366C3.61048 4.8643 4.16986 4.21441 5.06152 3.76283C6.42721 3.07118 7.59433 3.32347 8.46186 3.76283C8.90356 3.98653 9.26164 4.25782 9.50974 4.47486C9.63286 4.58256 9.72634 4.67465 9.78686 4.73729C9.81705 4.76853 9.83884 4.79224 9.8518 4.80663L9.86481 4.82124Z" fill="#01020D"/>
</g>
</svg>
