<svg width="21" height="20" viewBox="0 0 21 20" fill="none" xmlns="http://www.w3.org/2000/svg">
<g id="icon / home-alt">
<path id="icon" fill-rule="evenodd" clip-rule="evenodd" d="M12.5 2.54167C11.3148 1.65278 9.68514 1.65278 8.49995 2.54167L2.77281 6.83702C1.85504 7.52535 1.35572 8.63725 1.45099 9.7805L1.97846 16.1102C2.12243 17.8378 3.56666 19.1667 5.30028 19.1667H15.6996C17.4332 19.1667 18.8775 17.8378 19.0214 16.1102L19.5489 9.7805C19.6442 8.63725 19.1449 7.52535 18.2271 6.83702L12.5 2.54167ZM9.49995 3.875C10.0925 3.43056 10.9074 3.43056 11.5 3.875L17.2271 8.17035C17.686 8.51452 17.9356 9.07047 17.888 9.6421L17.3605 15.9717C17.2885 16.8356 16.5664 17.5 15.6996 17.5H13.0723L13.2407 15.4787C13.3744 13.8752 12.109 12.5 10.5 12.5C8.89093 12.5 7.62555 13.8752 7.75918 15.4787L7.92762 17.5H5.30028C4.43347 17.5 3.71136 16.8356 3.63937 15.9717L3.1119 9.6421C3.06427 9.07047 3.31393 8.51452 3.77281 8.17035L9.49995 3.875ZM11.5798 15.3403L11.3998 17.5H9.60006L9.42009 15.3403C9.36744 14.7085 9.866 14.1667 10.5 14.1667C11.1339 14.1667 11.6325 14.7085 11.5798 15.3403Z" fill="white"/>
</g>
</svg>
