<svg width="314" height="90" viewBox="0 0 314 90" fill="none" xmlns="http://www.w3.org/2000/svg">
<path d="M5.6991 1.30308C5.25754 0.238217 3.74291 -0.0816777 2.31534 0.588991C0.890288 1.25831 0.0887265 2.66645 0.530294 3.73132L5.6991 1.30308ZM313.77 20.4009C314.152 19.1419 313.291 18.1249 311.845 18.1313L288.31 18.216C286.866 18.2212 285.388 19.245 285.006 20.5042C284.626 21.7619 285.487 22.7788 286.931 22.7738L307.85 22.6988L302.33 40.9308C301.95 42.1887 302.811 43.2057 304.255 43.2004C305.699 43.1954 307.18 42.1703 307.561 40.9111L313.77 20.4009ZM0.530294 3.73132C17.0952 43.7662 52.8247 77.5966 105.738 86.7363C158.785 95.8997 228.549 80.1563 312.517 22.0145L309.796 18.8045C227.015 76.124 159.165 91.0816 108.081 82.2568C56.8619 73.4099 21.9431 40.5645 5.6991 1.30308L0.530294 3.73132Z" fill="#2A3362"/>
</svg>
