<svg width="314" height="90" viewBox="0 0 314 90" fill="none" xmlns="http://www.w3.org/2000/svg">
<path d="M5.6991 88.2916C5.25754 89.3565 3.74291 89.6764 2.31534 89.0057C0.890288 88.3364 0.0887265 86.9283 0.530294 85.8634L5.6991 88.2916ZM313.77 69.1938C314.152 70.4529 313.291 71.4698 311.845 71.4635L288.31 71.3787C286.866 71.3735 285.388 70.3498 285.006 69.0906C284.626 67.8329 285.487 66.8159 286.931 66.8209L307.85 66.8959L302.33 48.6639C301.95 47.406 302.811 46.3891 304.255 46.3943C305.699 46.3993 307.18 47.4244 307.561 48.6836L313.77 69.1938ZM0.530294 85.8634C17.0952 45.8285 52.8247 11.9981 105.738 2.85839C158.785 -6.30495 228.549 9.43845 312.517 67.5802L309.796 70.7902C227.015 13.4707 159.165 -1.48684 108.081 7.3379C56.8619 16.1849 21.9431 49.0303 5.6991 88.2916L0.530294 85.8634Z" fill="#2A3362"/>
</svg>
