<svg width="120" height="85" viewBox="0 0 120 85" fill="none" xmlns="http://www.w3.org/2000/svg">
<rect x="32.5" y="0.5" width="55" height="55" rx="27.5" stroke="#1D1D1D" stroke-opacity="0.1"/>
<path d="M60.0036 19.7956C55.4632 19.7956 51.801 23.4587 51.801 28C51.801 32.5413 55.4632 36.2044 60.0036 36.2044C64.5439 36.2044 68.2061 32.5413 68.2061 28C68.2061 23.4587 64.5439 19.7956 60.0036 19.7956ZM60.0036 33.3339C57.0695 33.3339 54.6708 30.9419 54.6708 28C54.6708 25.0581 57.0624 22.6661 60.0036 22.6661C62.9448 22.6661 65.3363 25.0581 65.3363 28C65.3363 30.9419 62.9376 33.3339 60.0036 33.3339ZM70.4549 19.46C70.4549 20.5239 69.5982 21.3736 68.5417 21.3736C67.478 21.3736 66.6284 20.5168 66.6284 19.46C66.6284 18.4032 67.4851 17.5464 68.5417 17.5464C69.5982 17.5464 70.4549 18.4032 70.4549 19.46ZM75.8876 21.4022C75.7662 18.8388 75.1808 16.5681 73.3033 14.6973C71.4329 12.8265 69.1627 12.241 66.5999 12.1125C63.9585 11.9625 56.0415 11.9625 53.4001 12.1125C50.8444 12.2339 48.5742 12.8194 46.6967 14.6902C44.8192 16.561 44.2409 18.8316 44.1124 21.3951C43.9625 24.037 43.9625 31.9558 44.1124 34.5978C44.2338 37.1612 44.8192 39.4319 46.6967 41.3027C48.5742 43.1735 50.8373 43.759 53.4001 43.8875C56.0415 44.0375 63.9585 44.0375 66.5999 43.8875C69.1627 43.7661 71.4329 43.1806 73.3033 41.3027C75.1737 39.4319 75.7591 37.1612 75.8876 34.5978C76.0375 31.9558 76.0375 24.0442 75.8876 21.4022ZM72.4752 37.4326C71.9184 38.8321 70.8404 39.9103 69.434 40.4744C67.3281 41.3098 62.3308 41.117 60.0036 41.117C57.6763 41.117 52.6719 41.3027 50.5731 40.4744C49.1739 39.9174 48.0959 38.8392 47.532 37.4326C46.6967 35.3261 46.8895 30.3278 46.8895 28C46.8895 25.6722 46.7038 20.6667 47.532 18.5674C48.0888 17.1679 49.1668 16.0897 50.5731 15.5256C52.6791 14.6902 57.6763 14.883 60.0036 14.883C62.3308 14.883 67.3352 14.6973 69.434 15.5256C70.8332 16.0826 71.9112 17.1608 72.4752 18.5674C73.3104 20.6739 73.1177 25.6722 73.1177 28C73.1177 30.3278 73.3104 35.3333 72.4752 37.4326Z" fill="black"/>
<path d="M23.78 79V67.48H24.956V79H23.78ZM33.5944 79V74.592C33.5944 74.112 33.549 73.672 33.4584 73.272C33.3677 72.8667 33.221 72.5147 33.0184 72.216C32.821 71.912 32.5624 71.6773 32.2424 71.512C31.9277 71.3467 31.5437 71.264 31.0904 71.264C30.6744 71.264 30.3064 71.336 29.9864 71.48C29.6717 71.624 29.405 71.832 29.1864 72.104C28.973 72.3707 28.8104 72.696 28.6984 73.08C28.5864 73.464 28.5304 73.9013 28.5304 74.392L27.6984 74.208C27.6984 73.3227 27.853 72.5787 28.1624 71.976C28.4717 71.3733 28.8984 70.9173 29.4424 70.608C29.9864 70.2987 30.6104 70.144 31.3144 70.144C31.8317 70.144 32.2824 70.224 32.6664 70.384C33.0557 70.544 33.3837 70.76 33.6504 71.032C33.9224 71.304 34.141 71.616 34.3064 71.968C34.4717 72.3147 34.5917 72.6853 34.6664 73.08C34.741 73.4693 34.7784 73.8587 34.7784 74.248V79H33.5944ZM27.3464 79V70.36H28.4104V72.488H28.5304V79H27.3464ZM40.0784 79.232C39.065 79.232 38.2304 79.0133 37.5744 78.576C36.9237 78.1387 36.5237 77.5307 36.3744 76.752L37.5744 76.552C37.7024 77.0427 37.993 77.4347 38.4464 77.728C38.905 78.016 39.4704 78.16 40.1424 78.16C40.7984 78.16 41.3157 78.024 41.6944 77.752C42.073 77.4747 42.2624 77.0987 42.2624 76.624C42.2624 76.3573 42.201 76.1413 42.0784 75.976C41.961 75.8053 41.7184 75.648 41.3504 75.504C40.9824 75.36 40.433 75.1893 39.7024 74.992C38.9184 74.7787 38.305 74.5653 37.8624 74.352C37.4197 74.1387 37.105 73.8933 36.9184 73.616C36.7317 73.3333 36.6384 72.9893 36.6384 72.584C36.6384 72.0933 36.777 71.664 37.0544 71.296C37.3317 70.9227 37.7157 70.6347 38.2064 70.432C38.697 70.224 39.2677 70.12 39.9184 70.12C40.569 70.12 41.1504 70.2267 41.6624 70.44C42.1797 70.648 42.5957 70.9413 42.9104 71.32C43.225 71.6987 43.4117 72.1387 43.4704 72.64L42.2704 72.856C42.1904 72.3493 41.937 71.9493 41.5104 71.656C41.089 71.3573 40.553 71.2027 39.9024 71.192C39.289 71.176 38.7904 71.2933 38.4064 71.544C38.0224 71.7893 37.8304 72.1173 37.8304 72.528C37.8304 72.7573 37.8997 72.9547 38.0384 73.12C38.177 73.28 38.4277 73.432 38.7904 73.576C39.1584 73.72 39.681 73.8773 40.3584 74.048C41.153 74.2507 41.777 74.464 42.2304 74.688C42.6837 74.912 43.0064 75.176 43.1984 75.48C43.3904 75.784 43.4864 76.16 43.4864 76.608C43.4864 77.424 43.1824 78.0667 42.5744 78.536C41.9717 79 41.1397 79.232 40.0784 79.232ZM49.9646 79C49.4793 79.1013 48.9993 79.1413 48.5246 79.12C48.0553 79.0987 47.634 78.9973 47.2606 78.816C46.8926 78.6347 46.6126 78.352 46.4206 77.968C46.266 77.648 46.1806 77.3253 46.1646 77C46.154 76.6693 46.1486 76.2933 46.1486 75.872V67.96H47.3166V75.824C47.3166 76.1867 47.3193 76.4907 47.3246 76.736C47.3353 76.976 47.3913 77.1893 47.4926 77.376C47.6846 77.7333 47.9886 77.9467 48.4046 78.016C48.826 78.0853 49.346 78.0693 49.9646 77.968V79ZM44.3006 71.368V70.36H49.9646V71.368H44.3006ZM54.1389 79.24C53.4882 79.24 52.9415 79.1227 52.4989 78.888C52.0615 78.6533 51.7335 78.3413 51.5149 77.952C51.2962 77.5627 51.1869 77.1387 51.1869 76.68C51.1869 76.2107 51.2802 75.8107 51.4669 75.48C51.6589 75.144 51.9175 74.8693 52.2429 74.656C52.5735 74.4427 52.9549 74.28 53.3869 74.168C53.8242 74.0613 54.3069 73.968 54.8349 73.888C55.3682 73.8027 55.8882 73.7307 56.3949 73.672C56.9069 73.608 57.3549 73.5467 57.7389 73.488L57.3229 73.744C57.3389 72.8907 57.1735 72.2587 56.8269 71.848C56.4802 71.4373 55.8775 71.232 55.0189 71.232C54.4269 71.232 53.9255 71.3653 53.5149 71.632C53.1095 71.8987 52.8242 72.32 52.6589 72.896L51.5149 72.56C51.7122 71.7867 52.1095 71.1867 52.7069 70.76C53.3042 70.3333 54.0802 70.12 55.0349 70.12C55.8242 70.12 56.4935 70.2693 57.0429 70.568C57.5975 70.8613 57.9895 71.288 58.2189 71.848C58.3255 72.0987 58.3949 72.3787 58.4269 72.688C58.4589 72.9973 58.4749 73.312 58.4749 73.632V79H57.4269V76.832L57.7309 76.96C57.4375 77.7013 56.9815 78.2667 56.3629 78.656C55.7442 79.0453 55.0029 79.24 54.1389 79.24ZM54.2749 78.224C54.8242 78.224 55.3042 78.1253 55.7149 77.928C56.1255 77.7307 56.4562 77.4613 56.7069 77.12C56.9575 76.7733 57.1202 76.384 57.1949 75.952C57.2589 75.6747 57.2935 75.3707 57.2989 75.04C57.3042 74.704 57.3069 74.4533 57.3069 74.288L57.7549 74.52C57.3549 74.5733 56.9202 74.6267 56.4509 74.68C55.9869 74.7333 55.5282 74.7947 55.0749 74.864C54.6269 74.9333 54.2215 75.016 53.8589 75.112C53.6135 75.1813 53.3762 75.28 53.1469 75.408C52.9175 75.5307 52.7282 75.696 52.5789 75.904C52.4349 76.112 52.3629 76.3707 52.3629 76.68C52.3629 76.9307 52.4242 77.1733 52.5469 77.408C52.6749 77.6427 52.8775 77.8373 53.1549 77.992C53.4375 78.1467 53.8109 78.224 54.2749 78.224ZM63.9895 83.08C63.5468 83.08 63.1095 83.0133 62.6775 82.88C62.2508 82.752 61.8562 82.5467 61.4935 82.264C61.1308 81.9867 60.8268 81.624 60.5815 81.176L61.6455 80.584C61.8855 81.064 62.2215 81.408 62.6535 81.616C63.0908 81.8293 63.5362 81.936 63.9895 81.936C64.6135 81.936 65.1175 81.8187 65.5015 81.584C65.8908 81.3547 66.1735 81.0133 66.3495 80.56C66.5255 80.1067 66.6108 79.5413 66.6055 78.864V76.56H66.7415V70.36H67.7895V78.88C67.7895 79.1253 67.7815 79.36 67.7655 79.584C67.7548 79.8133 67.7308 80.0373 67.6935 80.256C67.5922 80.9013 67.3815 81.432 67.0615 81.848C66.7468 82.264 66.3308 82.5733 65.8135 82.776C65.3015 82.9787 64.6935 83.08 63.9895 83.08ZM63.9095 79.24C63.1042 79.24 62.4162 79.04 61.8455 78.64C61.2748 78.2347 60.8375 77.688 60.5335 77C60.2295 76.312 60.0775 75.536 60.0775 74.672C60.0775 73.8133 60.2268 73.04 60.5255 72.352C60.8295 71.664 61.2642 71.12 61.8295 70.72C62.3948 70.32 63.0722 70.12 63.8615 70.12C64.6722 70.12 65.3548 70.3173 65.9095 70.712C66.4642 71.1067 66.8828 71.648 67.1655 72.336C67.4535 73.0187 67.5975 73.7973 67.5975 74.672C67.5975 75.5307 67.4562 76.3067 67.1735 77C66.8908 77.688 66.4748 78.2347 65.9255 78.64C65.3762 79.04 64.7042 79.24 63.9095 79.24ZM64.0295 78.144C64.6428 78.144 65.1495 77.9947 65.5495 77.696C65.9495 77.3973 66.2482 76.9867 66.4455 76.464C66.6428 75.936 66.7415 75.3387 66.7415 74.672C66.7415 73.9947 66.6428 73.3973 66.4455 72.88C66.2482 72.3573 65.9495 71.9493 65.5495 71.656C65.1548 71.3627 64.6562 71.216 64.0535 71.216C63.4348 71.216 62.9228 71.368 62.5175 71.672C62.1122 71.976 61.8108 72.3893 61.6135 72.912C61.4215 73.4347 61.3255 74.0213 61.3255 74.672C61.3255 75.328 61.4242 75.92 61.6215 76.448C61.8242 76.9707 62.1255 77.384 62.5255 77.688C62.9255 77.992 63.4268 78.144 64.0295 78.144ZM70.0263 79V70.36H71.0823V72.44L70.8743 72.168C70.9703 71.912 71.0956 71.6773 71.2503 71.464C71.4049 71.2453 71.5729 71.0667 71.7543 70.928C71.9783 70.7307 72.2396 70.5813 72.5383 70.48C72.8369 70.3733 73.1383 70.312 73.4423 70.296C73.7463 70.2747 74.0236 70.296 74.2743 70.36V71.464C73.9596 71.384 73.6156 71.3653 73.2423 71.408C72.8689 71.4507 72.5249 71.6 72.2103 71.856C71.9223 72.08 71.7063 72.3493 71.5623 72.664C71.4183 72.9733 71.3223 73.304 71.2743 73.656C71.2263 74.0027 71.2023 74.3467 71.2023 74.688V79H70.0263ZM77.9358 79.24C77.2851 79.24 76.7384 79.1227 76.2958 78.888C75.8584 78.6533 75.5304 78.3413 75.3118 77.952C75.0931 77.5627 74.9838 77.1387 74.9838 76.68C74.9838 76.2107 75.0771 75.8107 75.2638 75.48C75.4558 75.144 75.7144 74.8693 76.0398 74.656C76.3704 74.4427 76.7518 74.28 77.1838 74.168C77.6211 74.0613 78.1038 73.968 78.6318 73.888C79.1651 73.8027 79.6851 73.7307 80.1918 73.672C80.7038 73.608 81.1518 73.5467 81.5358 73.488L81.1198 73.744C81.1358 72.8907 80.9704 72.2587 80.6238 71.848C80.2771 71.4373 79.6744 71.232 78.8158 71.232C78.2238 71.232 77.7224 71.3653 77.3118 71.632C76.9064 71.8987 76.6211 72.32 76.4557 72.896L75.3118 72.56C75.5091 71.7867 75.9064 71.1867 76.5038 70.76C77.1011 70.3333 77.8771 70.12 78.8318 70.12C79.6211 70.12 80.2904 70.2693 80.8398 70.568C81.3944 70.8613 81.7864 71.288 82.0158 71.848C82.1224 72.0987 82.1918 72.3787 82.2238 72.688C82.2558 72.9973 82.2718 73.312 82.2718 73.632V79H81.2238V76.832L81.5278 76.96C81.2344 77.7013 80.7784 78.2667 80.1598 78.656C79.5411 79.0453 78.7998 79.24 77.9358 79.24ZM78.0718 78.224C78.6211 78.224 79.1011 78.1253 79.5118 77.928C79.9224 77.7307 80.2531 77.4613 80.5038 77.12C80.7544 76.7733 80.9171 76.384 80.9918 75.952C81.0558 75.6747 81.0904 75.3707 81.0958 75.04C81.1011 74.704 81.1038 74.4533 81.1038 74.288L81.5518 74.52C81.1518 74.5733 80.7171 74.6267 80.2478 74.68C79.7838 74.7333 79.3251 74.7947 78.8718 74.864C78.4238 74.9333 78.0184 75.016 77.6558 75.112C77.4104 75.1813 77.1731 75.28 76.9438 75.408C76.7144 75.5307 76.5251 75.696 76.3758 75.904C76.2318 76.112 76.1598 76.3707 76.1598 76.68C76.1598 76.9307 76.2211 77.1733 76.3438 77.408C76.4718 77.6427 76.6744 77.8373 76.9518 77.992C77.2344 78.1467 77.6078 78.224 78.0718 78.224ZM94.6584 79L94.6664 73.328C94.6664 72.6613 94.4797 72.1387 94.1064 71.76C93.7384 71.376 93.269 71.184 92.6984 71.184C92.373 71.184 92.0557 71.2587 91.7464 71.408C91.437 71.5573 91.181 71.7973 90.9784 72.128C90.781 72.4587 90.6824 72.8907 90.6824 73.424L89.9864 73.224C89.9704 72.6053 90.0904 72.064 90.3464 71.6C90.6077 71.136 90.965 70.776 91.4184 70.52C91.877 70.2587 92.3944 70.128 92.9704 70.128C93.8397 70.128 94.5357 70.3973 95.0584 70.936C95.581 71.4693 95.8424 72.192 95.8424 73.104L95.8344 79H94.6584ZM84.3464 79V70.36H85.4024V72.488H85.5304V79H84.3464ZM89.5144 79L89.5224 73.408C89.5224 72.72 89.3384 72.1787 88.9704 71.784C88.6077 71.384 88.1277 71.184 87.5304 71.184C86.933 71.184 86.4504 71.3893 86.0824 71.8C85.7144 72.2053 85.5304 72.7467 85.5304 73.424L84.8264 73.04C84.8264 72.4853 84.957 71.9893 85.2184 71.552C85.4797 71.1093 85.837 70.7627 86.2904 70.512C86.7437 70.256 87.2584 70.128 87.8344 70.128C88.3837 70.128 88.8717 70.2453 89.2984 70.48C89.7304 70.7147 90.069 71.056 90.3144 71.504C90.5597 71.952 90.6824 72.496 90.6824 73.136L90.6744 79H89.5144Z" fill="#6D6D6D"/>
</svg>
