<svg width="56" height="56" viewBox="0 0 56 56" fill="none" xmlns="http://www.w3.org/2000/svg">
<rect x="0.5" y="0.5" width="55" height="55" rx="27.5" stroke="#1D1D1D" stroke-opacity="0.1"/>
<path d="M28.0036 19.7956C23.4632 19.7956 19.801 23.4587 19.801 28C19.801 32.5413 23.4632 36.2044 28.0036 36.2044C32.5439 36.2044 36.2061 32.5413 36.2061 28C36.2061 23.4587 32.5439 19.7956 28.0036 19.7956ZM28.0036 33.3339C25.0695 33.3339 22.6708 30.9419 22.6708 28C22.6708 25.0581 25.0624 22.6661 28.0036 22.6661C30.9448 22.6661 33.3363 25.0581 33.3363 28C33.3363 30.9419 30.9376 33.3339 28.0036 33.3339ZM38.4549 19.46C38.4549 20.5239 37.5982 21.3736 36.5417 21.3736C35.478 21.3736 34.6284 20.5168 34.6284 19.46C34.6284 18.4032 35.4851 17.5464 36.5417 17.5464C37.5982 17.5464 38.4549 18.4032 38.4549 19.46ZM43.8876 21.4022C43.7662 18.8388 43.1808 16.5681 41.3033 14.6973C39.4329 12.8265 37.1627 12.241 34.5999 12.1125C31.9585 11.9625 24.0415 11.9625 21.4001 12.1125C18.8444 12.2339 16.5742 12.8194 14.6967 14.6902C12.8192 16.561 12.2409 18.8316 12.1124 21.3951C11.9625 24.037 11.9625 31.9558 12.1124 34.5978C12.2338 37.1612 12.8192 39.4319 14.6967 41.3027C16.5742 43.1735 18.8373 43.759 21.4001 43.8875C24.0415 44.0375 31.9585 44.0375 34.5999 43.8875C37.1627 43.7661 39.4329 43.1806 41.3033 41.3027C43.1737 39.4319 43.7591 37.1612 43.8876 34.5978C44.0375 31.9558 44.0375 24.0442 43.8876 21.4022ZM40.4752 37.4326C39.9184 38.8321 38.8404 39.9103 37.434 40.4744C35.3281 41.3098 30.3308 41.117 28.0036 41.117C25.6763 41.117 20.6719 41.3027 18.5731 40.4744C17.1739 39.9174 16.0959 38.8392 15.532 37.4326C14.6967 35.3261 14.8895 30.3278 14.8895 28C14.8895 25.6722 14.7038 20.6667 15.532 18.5674C16.0888 17.1679 17.1668 16.0897 18.5731 15.5256C20.6791 14.6902 25.6763 14.883 28.0036 14.883C30.3308 14.883 35.3352 14.6973 37.434 15.5256C38.8332 16.0826 39.9112 17.1608 40.4752 18.5674C41.3104 20.6739 41.1177 25.6722 41.1177 28C41.1177 30.3278 41.3104 35.3333 40.4752 37.4326Z" fill="black"/>
</svg>
