<svg width="13" height="16" viewBox="0 0 13 16" fill="none" xmlns="http://www.w3.org/2000/svg">
<path id="Vector" d="M6.4 8C6.84 8 7.2168 7.8432 7.5304 7.5296C7.844 7.216 8.00053 6.83947 8 6.4C8 5.96 7.8432 5.5832 7.5296 5.2696C7.216 4.956 6.83947 4.79947 6.4 4.8C5.96 4.8 5.5832 4.9568 5.2696 5.2704C4.956 5.584 4.79947 5.96053 4.8 6.4C4.8 6.84 4.9568 7.2168 5.2704 7.5304C5.584 7.844 5.96053 8.00053 6.4 8ZM6.4 16C4.25333 14.1733 2.65013 12.4768 1.5904 10.9104C0.530667 9.344 0.000533333 7.89387 0 6.56C0 4.56 0.643467 2.96667 1.9304 1.78C3.21733 0.593333 4.7072 0 6.4 0C8.09333 0 9.58347 0.593333 10.8704 1.78C12.1573 2.96667 12.8005 4.56 12.8 6.56C12.8 7.89333 12.2699 9.34347 11.2096 10.9104C10.1493 12.4773 8.54613 14.1739 6.4 16Z" fill="#E1E2E2"/>
</svg>
