<svg width="144" height="48" viewBox="0 0 144 48" fill="none" xmlns="http://www.w3.org/2000/svg">
<g id="logo 3" clip-path="url(#clip0_1295_28257)">
<path id="Vector" d="M20.1551 2.4586C10.6526 -0.657301 1.72618 0.547226 0.218002 5.15017C-0.809569 8.28517 1.86996 12.1873 6.68607 15.3424C7.6714 8.59988 10.6194 3.73048 14.3154 3.56359C19.0852 3.34841 23.3203 11.0472 23.8703 20.8383C29.3831 21.0353 33.6301 19.4788 34.6285 16.4333C36.1377 11.8314 29.6576 5.57448 20.1551 2.4586Z" fill="#2A3362"/>
<path id="Vector_2" d="M23.8915 21.257C23.8854 21.1172 23.8774 20.9775 23.8704 20.8387C23.3203 11.0476 19.0864 3.34891 14.3155 3.56406C10.6195 3.73097 7.67153 8.59937 6.6862 15.343C6.38154 17.4272 6.2649 19.6895 6.37047 22.0483C6.82092 32.0384 11.1082 39.9594 15.9463 39.7412C20.7846 39.5231 24.342 31.2471 23.8915 21.257Z" fill="#FF4500"/>
<path id="Vector_3" d="M14.3144 3.56406C10.6183 3.73097 7.67036 8.59936 6.68502 15.343C8.93923 16.8189 11.66 18.1321 14.6895 19.1254C17.9039 20.1791 21.0509 20.7382 23.8682 20.8387C23.3181 11.0476 19.0852 3.34891 14.3144 3.56406Z" fill="#009E3A"/>
<path id="Vector_4" d="M57.7913 30.1725L59.2864 32.9436C59.1818 33.0481 59.0371 33.1718 58.85 33.3177C58.663 33.4634 58.2477 33.6554 57.6042 33.8937C56.9607 34.1321 56.2861 34.2516 55.5804 34.2516C54.0439 34.2516 52.7309 33.7741 51.641 32.8189C50.5511 31.8647 50.0061 30.619 50.0061 29.0826V21.8585H46.8922V18.807H48.4487C48.9887 18.807 49.4189 18.641 49.7407 18.3082C50.0624 17.9764 50.2233 17.53 50.2233 16.969V13.8551H53.9907V18.5264H57.914V21.8585H53.9907V28.8333C53.9907 29.3521 54.1827 29.7934 54.5668 30.1565C54.9508 30.5204 55.4234 30.7014 55.9836 30.7014C56.2529 30.7014 56.5385 30.6551 56.8401 30.5617C57.1408 30.4682 57.3741 30.3806 57.5409 30.2973L57.7913 30.1725Z" fill="#2A3362"/>
<path id="Vector_5" d="M72.0527 18.5265H76.2564V34.096H73.1425L72.5826 32.3526H72.1773C71.1599 33.6193 69.6447 34.2518 67.6307 34.2518C65.6169 34.2518 64.0704 33.5982 62.9906 32.2902C61.9107 30.9821 61.3718 29.2074 61.3718 26.9654V18.5265H65.6067V26.0313C65.6067 26.6537 65.6329 27.1785 65.6842 27.6038C65.7354 28.0291 65.8451 28.5017 66.0109 29.0205C66.1769 29.5393 66.4675 29.9395 66.8826 30.2189C67.2979 30.4995 67.8167 30.6393 68.4402 30.6393C68.8342 30.6393 69.2183 30.5769 69.5924 30.4522C69.9664 30.3275 70.3495 30.1043 70.7446 29.7825C71.1388 29.4608 71.4554 28.9632 71.6947 28.2874C71.9331 27.6128 72.0527 26.7984 72.0527 25.8432V18.5265Z" fill="#2A3362"/>
<path id="Vector_6" d="M82.1423 16.7824C81.4154 16.7824 80.7879 16.5231 80.258 16.0042C79.7292 15.4854 79.4637 14.873 79.4637 14.1673C79.4637 13.4202 79.7232 12.7918 80.242 12.283C80.7609 11.7743 81.3942 11.5199 82.1412 11.5199C82.8883 11.5199 83.4855 11.7743 83.9943 12.283C84.5031 12.7918 84.7575 13.4192 84.7575 14.1673C84.7575 14.873 84.498 15.4854 83.9792 16.0042C83.4605 16.5231 82.8471 16.7824 82.1423 16.7824ZM84.1351 18.5258V34.0953H80.1495V18.5258H84.1351Z" fill="#2A3362"/>
<path id="Vector_7" d="M97.5559 30.1725L99.0509 32.9436C98.9465 33.0481 98.8016 33.1718 98.6146 33.3177C98.4276 33.4634 98.0124 33.6554 97.3689 33.8937C96.7254 34.1321 96.0508 34.2516 95.3449 34.2516C93.8086 34.2516 92.4954 33.7741 91.4055 32.8189C90.3156 31.8647 89.7706 30.619 89.7706 29.0826V21.8585H86.6567V18.807H88.2143C88.7542 18.807 89.1844 18.641 89.5062 18.3082C89.8279 17.9764 89.9888 17.53 89.9888 16.969V13.8551H93.7562V18.5264H97.6796V21.8585H93.7562V28.8333C93.7562 29.3521 93.9484 29.7934 94.3324 30.1565C94.7165 30.5204 95.1891 30.7014 95.7491 30.7014C96.0185 30.7014 96.3042 30.6551 96.6057 30.5617C96.9063 30.4682 97.1396 30.3806 97.3065 30.2973L97.5559 30.1725Z" fill="#2A3362"/>
<path id="Vector_8" d="M103.068 16.7824C102.341 16.7824 101.713 16.5231 101.184 16.0042C100.654 15.4854 100.389 14.873 100.389 14.1673C100.389 13.4202 100.649 12.7918 101.167 12.283C101.686 11.7743 102.32 11.5199 103.067 11.5199C103.814 11.5199 104.411 11.7743 104.92 12.283C105.429 12.7918 105.683 13.4192 105.683 14.1673C105.683 14.873 105.424 15.4854 104.905 16.0042C104.386 16.5231 103.773 16.7824 103.068 16.7824ZM105.061 18.5258V34.0953H101.075V18.5258H105.061Z" fill="#2A3362"/>
<path id="Vector_9" d="M121.828 32.0556C120.261 33.5194 118.377 34.2505 116.177 34.2505C113.977 34.2505 112.108 33.5235 110.571 32.0706C109.035 30.6178 108.267 28.7074 108.267 26.3405C108.267 23.9737 109.061 22.0282 110.649 20.5642C112.236 19.1002 114.121 18.3693 116.3 18.3693C118.48 18.3693 120.337 19.0963 121.875 20.5491C123.411 22.0021 124.179 23.9125 124.179 26.2793C124.179 28.646 123.395 30.5916 121.828 32.0556ZM113.452 29.393C114.189 30.2236 115.138 30.6389 116.301 30.6389C117.465 30.6389 118.388 30.2297 119.072 29.4092C119.757 28.5897 120.1 27.5561 120.1 26.3104C120.1 25.0646 119.757 24.032 119.072 23.2117C118.388 22.3922 117.464 21.982 116.301 21.982C115.139 21.982 114.189 22.3971 113.452 23.2277C112.715 24.0582 112.347 25.0857 112.347 26.3104C112.347 27.535 112.715 28.5637 113.452 29.393Z" fill="#2A3362"/>
<path id="Vector_10" d="M136.106 18.3703C138.057 18.3703 139.542 19.03 140.559 20.3481C141.576 21.6662 142.084 23.4358 142.084 25.6569V34.0956H137.943V26.5909L137.974 26.3104C137.974 26.1234 137.969 25.9575 137.959 25.8117C137.948 25.6669 137.938 25.4639 137.928 25.2044C137.917 24.945 137.886 24.7117 137.834 24.5036C137.782 24.2965 137.72 24.0631 137.647 23.8028C137.575 23.5434 137.47 23.3152 137.336 23.1181C137.201 22.921 137.045 22.7401 136.868 22.5731C136.691 22.4073 136.468 22.2725 136.198 22.1679C135.928 22.0643 135.638 22.0021 135.327 21.981C134.911 21.9607 134.491 22.0121 134.066 22.1367C133.641 22.2614 133.204 22.4847 132.758 22.8064C132.311 23.1282 131.948 23.6319 131.668 24.3165C131.387 25.0013 131.248 25.8217 131.248 26.7769V34.0946H127.137V18.5253H130.313L130.842 20.4245H131.372C132.513 19.0541 134.092 18.3703 136.106 18.3703Z" fill="#2A3362"/>
<path id="Vector_11" d="M94.0377 41.5908C94.5584 41.5908 94.9947 41.7798 95.3478 42.1588C95.6996 42.5379 95.8766 43.0315 95.8766 43.6419C95.8766 44.2522 95.7056 44.7399 95.3638 45.1209C95.0219 45.5019 94.5936 45.6931 94.0778 45.6931C93.562 45.6931 93.1598 45.4929 92.8702 45.0938H92.7838L92.6651 45.6145H92.0579V39.9971H92.8542V42.1981C93.0804 41.7929 93.4746 41.5908 94.0377 41.5908ZM93.1578 44.593C93.36 44.8374 93.6244 44.96 93.9511 44.96C94.2779 44.96 94.5453 44.8363 94.7555 44.5891C94.9657 44.3417 95.0713 44.026 95.0713 43.6419C95.0713 43.2579 94.9677 42.9361 94.7595 42.6907C94.5514 42.4464 94.2819 42.3238 93.9511 42.3238C93.6203 42.3238 93.361 42.4464 93.1578 42.6907C92.9558 42.9351 92.8542 43.2518 92.8542 43.6419C92.8542 44.032 92.9558 44.3478 93.1578 44.593Z" fill="#2A3362"/>
<path id="Vector_12" d="M99.2851 41.6704H100.13L98.6467 46.0572C98.52 46.4464 98.345 46.746 98.1218 46.9571C97.8986 47.1673 97.5869 47.2729 97.1868 47.2729C96.7866 47.2729 96.4557 47.1572 96.2396 46.926L96.5714 46.3498C96.7604 46.5027 96.9555 46.5791 97.1556 46.5791C97.3135 46.5791 97.4543 46.5197 97.5779 46.4012C97.7015 46.2825 97.7951 46.1316 97.8583 45.9476L97.969 45.6159H97.6532L96.1069 41.6714H96.9827L98.1741 44.7884H98.2525L99.2851 41.6704Z" fill="#2A3362"/>
<path id="Vector_13" d="M106.495 40.8896H103.852V42.5306H106.147V43.2957H103.852V45.6153H103.007V40.0924H106.494L106.495 40.8896Z" fill="#2A3362"/>
<path id="Vector_14" d="M107.229 40.0128H108.049V45.6141H107.229V40.0128Z" fill="#2A3362"/>
<path id="Vector_15" d="M110.488 45.6947C110.052 45.6947 109.695 45.5459 109.419 45.2493C109.143 44.9517 109.005 44.5303 109.005 43.9834V41.6719H109.849V43.8416C109.849 44.2047 109.934 44.4791 110.102 44.6662C110.27 44.8531 110.494 44.9466 110.772 44.9466C111.025 44.9466 111.238 44.8572 111.412 44.6781C111.586 44.4992 111.672 44.2307 111.672 43.8738V41.6729H112.524V45.6173H111.877L111.759 45.1276H111.687C111.409 45.5066 111.009 45.6947 110.488 45.6947Z" fill="#2A3362"/>
<path id="Vector_16" d="M115.56 45.5043C115.35 45.631 115.119 45.6934 114.865 45.6934C114.166 45.6934 113.816 45.3173 113.816 44.5653V42.3321H113.043V41.7328H113.279C113.689 41.7328 113.894 41.5488 113.894 41.1808V40.6761H114.628V41.6706H115.582V42.3331H114.628V44.4869C114.628 44.8125 114.757 44.9765 115.014 44.9765C115.135 44.9765 115.251 44.9392 115.361 44.8659L115.558 45.5053L115.56 45.5043Z" fill="#2A3362"/>
<path id="Vector_17" d="M118.401 45.5043C118.191 45.631 117.959 45.6934 117.706 45.6934C117.006 45.6934 116.656 45.3173 116.656 44.5653V42.3321H115.883V41.7328H116.119C116.529 41.7328 116.735 41.5488 116.735 41.1808V40.6761H117.469V41.6706H118.423V42.3331H117.469V44.4869C117.469 44.8125 117.597 44.9765 117.855 44.9765C117.975 44.9765 118.091 44.9392 118.202 44.8659L118.399 45.5053L118.401 45.5043Z" fill="#2A3362"/>
<path id="Vector_18" d="M120.689 41.5906C121.252 41.5906 121.71 41.7795 122.062 42.1586C122.413 42.5376 122.566 43.0976 122.519 43.8387H119.568C119.599 44.2016 119.715 44.4871 119.915 44.6943C120.115 44.9024 120.397 45.006 120.759 45.006C120.981 45.006 121.179 44.9578 121.355 44.8602C121.531 44.7628 121.658 44.6199 121.738 44.4298H122.519C122.424 44.8301 122.214 45.1398 121.888 45.3609C121.562 45.5821 121.183 45.6927 120.751 45.6927C120.146 45.6927 119.667 45.5047 119.316 45.1287C118.964 44.7526 118.787 44.2519 118.787 43.6255C118.787 42.9991 118.967 42.5437 119.328 42.1616C119.688 41.7805 120.141 41.5906 120.689 41.5906ZM119.6 43.2314H121.762C121.751 42.958 121.651 42.7257 121.462 42.5337C121.273 42.3415 121.023 42.2461 120.713 42.2461C120.424 42.2461 120.18 42.3346 119.983 42.5106C119.786 42.6864 119.658 42.9267 119.6 43.2314Z" fill="#2A3362"/>
<path id="Vector_19" d="M125.336 41.591H125.597V42.4113C125.502 42.3852 125.384 42.3722 125.242 42.3722C124.937 42.3722 124.679 42.4817 124.469 42.6999C124.258 42.9181 124.153 43.2458 124.153 43.6822V45.6147H123.316V41.6704H123.956L124.083 42.2224H124.154C124.438 41.802 124.832 41.591 125.336 41.591Z" fill="#2A3362"/>
<path id="Vector_20" d="M130.835 41.6704H131.592L130.653 45.6148H129.652L128.918 42.7986H128.846L128.096 45.6148H127.102L126.163 41.6704H126.928L127.607 44.7552H127.678L128.42 41.9459H129.343L130.092 44.7552H130.163L130.835 41.6704Z" fill="#2A3362"/>
<path id="Vector_21" d="M135.348 44.566C135.348 44.7078 135.375 44.8064 135.43 44.8617C135.485 44.9169 135.573 44.9441 135.694 44.9441V45.6147H135.545C135.113 45.6147 134.848 45.4407 134.747 45.094C134.417 45.4941 133.964 45.6931 133.39 45.6931C132.99 45.6931 132.665 45.5956 132.416 45.4016C132.166 45.2076 132.041 44.931 132.041 44.5731C132.041 43.7949 132.632 43.3585 133.816 43.263L134.565 43.2077V43.1132C134.565 42.8397 134.498 42.6225 134.364 42.4627C134.231 42.3027 134.041 42.2224 133.8 42.2224C133.559 42.2224 133.363 42.2937 133.228 42.4355C133.094 42.5773 133.014 42.7462 132.988 42.9402H132.215C132.252 42.546 132.41 42.2224 132.688 41.97C132.967 41.7175 133.335 41.591 133.793 41.591C134.252 41.591 134.631 41.7287 134.917 42.0051C135.204 42.2816 135.348 42.6688 135.348 43.1684V44.566ZM133.486 45.0396C133.775 45.0396 134.027 44.9481 134.243 44.763C134.458 44.579 134.566 44.3238 134.566 43.998V43.7929L133.967 43.8401C133.225 43.8985 132.855 44.1267 132.855 44.5268C132.855 44.6947 132.914 44.8224 133.033 44.91C133.152 44.9964 133.302 45.0396 133.486 45.0396Z" fill="#2A3362"/>
<path id="Vector_22" d="M139.08 41.6704H139.924L138.52 45.6148H137.352L135.948 41.6704H136.799L137.904 44.8819H137.984L139.08 41.6704Z" fill="#2A3362"/>
<path id="Vector_23" d="M142.077 41.5906C142.64 41.5906 143.098 41.7795 143.449 42.1586C143.801 42.5376 143.954 43.0976 143.907 43.8387H140.956C140.987 44.2016 141.103 44.4871 141.303 44.6943C141.503 44.9024 141.784 45.006 142.147 45.006C142.369 45.006 142.567 44.9578 142.743 44.8602C142.919 44.7628 143.046 44.6199 143.126 44.4298H143.907C143.812 44.8301 143.602 45.1398 143.275 45.3609C142.95 45.5821 142.571 45.6927 142.139 45.6927C141.534 45.6927 141.055 45.5047 140.704 45.1287C140.352 44.7526 140.175 44.2519 140.175 43.6255C140.175 42.9991 140.355 42.5437 140.716 42.1616C141.076 41.7805 141.529 41.5906 142.077 41.5906ZM140.988 43.2314H143.15C143.139 42.958 143.039 42.7257 142.85 42.5337C142.661 42.3415 142.411 42.2461 142.101 42.2461C141.812 42.2461 141.568 42.3346 141.371 42.5106C141.174 42.6864 141.046 42.9267 140.988 43.2314Z" fill="#2A3362"/>
</g>
<defs>
<clipPath id="clip0_1295_28257">
<rect width="144" height="48" fill="white"/>
</clipPath>
</defs>
</svg>
