<svg width="21" height="20" viewBox="0 0 21 20" fill="none" xmlns="http://www.w3.org/2000/svg">
<g id="icon / message">
<g id="icon">
<path d="M5.50033 7.08325C5.50033 6.62301 5.87342 6.24992 6.33366 6.24992H10.5003C10.9606 6.24992 11.3337 6.62301 11.3337 7.08325C11.3337 7.54349 10.9606 7.91658 10.5003 7.91658H6.33366C5.87342 7.91658 5.50033 7.54349 5.50033 7.08325Z" fill="#01020D"/>
<path d="M6.33366 9.58325C5.87342 9.58325 5.50033 9.95635 5.50033 10.4166C5.50033 10.8768 5.87342 11.2499 6.33366 11.2499H13.8337C14.2939 11.2499 14.667 10.8768 14.667 10.4166C14.667 9.95635 14.2939 9.58325 13.8337 9.58325H6.33366Z" fill="#01020D"/>
<path fill-rule="evenodd" clip-rule="evenodd" d="M13.3337 16.6249L14.5003 15.7499C14.7888 15.5335 15.1397 15.4166 15.5003 15.4166C17.3413 15.4166 18.8337 13.9242 18.8337 12.0833V5.41659C18.8337 3.57564 17.3413 2.08325 15.5003 2.08325H5.50033C3.65938 2.08325 2.16699 3.57564 2.16699 5.41659V12.0833C2.16699 13.9242 3.65938 15.4166 5.50033 15.4166H7.16699C7.52761 15.4166 7.8785 15.5335 8.16699 15.7499L9.33366 16.6249C10.5188 17.5138 12.1485 17.5138 13.3337 16.6249ZM15.5003 13.7499C14.7791 13.7499 14.0773 13.9838 13.5003 14.4166L12.3337 15.2916C11.7411 15.736 10.9263 15.736 10.3337 15.2916L9.16699 14.4166C8.59001 13.9838 7.88823 13.7499 7.16699 13.7499H5.50033C4.57985 13.7499 3.83366 13.0037 3.83366 12.0833V5.41659C3.83366 4.49611 4.57985 3.74992 5.50033 3.74992H15.5003C16.4208 3.74992 17.167 4.49611 17.167 5.41659V12.0833C17.167 13.0037 16.4208 13.7499 15.5003 13.7499Z" fill="#01020D"/>
</g>
</g>
</svg>
