<svg width="22" height="22" viewBox="0 0 22 22" fill="none" xmlns="http://www.w3.org/2000/svg">
<g id="microphone-2">
<g id="vuesax/linear/microphone-2">
<g id="microphone-2_2">
<path id="Vector" d="M10.9997 14.2083C13.0255 14.2083 14.6663 12.5674 14.6663 10.5416V5.49992C14.6663 3.47409 13.0255 1.83325 10.9997 1.83325C8.97384 1.83325 7.33301 3.47409 7.33301 5.49992V10.5416C7.33301 12.5674 8.97384 14.2083 10.9997 14.2083Z" stroke="#000303" stroke-width="1.5" stroke-linecap="round" stroke-linejoin="round"/>
<path id="Vector_2" d="M3.9873 8.84595V10.4043C3.9873 14.2726 7.13147 17.4168 10.9998 17.4168C14.8681 17.4168 18.0123 14.2726 18.0123 10.4043V8.84595" stroke="#000303" stroke-width="1.5" stroke-linecap="round" stroke-linejoin="round"/>
<path id="Vector_3" d="M9.72559 5.89411C10.5506 5.59161 11.4489 5.59161 12.2739 5.89411" stroke="#000303" stroke-width="1.5" stroke-linecap="round" stroke-linejoin="round"/>
<path id="Vector_4" d="M10.2666 7.83746C10.7524 7.70913 11.2566 7.70913 11.7424 7.83746" stroke="#000303" stroke-width="1.5" stroke-linecap="round" stroke-linejoin="round"/>
<path id="Vector_5" d="M11 17.4167V20.1667" stroke="#000303" stroke-width="1.5" stroke-linecap="round" stroke-linejoin="round"/>
</g>
</g>
</g>
</svg>
