<svg width="844" height="1688" viewBox="0 0 844 1688" fill="none" xmlns="http://www.w3.org/2000/svg">
<g opacity="0.08">
<path d="M260.27 68.7332C-116.976 -54.9667 -471.35 -7.14745 -531.224 175.588C-572.019 300.046 -465.642 454.96 -274.445 580.215C-235.327 312.54 -118.293 119.227 28.4381 112.601C217.798 104.059 385.928 409.696 407.762 798.399C626.621 806.223 795.224 744.43 834.86 623.524C894.777 440.83 637.517 192.433 260.27 68.7332Z" fill="#2A3362"/>
<path d="M408.61 815.01C408.367 809.46 408.05 803.911 407.773 798.402C385.934 409.701 217.85 104.064 28.4486 112.605C-118.283 119.232 -235.316 312.505 -274.434 580.224C-286.529 662.967 -291.159 752.778 -286.968 846.423C-269.086 1243.03 -98.8835 1557.49 93.1899 1548.83C285.267 1540.16 426.494 1211.61 408.61 815.01Z" fill="#FF4500"/>
<path d="M28.3976 112.605C-118.333 119.232 -235.367 312.505 -274.485 580.224C-184.994 638.818 -76.9805 690.95 43.2883 730.384C170.899 772.215 295.836 794.412 407.682 798.402C385.843 409.701 217.799 104.064 28.3976 112.605Z" fill="#009E3A"/>
<path d="M145.656 1567.17C145.907 1565.65 148.097 1565.65 148.347 1567.17L149.123 1571.88L153.833 1572.65C155.356 1572.91 155.356 1575.09 153.833 1575.35L149.123 1576.12L148.347 1580.83C148.097 1582.35 145.907 1582.35 145.656 1580.83L144.881 1576.12L140.171 1575.35C138.648 1575.09 138.648 1572.91 140.171 1572.65L144.881 1571.88L145.656 1567.17Z" fill="#01020D" fill-opacity="0.25"/>
<path d="M620.656 1666.17C620.907 1664.65 623.097 1664.65 623.347 1666.17L624.123 1670.88L628.833 1671.65C630.356 1671.91 630.356 1674.09 628.833 1674.35L624.123 1675.12L623.347 1679.83C623.097 1681.35 620.907 1681.35 620.656 1679.83L619.881 1675.12L615.171 1674.35C613.648 1674.09 613.648 1671.91 615.171 1671.65L619.881 1670.88L620.656 1666.17Z" fill="#01020D" fill-opacity="0.25"/>
</g>
</svg>
