<svg width="21" height="20" viewBox="0 0 21 20" fill="none" xmlns="http://www.w3.org/2000/svg">
<g id="icon / newspaper">
<g id="icon">
<path d="M5.50008 13.3334C5.03984 13.3334 4.66675 13.7065 4.66675 14.1667C4.66675 14.627 5.03984 15.0001 5.50008 15.0001H12.1667C12.627 15.0001 13.0001 14.627 13.0001 14.1667C13.0001 13.7065 12.627 13.3334 12.1667 13.3334H5.50008Z" fill="black"/>
<path d="M4.66675 11.6667C4.66675 11.2065 5.03984 10.8334 5.50008 10.8334H12.1667C12.627 10.8334 13.0001 11.2065 13.0001 11.6667C13.0001 12.127 12.627 12.5001 12.1667 12.5001H5.50008C5.03984 12.5001 4.66675 12.127 4.66675 11.6667Z" fill="black"/>
<path d="M11.3334 8.33342C10.8732 8.33342 10.5001 8.70651 10.5001 9.16675C10.5001 9.62699 10.8732 10.0001 11.3334 10.0001H12.1667C12.627 10.0001 13.0001 9.62699 13.0001 9.16675C13.0001 8.70651 12.627 8.33342 12.1667 8.33342H11.3334Z" fill="black"/>
<path d="M10.5001 6.66675C10.5001 6.20651 10.8732 5.83342 11.3334 5.83342H12.1667C12.627 5.83342 13.0001 6.20651 13.0001 6.66675C13.0001 7.12699 12.627 7.50008 12.1667 7.50008H11.3334C10.8732 7.50008 10.5001 7.12699 10.5001 6.66675Z" fill="black"/>
<path fill-rule="evenodd" clip-rule="evenodd" d="M6.33341 5.00008C5.41294 5.00008 4.66675 5.74627 4.66675 6.66675V8.33342C4.66675 9.25389 5.41294 10.0001 6.33341 10.0001H8.00008C8.92056 10.0001 9.66675 9.25389 9.66675 8.33342V6.66675C9.66675 5.74627 8.92056 5.00008 8.00008 5.00008H6.33341ZM6.33341 6.66675H8.00008V8.33342H6.33341V6.66675Z" fill="black"/>
<path fill-rule="evenodd" clip-rule="evenodd" d="M4.66675 1.66675C3.28604 1.66675 2.16675 2.78604 2.16675 4.16675V15.8334C2.16675 17.2141 3.28604 18.3334 4.66675 18.3334H17.1667C18.5475 18.3334 19.6667 17.2141 19.6667 15.8334V14.1667C19.6667 12.786 18.5475 11.6667 17.1667 11.6667H15.5001V4.16675C15.5001 2.78604 14.3808 1.66675 13.0001 1.66675H4.66675ZM17.1667 16.6667H15.5001V13.3334H17.1667C17.627 13.3334 18.0001 13.7065 18.0001 14.1667V15.8334C18.0001 16.2937 17.627 16.6667 17.1667 16.6667ZM13.8334 16.6667H4.66675C4.20651 16.6667 3.83341 16.2937 3.83341 15.8334V4.16675C3.83341 3.70651 4.20651 3.33341 4.66675 3.33341H13.0001C13.4603 3.33341 13.8334 3.70651 13.8334 4.16675V16.6667Z" fill="black"/>
</g>
</g>
</svg>
