<svg width="451" height="56" viewBox="0 0 451 56" fill="none" xmlns="http://www.w3.org/2000/svg">
<path d="M4.112 23.2996C5.17867 23.2996 6.032 23.609 6.672 24.2276C7.312 24.8463 7.632 25.657 7.632 26.6596C7.632 27.705 7.30133 28.537 6.64 29.1556C5.98933 29.7636 5.10933 30.0676 4 30.0676H1.408V34.4996H0V23.2996H4.112ZM3.872 28.7716C4.59733 28.7716 5.15733 28.585 5.552 28.2116C5.94667 27.8383 6.144 27.3263 6.144 26.6756C6.144 26.025 5.94667 25.5183 5.552 25.1556C5.15733 24.7823 4.63467 24.5956 3.984 24.5956H1.408V28.7716H3.872Z" fill="black"/>
<path d="M12.9404 34.6596C11.7884 34.6596 10.8284 34.265 10.0604 33.4756C9.30304 32.6756 8.92437 31.6836 8.92437 30.4996C8.92437 29.2943 9.30304 28.3023 10.0604 27.5236C10.8177 26.7343 11.7777 26.3396 12.9404 26.3396C14.0924 26.3396 15.0524 26.7343 15.8204 27.5236C16.5884 28.313 16.9724 29.305 16.9724 30.4996C16.9724 31.6943 16.5884 32.6863 15.8204 33.4756C15.063 34.265 14.103 34.6596 12.9404 34.6596ZM11.0524 32.5796C11.543 33.145 12.1724 33.4276 12.9404 33.4276C13.7084 33.4276 14.3377 33.145 14.8284 32.5796C15.3297 32.0036 15.5804 31.3103 15.5804 30.4996C15.5804 29.6783 15.3297 28.985 14.8284 28.4196C14.3377 27.8543 13.7084 27.5716 12.9404 27.5716C12.1617 27.5716 11.5324 27.8543 11.0524 28.4196C10.5724 28.985 10.3324 29.6783 10.3324 30.4996C10.3324 31.3103 10.5724 32.0036 11.0524 32.5796Z" fill="black"/>
<path d="M19.9131 34.4996L17.8971 26.4996H19.2251L20.7131 32.8836H20.8251L22.5531 27.0756H24.1051L25.8171 32.8836H25.9291L27.4331 26.4996H28.7611L26.7131 34.4996H25.0811L23.3851 28.6276H23.2731L21.5291 34.4996H19.9131Z" fill="black"/>
<path d="M37.0508 30.3396C37.0508 30.4143 37.0401 30.5796 37.0187 30.8356H31.0508C31.0934 31.6356 31.3334 32.281 31.7708 32.7716C32.2188 33.2623 32.8107 33.5076 33.5467 33.5076C34.0694 33.5076 34.5121 33.3956 34.8748 33.1716C35.2481 32.937 35.5041 32.601 35.6427 32.1636H37.0028C36.8321 32.953 36.4374 33.5663 35.8187 34.0036C35.2001 34.441 34.4427 34.6596 33.5467 34.6596C32.4054 34.6596 31.4721 34.2863 30.7467 33.5396C30.0214 32.793 29.6588 31.8063 29.6588 30.5796C29.6588 29.3103 30.0214 28.2863 30.7467 27.5076C31.4721 26.729 32.3841 26.3396 33.4827 26.3396C34.5068 26.3396 35.3547 26.6863 36.0267 27.3796C36.7094 28.073 37.0508 29.0596 37.0508 30.3396ZM35.0667 28.1316C34.6614 27.705 34.1334 27.4916 33.4827 27.4916C32.8321 27.4916 32.2827 27.7156 31.8347 28.1636C31.3974 28.601 31.1414 29.1503 31.0667 29.8116H35.6908C35.6801 29.1183 35.4721 28.5583 35.0667 28.1316Z" fill="black"/>
<path d="M38.9624 34.4996V26.4996H40.2264L40.3544 27.6036H40.4664C40.701 27.1983 40.989 26.889 41.3304 26.6756C41.6717 26.4516 42.1464 26.3396 42.7544 26.3396H43.2184V27.7476C43.0584 27.7263 42.8184 27.7156 42.4984 27.7156C41.8157 27.7156 41.2877 27.9556 40.9144 28.4356C40.541 28.905 40.3544 29.529 40.3544 30.3076V34.4996H38.9624Z" fill="black"/>
<path d="M51.3476 30.3396C51.3476 30.4143 51.337 30.5796 51.3156 30.8356H45.3476C45.3903 31.6356 45.6303 32.281 46.0676 32.7716C46.5156 33.2623 47.1076 33.5076 47.8436 33.5076C48.3663 33.5076 48.809 33.3956 49.1716 33.1716C49.545 32.937 49.801 32.601 49.9396 32.1636H51.2996C51.129 32.953 50.7343 33.5663 50.1156 34.0036C49.497 34.441 48.7396 34.6596 47.8436 34.6596C46.7023 34.6596 45.769 34.2863 45.0436 33.5396C44.3183 32.793 43.9556 31.8063 43.9556 30.5796C43.9556 29.3103 44.3183 28.2863 45.0436 27.5076C45.769 26.729 46.681 26.3396 47.7796 26.3396C48.8036 26.3396 49.6516 26.6863 50.3236 27.3796C51.0063 28.073 51.3476 29.0596 51.3476 30.3396ZM49.3636 28.1316C48.9583 27.705 48.4303 27.4916 47.7796 27.4916C47.129 27.4916 46.5796 27.7156 46.1316 28.1636C45.6943 28.601 45.4383 29.1503 45.3636 29.8116H49.9876C49.977 29.1183 49.769 28.5583 49.3636 28.1316Z" fill="black"/>
<path d="M59.1179 23.1396H60.5099V34.4996H59.3579L59.2299 33.3636H59.1339C58.5152 34.2276 57.6565 34.6596 56.5579 34.6596C55.4805 34.6596 54.5952 34.2756 53.9019 33.5076C53.2192 32.729 52.8779 31.721 52.8779 30.4836C52.8779 29.2356 53.2192 28.233 53.9019 27.4756C54.5952 26.7183 55.4805 26.3396 56.5579 26.3396C57.6885 26.3396 58.5419 26.745 59.1179 27.5556V23.1396ZM56.7339 33.4276C57.4485 33.4276 58.0245 33.161 58.4619 32.6276C58.8992 32.0836 59.1179 31.369 59.1179 30.4836C59.1179 29.6196 58.8992 28.921 58.4619 28.3876C58.0245 27.8436 57.4485 27.5716 56.7339 27.5716C56.0085 27.5716 55.4165 27.8436 54.9579 28.3876C54.4992 28.921 54.2699 29.6196 54.2699 30.4836C54.2699 31.3583 54.4992 32.0676 54.9579 32.6116C55.4165 33.1556 56.0085 33.4276 56.7339 33.4276Z" fill="black"/>
<path d="M71.0081 26.3396C72.0855 26.3396 72.9655 26.7183 73.6481 27.4756C74.3415 28.233 74.6881 29.2356 74.6881 30.4836C74.6881 31.721 74.3415 32.729 73.6481 33.5076C72.9655 34.2756 72.0855 34.6596 71.0081 34.6596C69.9095 34.6596 69.0508 34.2276 68.4321 33.3636H68.3361L68.2081 34.4996H67.0561V23.1396H68.4481V27.5556C69.0241 26.745 69.8775 26.3396 71.0081 26.3396ZM70.8321 33.4276C71.5575 33.4276 72.1495 33.1556 72.6081 32.6116C73.0668 32.0676 73.2961 31.3583 73.2961 30.4836C73.2961 29.6196 73.0668 28.921 72.6081 28.3876C72.1495 27.8436 71.5575 27.5716 70.8321 27.5716C70.1175 27.5716 69.5415 27.8436 69.1041 28.3876C68.6668 28.921 68.4481 29.6196 68.4481 30.4836C68.4481 31.369 68.6668 32.0836 69.1041 32.6276C69.5415 33.161 70.1175 33.4276 70.8321 33.4276Z" fill="black"/>
<path d="M77.0775 37.8596C76.7468 37.8596 76.3682 37.801 75.9415 37.6836V36.6116C76.2828 36.6863 76.5708 36.7236 76.8055 36.7236C77.6268 36.7236 78.1975 36.329 78.5175 35.5396L78.9335 34.4996H78.4535L75.3815 26.4996H76.8375L79.3015 33.0436H79.4135L81.7495 26.4996H83.2055L79.8455 35.7476C79.7815 35.9396 79.7175 36.0943 79.6535 36.2116C79.6002 36.3396 79.4988 36.5156 79.3495 36.7396C79.2002 36.9743 79.0348 37.161 78.8535 37.2996C78.6722 37.449 78.4215 37.577 78.1015 37.6836C77.7922 37.801 77.4508 37.8596 77.0775 37.8596Z" fill="black"/>
<path d="M86.1848 28.0516C86.0034 28.233 85.7794 28.3236 85.5127 28.3236C85.2461 28.3236 85.0168 28.233 84.8248 28.0516C84.6434 27.8596 84.5527 27.6356 84.5527 27.3796C84.5527 27.113 84.6434 26.889 84.8248 26.7076C85.0168 26.5156 85.2461 26.4196 85.5127 26.4196C85.7794 26.4196 86.0034 26.5156 86.1848 26.7076C86.3661 26.889 86.4567 27.113 86.4567 27.3796C86.4567 27.6356 86.3661 27.8596 86.1848 28.0516ZM86.1848 34.3076C86.0034 34.489 85.7794 34.5796 85.5127 34.5796C85.2461 34.5796 85.0168 34.489 84.8248 34.3076C84.6434 34.1156 84.5527 33.8916 84.5527 33.6356C84.5527 33.369 84.6434 33.145 84.8248 32.9636C85.0168 32.7716 85.2461 32.6756 85.5127 32.6756C85.7794 32.6756 86.0034 32.7716 86.1848 32.9636C86.3661 33.145 86.4567 33.369 86.4567 33.6356C86.4567 33.8916 86.3661 34.1156 86.1848 34.3076Z" fill="black"/>
<path d="M209.23 13.3521H215.352V44.8542H209.23V13.3521Z" fill="#2A3362"/>
<path d="M239.047 33.6769C239.047 38.0255 236.25 39.9789 232.525 39.9789C228.802 39.9789 226.312 38.0255 226.312 33.8982V22.6712H220.189V35.3196C220.189 41.616 224.138 45.2994 230.706 45.2994C234.833 45.2994 237.139 43.7792 238.687 42.061H239.043L239.576 44.8581H245.207V22.6712H239.047V33.6769Z" fill="#2A3362"/>
<path d="M299.105 40.464C294.624 40.464 292.096 38.4234 291.699 35.4524H311.131C311.219 34.8348 311.263 34.2111 311.263 33.5856C311.221 25.6047 305.182 22.2259 298.721 22.2259C291.224 22.2259 285.586 26.7116 285.586 33.944C285.586 40.818 291.002 45.2998 299.121 45.2998C305.913 45.2998 310.434 42.2853 311.37 37.6675H305.319C304.563 39.4881 302.389 40.464 299.105 40.464ZM298.725 27.0656C302.632 27.0656 304.893 28.7937 305.249 31.246H291.831C292.405 28.8964 294.669 27.0656 298.705 27.0656H298.725Z" fill="#2A3362"/>
<path d="M321.665 25.8563H321.285L320.706 22.6593H315.142V44.8584H321.264V35.32C321.264 31.0128 323.746 28.6195 328.364 28.6195C329.204 28.6079 330.041 28.6807 330.864 28.8395V22.6715H330.009C325.928 22.6715 323.395 23.5146 321.665 25.8563Z" fill="#2A3362"/>
<path d="M360.925 37.9343H360.574L355.336 24.0472H349.035L343.889 37.8928H343.491L338.61 22.6712H332.529L340.027 44.8581H346.686L352.01 30.7013H352.365L357.6 44.8581H364.3L371.8 22.6712H365.72L360.925 37.9343Z" fill="#2A3362"/>
<path d="M396.168 38.3974V30.971C396.168 24.9358 391.064 22.2299 384.717 22.2299C377.976 22.2299 373.76 25.4265 373.182 30.2109H379.306C379.75 28.1248 381.525 26.9724 384.717 26.9724C387.908 26.9724 390.038 28.1699 390.038 30.6107V31.1768L380.054 31.9366C375.441 32.293 372.073 34.3356 372.073 38.6822C372.073 43.1636 375.935 45.2915 381.612 45.2915C386.196 45.2915 388.989 44.015 390.699 42.087H391.002C391.964 44.2547 393.914 44.8502 396.033 44.8502H398.607V40.3313H398.029C396.742 40.3313 396.168 39.7118 396.168 38.3974ZM390.042 36.0455C390.042 39.553 385.862 40.7034 382.277 40.7034C379.836 40.7034 378.241 40.0836 378.241 38.3974C378.241 36.8771 379.617 36.1367 381.661 35.9569L390.046 35.3371L390.042 36.0455Z" fill="#2A3362"/>
<path d="M418.803 22.6712L411.659 38.7359H411.259L404.027 22.6712H397.414L407.752 44.8581H415.075L425.366 22.6712H418.803Z" fill="#2A3362"/>
<path d="M444.939 37.6672C444.179 39.4878 442.01 40.464 438.725 40.464C434.244 40.464 431.717 38.4234 431.318 35.4524H450.75C450.84 34.8348 450.883 34.2111 450.883 33.5856C450.841 25.6047 444.802 22.2259 438.341 22.2259C430.844 22.2259 425.21 26.7116 425.21 33.944C425.21 40.818 430.622 45.2998 438.739 45.2998C445.533 45.2998 450.054 42.2853 450.989 37.6675L444.939 37.6672ZM438.325 27.0656C442.233 27.0656 444.493 28.7937 444.852 31.246H431.436C432.017 28.8964 434.274 27.0656 438.312 27.0656H438.325Z" fill="#2A3362"/>
<path d="M199.279 21.036C199.279 19.0846 200.655 18.2435 202.431 18.2435C203.256 18.2511 204.078 18.3703 204.871 18.5975L205.893 14.1576C204.41 13.633 202.85 13.3643 201.279 13.36C196.752 13.36 193.116 15.7589 193.116 20.7251V22.6709H187.833V27.5323H193.116V44.8574H199.279V27.528H206.181V22.6705H199.279L199.279 21.036Z" fill="#2A3362"/>
<path d="M258.718 16.4163H253.017L252.699 22.6712H247.879V27.5326H252.584V38.4685C252.584 42.1934 254.485 45.3093 260.185 45.3093C261.663 45.3093 263.137 45.1466 264.579 44.8245V40.1531C263.748 40.3392 262.899 40.4439 262.047 40.4637C258.987 40.4637 258.722 38.7356 258.722 37.4014V27.5204H264.803V22.6712H258.718V16.4163Z" fill="#2A3362"/>
<path d="M277.944 16.4163H272.263L271.945 22.6712H267.112V27.5326H271.818V38.4685C271.818 42.1934 273.718 45.3093 279.419 45.3093C280.893 45.3054 282.364 45.139 283.801 44.8123V40.1531C282.969 40.3392 282.123 40.4439 281.269 40.4637C278.211 40.4637 277.944 38.7356 277.944 37.4014V27.5204H284.044V22.6712H277.944V16.4163Z" fill="#2A3362"/>
<path d="M102.608 12.5132C102.608 8.95236 103.649 5.91219 105.834 3.72666L109.635 7.52696C105.404 11.7416 109.1 24.8449 121.143 36.9012C133.186 48.9555 146.297 52.6451 150.525 48.4233L154.325 52.2236C147.195 59.3532 130.954 54.2941 117.362 40.6978C107.933 31.2641 102.608 20.5614 102.608 12.5132Z" fill="#009A46"/>
<path d="M126.574 55.4995C123.013 55.4995 119.973 54.4582 117.784 52.2733L121.584 48.4727C125.806 52.6948 138.909 49.0013 150.964 36.9489C163.019 24.8979 166.706 11.7946 162.484 7.57274L166.284 3.77244C173.418 10.9021 168.355 27.141 154.756 40.735C145.325 50.1787 134.623 55.4995 126.574 55.4995Z" fill="#FF5805"/>
<path d="M156.015 35.2959C153.708 28.6531 148.997 21.555 142.744 15.3064C129.15 1.70778 112.911 -3.35391 105.781 3.78034C105.276 4.28918 105.713 5.54793 106.763 6.59459C107.812 7.64388 109.069 8.07729 109.575 7.57274C113.801 3.35055 126.905 7.04414 138.955 19.0985C144.656 24.7991 148.906 31.165 150.952 37.0556C152.747 42.2217 152.571 46.3866 150.481 48.4766C149.973 48.9812 150.414 50.2442 151.459 51.2889C152.504 52.3342 153.765 52.7736 154.276 52.2647C157.928 48.6126 158.547 42.5781 156.015 35.2959Z" fill="#F5AFCB"/>
<path d="M166.277 3.78034C162.617 0.120343 156.59 -0.499483 149.3 2.03416C142.661 4.33825 135.559 9.05512 129.31 15.3024C115.716 28.8968 110.655 45.1354 117.784 52.2693C118.293 52.7739 119.552 52.3388 120.599 51.2932C121.648 50.2485 122.085 48.9858 121.577 48.4769C117.343 44.2547 121.048 31.1511 133.103 19.0945C138.804 13.3939 145.169 9.14602 151.06 7.0975C156.226 5.30817 160.39 5.47844 162.485 7.56879C162.989 8.07334 164.252 7.63828 165.298 6.58932C166.343 5.5397 166.782 4.2849 166.277 3.78034Z" fill="#FF9B00"/>
</svg>
