<svg width="22" height="22" viewBox="0 0 22 22" fill="none" xmlns="http://www.w3.org/2000/svg">
<path d="M21.0623 7.79445L19.1661 5.89824C19.0131 5.74731 18.8092 5.65918 18.5944 5.65123C18.3796 5.64327 18.1697 5.71607 18.006 5.85527C17.7532 6.07043 17.4288 6.18277 17.0971 6.17004C16.7654 6.1573 16.4506 6.02042 16.215 5.78652C15.9812 5.551 15.8444 5.23627 15.8317 4.90466C15.819 4.57306 15.9312 4.24876 16.1463 3.99601C16.2855 3.83228 16.3583 3.62233 16.3503 3.40758C16.3424 3.19282 16.2542 2.98884 16.1033 2.83585L14.2054 0.937493C14.045 0.777409 13.8276 0.6875 13.601 0.6875C13.3744 0.6875 13.1571 0.777409 12.9967 0.937493L9.97382 3.95991C9.78719 4.14721 9.64645 4.37517 9.56261 4.62593C9.54628 4.67414 9.51907 4.71794 9.48308 4.75394C9.44708 4.78993 9.40328 4.81714 9.35507 4.83347C9.10421 4.9173 8.87622 5.05821 8.68905 5.24511L0.937493 12.9967C0.777409 13.1571 0.6875 13.3744 0.6875 13.601C0.6875 13.8276 0.777409 14.045 0.937493 14.2054L2.83585 16.1016C2.98884 16.2525 3.19282 16.3406 3.40758 16.3486C3.62233 16.3566 3.83228 16.2838 3.99601 16.1446C4.24818 15.9277 4.57301 15.8141 4.9054 15.8266C5.2378 15.839 5.55319 15.9767 5.78839 16.2119C6.02359 16.4471 6.16122 16.7625 6.17371 17.0949C6.18619 17.4272 6.0726 17.7521 5.85569 18.0043C5.7165 18.168 5.6437 18.3779 5.65166 18.5927C5.65961 18.8074 5.74774 19.0114 5.89866 19.1644L7.79487 21.0606C7.95527 21.2207 8.17262 21.3106 8.39923 21.3106C8.62584 21.3106 8.84319 21.2207 9.00358 21.0606L16.7551 13.3091C16.9419 13.122 17.0828 12.8942 17.1668 12.6435C17.183 12.5951 17.2103 12.5512 17.2464 12.5151C17.2824 12.479 17.3264 12.4518 17.3748 12.4355C17.6254 12.3516 17.8532 12.2109 18.0403 12.0243L21.0628 9.00144C21.2223 8.84106 21.3118 8.62404 21.3117 8.39785C21.3116 8.17166 21.2219 7.95471 21.0623 7.79445ZM11.2496 6.52042C11.1857 6.58428 11.1099 6.63493 11.0265 6.66949C10.9431 6.70405 10.8537 6.72184 10.7634 6.72184C10.6731 6.72184 10.5837 6.70405 10.5002 6.66949C10.4168 6.63493 10.341 6.58428 10.2772 6.52042L9.78261 6.02585C9.65682 5.89627 9.58706 5.7224 9.58842 5.54181C9.58978 5.36122 9.66214 5.18841 9.78987 5.06074C9.9176 4.93307 10.0904 4.86078 10.271 4.8595C10.4516 4.85822 10.6255 4.92805 10.755 5.0539L11.2496 5.54804C11.3134 5.61188 11.3641 5.68768 11.3986 5.7711C11.4332 5.85452 11.451 5.94393 11.451 6.03423C11.451 6.12453 11.4332 6.21394 11.3986 6.29736C11.3641 6.38078 11.3134 6.45658 11.2496 6.52042ZM13.1402 8.41105C13.0113 8.53988 12.8365 8.61225 12.6542 8.61225C12.472 8.61225 12.2972 8.53988 12.1682 8.41105L11.6956 7.93839C11.6317 7.87454 11.5811 7.79875 11.5465 7.71532C11.512 7.6319 11.4942 7.54249 11.4942 7.4522C11.4942 7.36191 11.512 7.2725 11.5465 7.18908C11.5811 7.10565 11.6317 7.02986 11.6956 6.96601C11.8245 6.83706 11.9994 6.76462 12.1818 6.76462C12.2721 6.76462 12.3615 6.78241 12.4449 6.81696C12.5283 6.85151 12.6041 6.90216 12.668 6.96601L13.1406 7.43866C13.2047 7.5025 13.2555 7.57836 13.2903 7.66188C13.325 7.74541 13.3429 7.83496 13.3429 7.92541C13.3429 8.01586 13.3251 8.10543 13.2905 8.18899C13.2559 8.27254 13.2051 8.34844 13.141 8.41234L13.1402 8.41105ZM15.0308 10.3017C14.967 10.3655 14.8912 10.4162 14.8077 10.4507C14.7243 10.4853 14.6349 10.5031 14.5446 10.5031C14.4543 10.5031 14.3649 10.4853 14.2815 10.4507C14.1981 10.4162 14.1223 10.3655 14.0584 10.3017L13.5858 9.82902C13.46 9.69944 13.3902 9.52556 13.3916 9.34497C13.3929 9.16438 13.4653 8.99158 13.593 8.8639C13.7208 8.73623 13.8936 8.66394 14.0742 8.66266C14.2548 8.66138 14.4286 8.73121 14.5582 8.85706L15.0308 9.32972C15.0951 9.39345 15.1461 9.46924 15.181 9.55275C15.2159 9.63625 15.234 9.72582 15.2342 9.81632C15.2344 9.90683 15.2167 9.99648 15.1822 10.0801C15.1476 10.1638 15.0969 10.2398 15.033 10.3038L15.0308 10.3017ZM16.9399 12.2155C16.8761 12.2794 16.8003 12.33 16.7169 12.3646C16.6334 12.3991 16.544 12.4169 16.4537 12.4169C16.3634 12.4169 16.274 12.3991 16.1906 12.3646C16.1072 12.33 16.0314 12.2794 15.9675 12.2155L15.476 11.7214C15.4108 11.6577 15.3589 11.5817 15.3233 11.4978C15.2877 11.414 15.2692 11.3238 15.2688 11.2327C15.2683 11.1416 15.286 11.0513 15.3208 10.9671C15.3555 10.8829 15.4067 10.8064 15.4713 10.7421C15.5359 10.6778 15.6126 10.6271 15.697 10.5927C15.7814 10.5583 15.8718 10.5411 15.9629 10.542C16.054 10.5428 16.144 10.5618 16.2277 10.5978C16.3114 10.6338 16.3872 10.686 16.4505 10.7516L16.9425 11.2453C17.0063 11.3091 17.0569 11.385 17.0915 11.4684C17.126 11.5518 17.1437 11.6412 17.1437 11.7315C17.1437 11.8218 17.1258 11.9112 17.0912 11.9947C17.0566 12.0781 17.0059 12.1538 16.9421 12.2176L16.9399 12.2155Z" fill="#0A0E27"/>
</svg>
