<svg width="21" height="20" viewBox="0 0 21 20" fill="none" xmlns="http://www.w3.org/2000/svg">
<g id="icon / search">
<path id="icon" fill-rule="evenodd" clip-rule="evenodd" d="M9.7666 1.66675C5.62447 1.66675 2.2666 5.02461 2.2666 9.16675C2.2666 13.3089 5.62447 16.6667 9.7666 16.6667C11.5374 16.6667 13.1649 16.053 14.448 15.0267L17.5107 18.0893C17.8361 18.4148 18.3638 18.4148 18.6892 18.0893C19.0146 17.7639 19.0146 17.2363 18.6892 16.9108L15.6265 13.8482C16.6529 12.5651 17.2666 10.9376 17.2666 9.16675C17.2666 5.02461 13.9087 1.66675 9.7666 1.66675ZM3.93327 9.16675C3.93327 5.94509 6.54494 3.33341 9.7666 3.33341C12.9883 3.33341 15.5999 5.94509 15.5999 9.16675C15.5999 12.3884 12.9883 15.0001 9.7666 15.0001C6.54494 15.0001 3.93327 12.3884 3.93327 9.16675Z" fill="white"/>
</g>
</svg>
