<svg width="35" height="35" viewBox="0 0 35 35" fill="none" xmlns="http://www.w3.org/2000/svg">
<rect width="35" height="35" rx="17.5" fill="#2A3362"/>
<path d="M18 27.75C12.07 27.75 7.25 22.93 7.25 17C7.25 11.07 12.07 6.25 18 6.25C23.93 6.25 28.75 11.07 28.75 17C28.75 22.93 23.93 27.75 18 27.75ZM18 7.75C12.9 7.75 8.75 11.9 8.75 17C8.75 22.1 12.9 26.25 18 26.25C23.1 26.25 27.25 22.1 27.25 17C27.25 11.9 23.1 7.75 18 7.75Z" fill="white"/>
<path d="M18 21.25C17.59 21.25 17.25 20.91 17.25 20.5V14.5C17.25 14.09 17.59 13.75 18 13.75C18.41 13.75 18.75 14.09 18.75 14.5V20.5C18.75 20.91 18.41 21.25 18 21.25Z" fill="white"/>
<path d="M20.9999 17.2504C20.8099 17.2504 20.6199 17.1804 20.4699 17.0304L17.9999 14.5604L15.5299 17.0304C15.2399 17.3204 14.7599 17.3204 14.4699 17.0304C14.1799 16.7404 14.1799 16.2604 14.4699 15.9704L17.4699 12.9704C17.7599 12.6804 18.2399 12.6804 18.5299 12.9704L21.5299 15.9704C21.8199 16.2604 21.8199 16.7404 21.5299 17.0304C21.3799 17.1804 21.1899 17.2504 20.9999 17.2504Z" fill="white"/>
</svg>
