<svg width="35" height="35" viewBox="0 0 35 35" fill="none" xmlns="http://www.w3.org/2000/svg">
<rect width="35" height="35" rx="17.5" fill="#EFEBEB"/>
<path d="M14.9999 22.7505C14.5899 22.7505 14.2499 22.4105 14.2499 22.0005V17.8105L13.5299 18.5305C13.2399 18.8205 12.7599 18.8205 12.4699 18.5305C12.1799 18.2405 12.1799 17.7605 12.4699 17.4705L14.4699 15.4705C14.6799 15.2605 15.0099 15.1905 15.2899 15.3105C15.5699 15.4205 15.7499 15.7005 15.7499 16.0005V22.0005C15.7499 22.4105 15.4099 22.7505 14.9999 22.7505Z" fill="#292D32"/>
<path d="M16.9999 18.7504C16.8099 18.7504 16.6199 18.6804 16.4699 18.5304L14.4699 16.5304C14.1799 16.2404 14.1799 15.7604 14.4699 15.4704C14.7599 15.1804 15.2399 15.1804 15.5299 15.4704L17.5299 17.4704C17.8199 17.7604 17.8199 18.2404 17.5299 18.5304C17.3799 18.6804 17.1899 18.7504 16.9999 18.7504Z" fill="#292D32"/>
<path d="M21 27.75H15C9.57 27.75 7.25 25.43 7.25 20V14C7.25 8.57 9.57 6.25 15 6.25H20C20.41 6.25 20.75 6.59 20.75 7C20.75 7.41 20.41 7.75 20 7.75H15C10.39 7.75 8.75 9.39 8.75 14V20C8.75 24.61 10.39 26.25 15 26.25H21C25.61 26.25 27.25 24.61 27.25 20V15C27.25 14.59 27.59 14.25 28 14.25C28.41 14.25 28.75 14.59 28.75 15V20C28.75 25.43 26.43 27.75 21 27.75Z" fill="#292D32"/>
<path d="M28 15.7505H24C20.58 15.7505 19.25 14.4205 19.25 11.0005V7.00048C19.25 6.70048 19.43 6.42048 19.71 6.31048C19.99 6.19048 20.31 6.26048 20.53 6.47048L28.53 14.4705C28.74 14.6805 28.81 15.0105 28.69 15.2905C28.57 15.5705 28.3 15.7505 28 15.7505ZM20.75 8.81048V11.0005C20.75 13.5805 21.42 14.2505 24 14.2505H26.19L20.75 8.81048Z" fill="#292D32"/>
</svg>
