<svg width="20" height="20" viewBox="0 0 20 20" fill="none" xmlns="http://www.w3.org/2000/svg">
<g id="icon / sign-out">
<g id="icon">
<path d="M6.25033 3.33341C6.71056 3.33342 7.08366 2.96032 7.08366 2.50008C7.08366 2.03984 6.71056 1.66675 6.25033 1.66675H5.00033C3.15938 1.66675 1.66699 3.15913 1.66699 5.00008V15.0001C1.66699 16.841 3.15938 18.3334 5.00033 18.3334H6.25033C6.71056 18.3334 7.08366 17.9603 7.08366 17.5001C7.08366 17.0398 6.71056 16.6667 6.25033 16.6667H5.00033C4.07985 16.6667 3.33366 15.9206 3.33366 15.0001L3.33366 5.00008C3.33366 4.07961 4.07985 3.33341 5.00033 3.33341H6.25033Z" fill="#01020D"/>
<path d="M18.9229 10.5893C19.2484 10.2639 19.2484 9.73626 18.9229 9.41083L15.5896 6.07749C15.2641 5.75206 14.7365 5.75206 14.4111 6.07749C14.0856 6.40293 14.0856 6.93057 14.4111 7.256L16.3218 9.16675L6.66699 9.16675C6.20675 9.16675 5.83366 9.53984 5.83366 10.0001C5.83366 10.4603 6.20675 10.8334 6.66699 10.8334L16.3218 10.8334L14.4111 12.7442C14.0856 13.0696 14.0856 13.5972 14.4111 13.9227C14.7365 14.2481 15.2641 14.2481 15.5896 13.9227L18.9229 10.5893Z" fill="#01020D"/>
</g>
</g>
</svg>
