<svg width="83" height="222" viewBox="0 0 83 222" fill="none" xmlns="http://www.w3.org/2000/svg">
<g id="Group 1000007027" opacity="0.25">
<path id="Vector" d="M114.675 9.85065C60.6092 -7.87767 9.82134 -1.02435 1.24035 25.1648C-4.60616 43.0017 10.6394 65.2036 38.0413 83.1548C43.6475 44.7923 60.4205 17.0872 81.4495 16.1376C108.588 14.9134 132.684 58.7164 135.813 114.424C167.179 115.546 191.343 106.69 197.024 89.3617C205.611 63.1785 168.741 27.5789 114.675 9.85065Z" fill="#2A3362"/>
<path id="Vector_2" d="M135.957 116.807C135.923 116.011 135.877 115.216 135.837 114.426C132.708 58.7189 108.618 14.9159 81.4738 16.14C60.4447 17.0897 43.6718 44.7891 38.0656 83.1578C36.3322 95.0163 35.6686 107.888 36.2693 121.309C38.8321 178.149 63.225 223.216 90.7524 221.975C118.28 220.734 138.52 173.647 135.957 116.807Z" fill="#FF4500"/>
<path id="Vector_3" d="M81.4677 16.14C60.4387 17.0897 43.6657 44.7891 38.0595 83.1578C50.8851 91.5553 66.3653 99.0267 83.6018 104.678C101.891 110.673 119.796 113.855 135.826 114.426C132.696 58.7189 108.612 14.9159 81.4677 16.14Z" fill="#009E3A"/>
</g>
</svg>
