<svg width="228" height="229" viewBox="0 0 228 229" fill="none" xmlns="http://www.w3.org/2000/svg">
<g id="spark, sparks, sparkle, stars, 30">
<path id="Vector" d="M151.745 190.13C149.167 184.977 146.048 179.824 141.733 175.501C139.572 173.371 137.172 171.5 134.582 169.924C132.034 168.391 129.355 167.089 126.577 166.032C120.738 163.843 114.697 162.655 108.777 161.733C107.308 161.492 105.84 161.274 104.377 161.069L99.9963 160.479L99.3297 165.856C106.221 166.718 113.302 167.393 120.485 166.801C127.637 166.238 134.925 164.35 141.308 160.52C142.913 159.559 144.443 158.477 145.885 157.284C147.355 156.088 148.711 154.759 149.938 153.314C150.261 152.962 150.541 152.579 150.833 152.205C151.117 151.825 151.426 151.46 151.688 151.067C152.218 150.283 152.764 149.505 153.224 148.684C154.178 147.074 155.013 145.396 155.722 143.663C156.423 141.961 157.029 140.221 157.538 138.452C158.025 136.7 158.475 134.941 158.828 133.187C159.571 129.674 160.071 126.184 160.564 122.743L154.07 122.404L154.136 125.47C154.198 128.802 154.376 132.165 154.648 135.553C154.897 139.021 155.404 142.466 156.165 145.858C156.961 149.434 158.316 152.861 160.181 156.01C161.181 157.637 162.367 159.141 163.715 160.492C165.07 161.838 166.586 163.009 168.229 163.979C171.438 165.895 174.796 167.07 178.026 168.074C181.276 169.088 184.575 169.933 187.912 170.604C191.243 171.293 194.611 171.785 198 172.077C199.693 172.218 201.389 172.328 203.086 172.381L204.358 172.42C204.783 172.43 205.207 172.419 205.631 172.455C206.479 172.504 207.328 172.515 208.177 172.546L207.904 166.764C201.71 167.25 195.41 167.77 189.079 168.969C188.289 169.133 187.496 169.282 186.708 169.459L184.348 170.052L181.997 170.729L179.661 171.499C176.524 172.591 173.5 173.985 170.63 175.661C165.204 178.902 160.589 183.347 157.139 188.657C155.764 190.709 154.701 192.955 153.981 195.32C153.735 196.184 153.558 197.066 153.451 197.958C153.408 198.356 153.38 198.73 153.367 199.082L153.359 199.342L153.385 199.552C153.405 199.7 153.425 199.842 153.443 199.979C153.691 201.68 153.986 202.625 155.268 201.314C155.446 201.125 155.612 200.924 155.766 200.714C155.851 200.604 155.947 200.449 156.028 200.35C156.104 200.258 156.184 200.161 156.268 200.061C156.599 199.66 156.922 199.176 157.305 198.642C157.697 198.112 158.069 197.496 158.53 196.849C158.748 196.52 158.976 196.177 159.213 195.82C159.461 195.469 159.712 195.102 159.967 194.718C161.323 192.733 162.806 190.839 164.408 189.048C166.019 187.219 167.767 185.518 169.638 183.959C172.218 181.834 175.057 180.048 178.086 178.644C181.18 177.225 184.398 176.096 187.699 175.271C194.351 173.501 201.348 172.701 208.401 171.949L208.405 171.949C208.989 171.886 209.528 171.602 209.91 171.154C210.292 170.706 210.49 170.127 210.461 169.538C210.433 168.948 210.181 168.392 209.758 167.983C209.334 167.574 208.771 167.343 208.184 167.337C207.04 167.326 205.893 167.364 204.75 167.284C203.607 167.211 202.466 167.125 201.327 167.008C199.05 166.786 196.786 166.456 194.534 166.079C190.032 165.334 185.594 164.241 181.26 162.811C178.296 161.896 175.422 160.708 172.676 159.261C171.435 158.581 170.264 157.779 169.18 156.867C168.161 155.977 167.23 154.991 166.399 153.923C165.652 152.92 164.991 151.856 164.423 150.741C163.851 149.574 163.359 148.371 162.949 147.137C162.129 144.557 161.551 141.905 161.223 139.216C160.509 133.709 160.405 127.986 160.194 122.229L160.192 122.195C160.166 121.474 159.871 120.789 159.365 120.277C158.859 119.764 158.18 119.461 157.462 119.428C156.745 119.395 156.041 119.633 155.49 120.097C154.94 120.561 154.583 121.215 154.49 121.931C153.925 126.302 153.335 130.602 152.376 134.735C151.396 138.851 150.113 142.836 148.098 146.356C147.244 147.857 146.252 149.274 145.135 150.59C143.992 151.897 142.731 153.094 141.368 154.166C138.548 156.307 135.411 157.989 132.072 159.153C128.684 160.344 125.163 161.112 121.588 161.44C117.954 161.782 114.3 161.858 110.656 161.667C107.108 161.515 103.539 161.152 99.9569 160.732L99.9332 160.729C99.2908 160.654 98.6449 160.837 98.1371 161.24C97.6293 161.642 97.3011 162.23 97.2243 162.875C97.1475 163.52 97.3285 164.169 97.7276 164.68C98.1267 165.191 98.7113 165.523 99.3532 165.602C105.106 166.308 110.809 167.053 116.308 168.389C119.044 169.017 121.738 169.818 124.373 170.79C126.961 171.759 129.453 172.971 131.815 174.41C132.386 174.787 132.979 175.138 133.535 175.535L135.177 176.763C136.234 177.626 137.245 178.544 138.206 179.513C140.12 181.519 141.823 183.717 143.289 186.073C144.039 187.259 144.746 188.482 145.42 189.731C145.757 190.355 146.086 190.986 146.407 191.622L146.885 192.581L147.119 193.06L147.322 193.516C147.606 194.11 147.836 194.761 148.085 195.395C148.299 196.054 148.542 196.698 148.726 197.374C149.138 198.705 149.451 200.08 149.748 201.454C150.301 204.118 150.648 206.821 150.787 209.54C150.916 212.174 150.762 214.774 150.017 216.935L152.477 217.556L152.639 217.558V217.555V217.54V217.52V217.479L152.639 217.398C152.638 217.345 152.637 217.291 152.64 217.215L152.654 216.794L152.689 215.939C152.715 215.366 152.74 214.795 152.765 214.228C152.811 213.09 152.855 211.965 152.899 210.854C152.979 208.629 153.027 206.457 153.072 204.334C153.099 203.612 153.071 202.889 152.988 202.171C152.965 201.893 152.882 201.726 152.883 201.469C152.888 201.302 152.841 201.138 152.75 200.998L153.24 200.576C153.016 200.636 152.918 200.718 152.898 200.679C152.878 200.652 152.941 200.506 153.155 200.372C153.18 200.356 153.209 200.346 153.239 200.342C153.27 200.338 153.3 200.342 153.329 200.351C153.358 200.361 153.384 200.377 153.406 200.398C153.428 200.419 153.445 200.444 153.456 200.473C153.467 200.501 153.471 200.532 153.469 200.562C153.467 200.592 153.458 200.622 153.443 200.648C153.428 200.675 153.408 200.698 153.383 200.716C153.358 200.733 153.33 200.745 153.3 200.75L152.562 200.882C152.426 200.906 152.217 201.091 151.985 201.435C151.791 201.674 151.625 201.934 151.49 202.21C151.076 203.061 150.764 203.959 150.561 204.884C150.102 206.888 149.696 208.907 149.31 210.956C149.118 211.98 148.933 213.01 148.755 214.048L148.496 215.619L148.373 216.427L148.314 216.847C148.293 217.005 148.272 217.241 148.255 217.435C148.196 218.13 148.38 218.824 148.776 219.397C149.173 219.969 149.756 220.385 150.425 220.571C151.095 220.757 151.808 220.703 152.441 220.416C153.074 220.13 153.588 219.63 153.893 219.003L153.989 218.803C154.737 217.189 155.248 215.474 155.506 213.712C155.604 212.896 155.731 212.064 155.76 211.264C155.783 210.86 155.815 210.453 155.826 210.053L155.835 208.858C155.804 205.687 155.436 202.529 154.739 199.437C154.403 197.874 153.99 196.329 153.5 194.808L153.117 193.655L152.678 192.496C152.542 192.113 152.357 191.718 152.188 191.329L151.93 190.744L151.68 190.223C151.703 190.193 151.723 190.165 151.745 190.13Z" fill="#FF5805"/>
<path id="Vector_2" d="M138.434 53.1357C135.227 50.4487 131.62 48.2819 127.747 46.7138C127.261 46.5217 126.783 46.3146 126.293 46.1378L124.799 45.666C124.299 45.5162 123.807 45.3402 123.301 45.2145L121.771 44.8688C121.259 44.7634 120.757 44.6203 120.239 44.549L118.684 44.3354L117.907 44.2307C117.651 44.1947 117.392 44.1598 117.107 44.1417C116.548 44.0995 115.971 44.078 115.37 44.0925C114.29 44.107 113.218 44.2834 112.189 44.6159C111.59 44.8225 111.017 45.0989 110.482 45.4395C109.912 45.8187 109.398 46.2784 108.958 46.8043L108.927 46.8417C108.563 47.277 108.339 47.8128 108.284 48.3785C108.228 48.9442 108.345 49.5135 108.618 50.0116C108.89 50.5097 109.307 50.9133 109.812 51.1694C110.317 51.4255 110.888 51.5222 111.449 51.4467C114.047 51.0944 116.624 50.5939 119.166 49.9477C123.417 48.8966 127.504 47.2679 131.316 45.1067C135.213 42.892 138.686 39.9978 141.573 36.5599C144.468 33.0398 146.635 28.9743 147.945 24.6019C149.274 20.1104 149.496 15.3616 148.592 10.7646C148.453 10.0894 148.109 9.47417 147.607 9.00394C147.105 8.53371 146.47 8.23171 145.79 8.13969C145.11 8.04766 144.418 8.17016 143.81 8.49024C143.202 8.81033 142.708 9.31221 142.396 9.92648L142.366 9.98736C141.63 11.4835 141.133 13.0866 140.893 14.738C140.681 16.2562 140.62 17.7919 140.711 19.3222C140.784 20.789 140.957 22.1863 141.149 23.5294C141.345 24.869 141.536 26.1472 141.788 27.5347C142.122 29.5303 142.672 31.4834 143.428 33.3592C143.857 34.3859 144.386 35.3677 145.007 36.2904C145.647 37.2324 146.387 38.102 147.213 38.8839C148.797 40.3358 150.604 41.522 152.563 42.3971C154.373 43.2078 156.256 43.8442 158.185 44.2976C165.664 46.1276 173.487 45.973 180.888 43.8489L180.899 43.8458C181.544 43.6599 182.12 43.2886 182.558 42.7776C182.996 42.2665 183.275 41.6382 183.361 40.9698C183.447 40.3014 183.337 39.6222 183.044 39.0159C182.751 38.4096 182.288 37.9027 181.712 37.5575C179.84 36.4752 177.724 35.8894 175.564 35.8552C173.671 35.8201 171.782 36.0555 169.955 36.5543C169.073 36.7748 168.258 37.0606 167.434 37.3329C166.621 37.637 165.805 37.9336 165.016 38.2947C163.428 38.9836 161.893 39.7915 160.425 40.7117C154.497 44.3687 149.749 49.6698 146.752 55.976C144.88 59.9878 143.851 64.3443 143.73 68.7734C143.67 70.5112 143.908 72.2464 144.432 73.9037C144.544 74.2398 144.659 74.554 144.781 74.8472C144.915 75.1395 145.052 75.4109 145.191 75.6614C145.435 76.12 145.735 76.5466 146.083 76.9316C146.991 77.9445 147.723 77.7521 148.201 76.746C148.669 75.7361 148.916 73.9115 149.164 71.4325L149.291 70.2448L149.451 69.043C149.574 68.2388 149.675 67.4239 149.827 66.6123C150.112 64.9921 150.493 63.3904 150.968 61.8158C151.909 58.7772 153.365 55.9245 155.272 53.3833C159.116 48.2478 164.528 44.5178 170.681 42.7635C172.083 42.3446 173.538 42.1321 175.001 42.1324C176.208 42.1138 177.395 42.4394 178.426 43.0714L179.133 37.6695C176.956 38.2197 174.733 38.5635 172.492 38.6966C168.354 38.9538 164.1 38.3873 160.191 37.6717C157.405 37.1759 154.767 36.3078 152.74 34.8969C151.765 34.2324 150.923 33.3904 150.256 32.4145C149.583 31.3501 149.071 30.1907 148.738 28.9746C148.356 27.5878 148.058 26.1792 147.845 24.7564C147.601 23.2404 147.356 21.7316 147.212 20.3115C146.906 17.4553 147.022 14.8242 148.003 12.8129L142.437 12.1178L142.625 13.115L142.723 13.6131L142.782 14.1187L142.904 15.1304L142.956 16.1522C143.044 18.4752 142.773 20.7978 142.152 23.0375C141.515 25.3177 140.583 27.504 139.378 29.5402C138.172 31.5893 136.718 33.4807 135.05 35.1714C133.356 36.8783 131.481 38.3945 129.46 39.693C123.976 43.2581 117.481 45.3609 110.844 46.234L112.96 50.1785C113.158 49.9432 113.414 49.7653 113.703 49.6633C114.153 49.4991 114.625 49.4055 115.104 49.3858C115.698 49.3546 116.294 49.3704 116.885 49.4329L118.865 49.7165C119.527 49.8137 120.182 49.9481 120.828 50.1191L121.807 50.3447C122.135 50.4134 122.447 50.5424 122.769 50.6378C123.405 50.8514 124.053 51.0335 124.683 51.2699L126.55 52.0443C129.017 53.1665 131.352 54.5619 133.511 56.2043C135.655 57.8858 137.618 59.789 139.367 61.8824C141.519 64.526 143.369 67.4033 144.883 70.4607C144.979 70.6445 145.082 70.8252 145.173 71.0103L145.42 71.5741L145.925 72.6947C146.297 73.4307 146.544 74.197 146.845 74.9481L147.293 76.0739C147.425 76.4424 147.543 76.8076 147.636 77.175C147.861 77.9009 147.864 78.6778 147.646 79.4055C147.578 79.5835 147.495 79.7454 147.437 79.8734C147.436 79.876 147.434 79.8784 147.432 79.8804C147.43 79.8824 147.427 79.884 147.425 79.885L147.384 79.8997C147.234 79.9479 147.073 79.9375 146.931 79.8709C146.8 79.8106 146.684 79.7242 146.588 79.6171C146.416 79.4235 146.307 79.1812 146.277 78.9234C146.261 78.8015 146.27 78.6775 146.305 78.5595C146.325 78.4541 146.353 78.3503 146.389 78.2489C146.453 78.078 146.493 77.9535 146.448 77.8828C146.406 77.8144 146.272 77.794 146.044 77.8949C145.904 77.9687 145.779 78.0669 145.674 78.1849C145.505 78.3267 145.377 78.5113 145.303 78.7194C145.102 79.2186 145.084 79.7732 145.253 80.2844C145.378 80.6624 145.598 81.0017 145.891 81.2691C146.105 81.461 146.351 81.6125 146.618 81.7161C146.934 81.8349 147.272 81.8888 147.609 81.8744C147.866 81.8646 148.114 81.7809 148.324 81.6332L148.852 81.2626C149.131 81.0684 149.384 80.8409 149.607 80.585C149.731 80.4422 149.845 80.2906 149.947 80.1312C150.042 79.9615 150.126 79.7854 150.197 79.6041C150.521 78.7476 150.678 77.8364 150.659 76.9203C150.656 76.2044 150.593 75.49 150.472 74.7846L150.165 72.845L150.081 72.357L149.961 71.8789L149.715 70.9193C149.045 68.3322 148.073 65.8339 146.819 63.4763C144.648 59.5821 141.796 56.1134 138.398 53.2371C138.41 53.2043 138.421 53.1739 138.434 53.1357Z" fill="#FF5805"/>
<path id="Vector_3" d="M69.5158 113.527L68.377 111.484L67.1075 109.518L66.7874 109.029L66.4372 108.559L65.7354 107.622C65.4993 107.312 65.2711 106.995 65.0277 106.691L64.2624 105.803C63.2469 104.616 62.1658 103.487 61.0243 102.421L59.2542 100.889C58.6581 100.387 58.0164 99.9447 57.3988 99.4726C54.8843 97.6621 52.1841 96.127 49.3443 94.8935C46.5081 93.7001 43.5597 92.7958 40.5435 92.194C39.7417 92.057 38.9447 91.8896 38.1378 91.7859L35.7114 91.516L33.2718 91.3969C32.459 91.3548 31.6427 91.4085 30.8291 91.411C27.5684 91.5174 24.3292 91.9839 21.1701 92.802L18.9472 93.4418C18.3085 93.6258 17.7575 94.0353 17.3956 94.595C17.0337 95.1547 16.8853 95.8268 16.9777 96.4876C17.07 97.1485 17.3969 97.7536 17.8983 98.1916C18.3996 98.6296 19.0415 98.8709 19.706 98.8712L19.8346 98.8703C27.0081 98.864 34.4052 98.8794 41.8354 97.4947C45.596 96.8141 49.2661 95.7007 52.7731 94.1764C56.3774 92.6194 59.7059 90.4847 62.6287 87.8557C65.5234 85.1591 67.9441 81.9911 69.7888 78.4852C71.5574 75.0827 72.9659 71.5033 73.9912 67.8057C74.508 65.988 74.9497 64.1656 75.3403 62.3365C75.7263 60.5029 76.0663 58.6249 76.2773 56.6851C76.5106 54.7022 76.5696 52.7026 76.4536 50.7094C76.3308 48.6184 75.9417 46.5519 75.2957 44.5604C75.0827 43.9041 74.6732 43.3299 74.1231 42.9161C73.573 42.5023 72.9092 42.2691 72.2223 42.2483C71.5354 42.2275 70.8588 42.4202 70.2849 42.8C69.7111 43.1798 69.2679 43.7283 69.016 44.3705L68.9881 44.4425C67.8262 47.5783 67.2188 50.894 67.1936 54.2398C67.1721 57.7901 67.4528 61.3357 68.0326 64.838C68.5124 68.3103 69.2135 71.7482 70.1317 75.1304C70.6138 76.8783 71.2017 78.595 71.8921 80.2709C72.5894 81.997 73.427 83.6626 74.3965 85.2507C75.3864 86.8798 76.5311 88.4087 77.8145 89.816C79.1053 91.216 80.5317 92.4834 82.0726 93.5994C85.0511 95.7211 88.2923 97.4438 91.7142 98.7239C98.2882 101.24 105.188 102.794 112.202 103.339C113.077 103.403 113.953 103.458 114.829 103.488C115.267 103.508 115.706 103.522 116.144 103.527C116.587 103.534 116.996 103.55 117.534 103.541C118.716 103.541 119.891 103.366 121.021 103.02C121.768 102.784 122.473 102.43 123.111 101.973C123.864 101.426 124.489 100.72 124.94 99.9041L124.959 99.8695C125.176 99.4701 125.312 99.0318 125.36 98.5796C125.408 98.1273 125.367 97.6699 125.239 97.2336C125.112 96.7972 124.9 96.3904 124.615 96.0364C124.331 95.6824 123.98 95.3882 123.582 95.1704C123.151 94.9366 122.677 94.7959 122.189 94.7571C108.214 93.7354 94.2919 97.3584 82.5693 105.068C79.8455 106.863 77.3542 108.99 75.1524 111.402C74.0411 112.637 73.0308 113.96 72.1312 115.358C71.2273 116.761 70.4551 118.246 69.8246 119.794C68.7874 122.248 68.3152 124.905 68.4434 127.568C68.5063 129.275 68.9771 130.942 69.816 132.428C70.8294 134.026 71.5291 133.709 71.8551 132.317C72.0585 131.61 72.1845 130.621 72.4205 129.378C72.6992 127.877 73.0748 126.396 73.5447 124.944C74.295 122.714 75.3646 120.607 76.72 118.687C78.144 116.69 79.7939 114.866 81.6367 113.251C84.3311 110.919 87.2918 108.918 90.4565 107.288C93.6338 105.599 96.9682 104.227 100.412 103.192C107.301 101.108 114.523 100.361 121.69 100.994L119.488 96.8753C119.486 96.8742 119.477 96.8681 119.487 96.8742L119.509 96.8898C119.505 96.8871 119.5 96.884 119.496 96.8807C119.485 96.8721 119.478 96.8641 119.483 96.8686H119.475C119.442 96.8921 119.406 96.9118 119.368 96.9274C119.116 97.0346 118.849 97.1039 118.577 97.1331C118.15 97.1877 117.719 97.2093 117.289 97.1978L115.659 97.1369C113.443 97.0235 111.236 96.7878 109.044 96.4653C104.666 95.8025 100.368 94.694 96.2141 93.1569C93.2639 92.0956 90.4393 90.7108 87.7914 89.0276C86.5466 88.224 85.3668 87.3231 84.2629 86.3332C83.7316 85.8569 83.2244 85.354 82.7433 84.8264C82.5085 84.5601 82.2568 84.3118 82.0308 84.0387L81.3549 83.2193C79.4814 80.7637 78.0284 78.0117 77.0555 75.0764C76.0103 71.9712 75.2261 68.7835 74.7112 65.5467C74.111 62.3033 73.7361 59.0218 73.5895 55.7261C73.442 52.665 73.8839 49.6041 74.8911 46.7112L69.3125 46.607C70.2822 49.4711 70.441 52.7059 70.1079 56.0284C69.9515 57.6902 69.6776 59.3776 69.351 61.0823C69.0191 62.7893 68.6457 64.4853 68.2161 66.1521C67.3402 69.7231 66.0185 73.1687 64.2824 76.407C62.6011 79.5543 60.3309 82.3463 57.5963 84.6297C54.7884 86.8924 51.6318 88.6799 48.2508 89.9218C44.789 91.2018 41.1975 92.0957 37.5411 92.5873C31.7823 93.413 25.8336 93.5011 19.8052 93.5776L20.6044 98.4662C30.1614 95.2098 41.177 96.3456 50.1367 101.219C50.6884 101.538 51.2637 101.82 51.7986 102.167L53.4028 103.209C53.9328 103.564 54.4248 103.97 54.9391 104.347C55.1907 104.542 55.4554 104.722 55.697 104.929L56.4157 105.559C57.3794 106.393 58.3006 107.276 59.1758 108.203C60.0029 109.177 60.8695 110.12 61.6022 111.174C61.9967 111.68 62.3654 112.205 62.7068 112.749C63.0479 113.292 63.4111 113.823 63.7368 114.377L64.6674 116.067C64.9863 116.627 65.2244 117.229 65.5082 117.807C66.5942 120.151 67.4346 122.603 68.0159 125.122C69.4191 131.125 69.5397 137.358 68.3697 143.411L70.7615 143.474C69.6641 139.849 69.2799 136.045 69.6303 132.273C69.8309 130.132 69.8884 129.045 69.4296 129.054C69.2272 129.068 68.8761 129.351 68.4763 129.96C68.2339 130.33 68.0186 130.717 67.8322 131.119C67.7184 131.353 67.6034 131.609 67.4964 131.888C67.4431 132.028 67.3814 132.171 67.3331 132.323C67.2888 132.475 67.2453 132.633 67.2024 132.796C66.213 136.579 66.0427 140.531 66.7031 144.386C66.8145 145.024 67.1353 145.606 67.6143 146.04C68.0933 146.474 68.703 146.734 69.3464 146.779C69.9897 146.825 70.6297 146.653 71.1643 146.29C71.6989 145.928 72.0975 145.397 72.2965 144.78L72.3745 144.536C73.5902 140.706 74.2068 136.711 74.2023 132.691C74.2119 129.39 73.7933 126.103 72.9571 122.911C72.129 119.697 70.9547 116.583 69.455 113.624C69.4765 113.593 69.496 113.563 69.5158 113.527Z" fill="#FF5805"/>
</g>
</svg>
