<svg width="105" height="104" viewBox="0 0 105 104" fill="none" xmlns="http://www.w3.org/2000/svg">
<g id="spark, sparkle, 26">
<g id="Vector">
<path d="M25.5418 32.1205L25.4037 32.2338L25.4023 32.2349L24.9761 32.5842C24.9675 32.4763 24.9601 32.3682 24.954 32.2601C24.9277 31.8105 25.2135 31.7217 25.5418 32.1205ZM25.5418 32.1205L25.4044 32.2337L25.403 32.2348L24.9763 32.5862C24.9833 32.6741 24.9912 32.7619 25 32.8497C25.0959 32.8705 25.2217 32.8779 25.3678 32.8397C25.6057 32.7775 25.7581 32.6321 25.8447 32.5019C25.7724 32.4079 25.699 32.3148 25.6246 32.2224C25.6242 32.2219 25.6238 32.2214 25.6234 32.2209C25.5963 32.1873 25.5692 32.1539 25.5418 32.1205ZM25.9894 32.6929C26.0183 32.9957 26.058 33.2973 26.1085 33.5973C26.1531 33.8241 26.2047 34.0494 26.2633 34.2728C26.2633 34.2731 26.2634 34.2734 26.2635 34.2736C26.3278 34.5193 26.4006 34.7628 26.4816 35.0037L25.9894 32.6929ZM25.9894 32.6929C26.2873 33.0923 26.5662 33.5055 26.8251 33.931C26.9834 34.1905 27.1272 34.4603 27.2596 34.736L25.9894 32.6929ZM28.8676 41.555C29.0993 42.0796 29.3314 42.603 29.5632 43.1256C30.5505 45.3518 31.5316 47.5641 32.4533 49.806C33.2009 51.6491 33.9293 53.5001 34.6384 55.3587C34.6385 55.3592 34.6387 55.3597 34.6389 55.3601L35.6952 58.1546L36.7164 60.9508C36.8903 61.4709 37.0222 62.0038 37.1109 62.5444L37.1146 62.5667L37.1192 62.5888C37.1375 62.6753 37.1347 62.7649 37.1111 62.8503C37.0923 62.9183 37.0606 62.9825 37.0174 63.0394C37.0025 63.0218 36.9856 62.9991 36.9675 62.9702C36.7468 62.5829 36.5754 62.1701 36.4572 61.7414L36.4546 61.732L36.4518 61.7227C36.0979 60.5304 35.6942 59.3575 35.2406 58.2042C34.7915 57.0504 34.295 55.9152 33.751 54.7985L32.852 55.2364L33.7514 54.7993C33.687 54.6667 33.6251 54.5421 33.5663 54.4238C33.3227 53.9337 33.1325 53.5509 33.0358 53.1489L33.0356 53.1477C32.7739 52.0656 32.4019 51.0364 32.0256 50.0554C31.934 49.8166 31.8427 49.5819 31.7525 49.3499C31.4655 48.6123 31.1892 47.9022 30.9478 47.1728L30.9476 47.1721C30.6379 46.2383 30.2721 45.2878 29.9166 44.3643C29.7093 43.8258 29.5056 43.2965 29.3186 42.785L29.3183 42.7841L28.8676 41.555Z" fill="#FF4500"/>
<path d="M25.5418 32.1205L25.4037 32.2338L25.4023 32.2349L24.9761 32.5842C24.9675 32.4763 24.9601 32.3682 24.954 32.2601C24.9277 31.8105 25.2135 31.7217 25.5418 32.1205ZM25.5418 32.1205L25.4044 32.2337L25.403 32.2348L24.9763 32.5862C24.9833 32.6741 24.9912 32.7619 25 32.8497C25.0959 32.8705 25.2217 32.8779 25.3678 32.8397C25.6057 32.7775 25.7581 32.6321 25.8447 32.5019C25.7724 32.4079 25.699 32.3148 25.6246 32.2224C25.6242 32.2219 25.6238 32.2214 25.6234 32.2209C25.5963 32.1873 25.5692 32.1539 25.5418 32.1205ZM25.9894 32.6929C26.0183 32.9957 26.058 33.2973 26.1085 33.5973C26.1531 33.8241 26.2047 34.0494 26.2633 34.2728C26.2633 34.2731 26.2634 34.2734 26.2635 34.2736C26.3278 34.5193 26.4006 34.7628 26.4816 35.0037L25.9894 32.6929ZM25.9894 32.6929C26.2873 33.0923 26.5662 33.5055 26.8251 33.931C26.9834 34.1905 27.1272 34.4603 27.2596 34.736L25.9894 32.6929ZM28.8676 41.555C29.0993 42.0796 29.3314 42.603 29.5632 43.1256C30.5505 45.3518 31.5316 47.5641 32.4533 49.806C33.2009 51.6491 33.9293 53.5001 34.6384 55.3587C34.6385 55.3592 34.6387 55.3597 34.6389 55.3601L35.6952 58.1546L36.7164 60.9508C36.8903 61.4709 37.0222 62.0038 37.1109 62.5444L37.1146 62.5667L37.1192 62.5888C37.1375 62.6753 37.1347 62.7649 37.1111 62.8503C37.0923 62.9183 37.0606 62.9825 37.0174 63.0394C37.0025 63.0218 36.9856 62.9991 36.9675 62.9702C36.7468 62.5829 36.5754 62.1701 36.4572 61.7414L36.4546 61.732L36.4518 61.7227C36.0979 60.5304 35.6942 59.3575 35.2406 58.2042C34.7915 57.0504 34.295 55.9152 33.751 54.7985L32.852 55.2364L33.7514 54.7993C33.687 54.6667 33.6251 54.5421 33.5663 54.4238C33.3227 53.9337 33.1325 53.5509 33.0358 53.1489L33.0356 53.1477C32.7739 52.0656 32.4019 51.0364 32.0256 50.0554C31.934 49.8166 31.8427 49.5819 31.7525 49.3499C31.4655 48.6123 31.1892 47.9022 30.9478 47.1728L30.9476 47.1721C30.6379 46.2383 30.2721 45.2878 29.9166 44.3643C29.7093 43.8258 29.5056 43.2965 29.3186 42.785L29.3183 42.7841L28.8676 41.555Z" fill="black" fill-opacity="0.2"/>
<path d="M25.5418 32.1205L25.4037 32.2338L25.4023 32.2349L24.9761 32.5842C24.9675 32.4763 24.9601 32.3682 24.954 32.2601C24.9277 31.8105 25.2135 31.7217 25.5418 32.1205ZM25.5418 32.1205L25.4044 32.2337L25.403 32.2348L24.9763 32.5862C24.9833 32.6741 24.9912 32.7619 25 32.8497C25.0959 32.8705 25.2217 32.8779 25.3678 32.8397C25.6057 32.7775 25.7581 32.6321 25.8447 32.5019C25.7724 32.4079 25.699 32.3148 25.6246 32.2224C25.6242 32.2219 25.6238 32.2214 25.6234 32.2209C25.5963 32.1873 25.5692 32.1539 25.5418 32.1205ZM25.9894 32.6929C26.0183 32.9957 26.058 33.2973 26.1085 33.5973C26.1531 33.8241 26.2047 34.0494 26.2633 34.2728C26.2633 34.2731 26.2634 34.2734 26.2635 34.2736C26.3278 34.5193 26.4006 34.7628 26.4816 35.0037L25.9894 32.6929ZM25.9894 32.6929C26.2873 33.0923 26.5662 33.5055 26.8251 33.931C26.9834 34.1905 27.1272 34.4603 27.2596 34.736L25.9894 32.6929ZM28.8676 41.555C29.0993 42.0796 29.3314 42.603 29.5632 43.1256C30.5505 45.3518 31.5316 47.5641 32.4533 49.806C33.2009 51.6491 33.9293 53.5001 34.6384 55.3587C34.6385 55.3592 34.6387 55.3597 34.6389 55.3601L35.6952 58.1546L36.7164 60.9508C36.8903 61.4709 37.0222 62.0038 37.1109 62.5444L37.1146 62.5667L37.1192 62.5888C37.1375 62.6753 37.1347 62.7649 37.1111 62.8503C37.0923 62.9183 37.0606 62.9825 37.0174 63.0394C37.0025 63.0218 36.9856 62.9991 36.9675 62.9702C36.7468 62.5829 36.5754 62.1701 36.4572 61.7414L36.4546 61.732L36.4518 61.7227C36.0979 60.5304 35.6942 59.3575 35.2406 58.2042C34.7915 57.0504 34.295 55.9152 33.751 54.7985L32.852 55.2364L33.7514 54.7993C33.687 54.6667 33.6251 54.5421 33.5663 54.4238C33.3227 53.9337 33.1325 53.5509 33.0358 53.1489L33.0356 53.1477C32.7739 52.0656 32.4019 51.0364 32.0256 50.0554C31.934 49.8166 31.8427 49.5819 31.7525 49.3499C31.4655 48.6123 31.1892 47.9022 30.9478 47.1728L30.9476 47.1721C30.6379 46.2383 30.2721 45.2878 29.9166 44.3643C29.7093 43.8258 29.5056 43.2965 29.3186 42.785L29.3183 42.7841L28.8676 41.555Z" stroke="#FF4500" stroke-width="2"/>
</g>
<g id="Vector_2">
<path d="M59.6264 36.5392C59.5566 37.1173 59.4889 37.6964 59.4226 38.2766C59.4103 38.3882 59.3987 38.5 59.3875 38.612L60.3157 38.648L59.387 38.6175C59.3368 39.1214 59.2972 39.63 59.2567 40.1507M59.6264 36.5392L59.3991 36.5272C59.3705 37.1076 59.3479 37.6871 59.328 38.2643L58.4289 38.165L59.3279 38.2678C59.3239 38.3827 59.3201 38.4975 59.3163 38.6122L59.2567 40.1507M59.6264 36.5392L60.398 36.5753L59.6267 36.5372M59.2567 40.1507L59.2362 40.681L59.2361 40.6831L59.0848 44.8227M59.2567 40.1507C59.2561 40.1583 59.2555 40.166 59.2549 40.1736L59.25 40.2365C59.1985 40.8998 59.1447 41.5825 59.066 42.2653M59.0848 44.8227L58.0725 42.1512M59.0848 44.8227L60.0841 44.8618L59.0847 44.8252L58.8857 49.9222L58.8857 49.9222L58.8855 49.9277L58.7151 55.0146M59.0848 44.8227L58.5722 56.7039C58.5702 56.6914 58.5683 56.679 58.5664 56.6666C58.5547 56.5904 58.545 56.5139 58.5374 56.4373C58.536 56.4231 58.5347 56.409 58.5334 56.3948C58.533 56.3893 58.5325 56.3838 58.532 56.3784M59.066 42.2653C59.066 42.2652 59.066 42.2651 59.0661 42.2649L58.0725 42.1512M59.066 42.2653C59.066 42.2655 59.066 42.2656 59.066 42.2657L58.0725 42.1512M59.066 42.2653C58.9851 42.9719 58.9479 43.6792 58.9088 44.4222C58.9007 44.5763 58.8925 44.732 58.8838 44.8896C58.8347 45.7805 58.7703 46.7157 58.607 47.6563M58.0725 42.1512C57.9878 42.8912 57.9487 43.635 57.9096 44.3789C57.8546 45.4265 57.7995 46.4745 57.6169 47.513M58.607 47.6563C58.608 47.6472 58.6091 47.6382 58.6101 47.6292L57.6169 47.513M58.607 47.6563C58.5515 48.1478 58.5517 48.6439 58.6075 49.1354L58.611 49.1657L58.6126 49.1962C58.7233 51.3243 58.6984 53.4572 58.5378 55.5821L58.5371 55.5921L58.5361 55.6021C58.5114 55.8604 58.51 56.1202 58.532 56.3784M58.607 47.6563C58.6053 47.6662 58.6035 47.6762 58.6018 47.6861L57.6169 47.513M57.6169 47.513L58.532 56.3784M58.532 56.3784C58.5309 56.3835 58.5299 56.3887 58.5288 56.3938L58.5245 56.4141L58.5212 56.4346C58.5122 56.4888 58.4904 56.5408 58.457 56.5864C58.4236 56.632 58.3793 56.67 58.3271 56.6967L58.3175 56.7016L58.3081 56.7067C58.3085 56.7065 58.3154 56.7031 58.3285 56.6996C58.3417 56.6961 58.3611 56.6925 58.3863 56.6923C58.4216 56.692 58.4574 56.6983 58.4906 56.7102L58.3477 56.737L58.3265 56.741L57.5877 56.8798L58.3347 56.7562L58.3558 56.7527L58.532 56.3784ZM58.532 56.3784C58.6252 55.9286 58.6864 55.4729 58.7151 55.0146M58.7151 55.0146L58.7146 55.0288L59.7141 55.0623L58.7159 55.0011C58.7157 55.0056 58.7154 55.0101 58.7151 55.0146ZM58.5978 56.7823C58.5977 56.7824 58.5969 56.7812 58.5955 56.7786C58.5972 56.7809 58.5979 56.7822 58.5978 56.7823Z" fill="#FF4500"/>
<path d="M59.6264 36.5392C59.5566 37.1173 59.4889 37.6964 59.4226 38.2766C59.4103 38.3882 59.3987 38.5 59.3875 38.612L60.3157 38.648L59.387 38.6175C59.3368 39.1214 59.2972 39.63 59.2567 40.1507M59.6264 36.5392L59.3991 36.5272C59.3705 37.1076 59.3479 37.6871 59.328 38.2643L58.4289 38.165L59.3279 38.2678C59.3239 38.3827 59.3201 38.4975 59.3163 38.6122L59.2567 40.1507M59.6264 36.5392L60.398 36.5753L59.6267 36.5372M59.2567 40.1507L59.2362 40.681L59.2361 40.6831L59.0848 44.8227M59.2567 40.1507C59.2561 40.1583 59.2555 40.166 59.2549 40.1736L59.25 40.2365C59.1985 40.8998 59.1447 41.5825 59.066 42.2653M59.0848 44.8227L58.0725 42.1512M59.0848 44.8227L60.0841 44.8618L59.0847 44.8252L58.8857 49.9222L58.8857 49.9222L58.8855 49.9277L58.7151 55.0146M59.0848 44.8227L58.5722 56.7039C58.5702 56.6914 58.5683 56.679 58.5664 56.6666C58.5547 56.5904 58.545 56.5139 58.5374 56.4373C58.536 56.4231 58.5347 56.409 58.5334 56.3948C58.533 56.3893 58.5325 56.3838 58.532 56.3784M59.066 42.2653C59.066 42.2652 59.066 42.2651 59.0661 42.2649L58.0725 42.1512M59.066 42.2653C59.066 42.2655 59.066 42.2656 59.066 42.2657L58.0725 42.1512M59.066 42.2653C58.9851 42.9719 58.9479 43.6792 58.9088 44.4222C58.9007 44.5763 58.8925 44.732 58.8838 44.8896C58.8347 45.7805 58.7703 46.7157 58.607 47.6563M58.0725 42.1512C57.9878 42.8912 57.9487 43.635 57.9096 44.3789C57.8546 45.4265 57.7995 46.4745 57.6169 47.513M58.607 47.6563C58.608 47.6472 58.6091 47.6382 58.6101 47.6292L57.6169 47.513M58.607 47.6563C58.5515 48.1478 58.5517 48.6439 58.6075 49.1354L58.611 49.1657L58.6126 49.1962C58.7233 51.3243 58.6984 53.4572 58.5378 55.5821L58.5371 55.5921L58.5361 55.6021C58.5114 55.8604 58.51 56.1202 58.532 56.3784M58.607 47.6563C58.6053 47.6662 58.6035 47.6762 58.6018 47.6861L57.6169 47.513M57.6169 47.513L58.532 56.3784M58.532 56.3784C58.5309 56.3835 58.5299 56.3887 58.5288 56.3938L58.5245 56.4141L58.5212 56.4346C58.5122 56.4888 58.4904 56.5408 58.457 56.5864C58.4236 56.632 58.3793 56.67 58.3271 56.6967L58.3175 56.7016L58.3081 56.7067C58.3085 56.7065 58.3154 56.7031 58.3285 56.6996C58.3417 56.6961 58.3611 56.6925 58.3863 56.6923C58.4216 56.692 58.4574 56.6983 58.4906 56.7102L58.3477 56.737L58.3265 56.741L57.5877 56.8798L58.3347 56.7562L58.3558 56.7527L58.532 56.3784ZM58.532 56.3784C58.6252 55.9286 58.6864 55.4729 58.7151 55.0146M58.7151 55.0146L58.7146 55.0288L59.7141 55.0623L58.7159 55.0011C58.7157 55.0056 58.7154 55.0101 58.7151 55.0146ZM58.5978 56.7823C58.5977 56.7824 58.5969 56.7812 58.5955 56.7786C58.5972 56.7809 58.5979 56.7822 58.5978 56.7823Z" fill="black" fill-opacity="0.2"/>
<path d="M59.6264 36.5392C59.5566 37.1173 59.4889 37.6964 59.4226 38.2766C59.4103 38.3882 59.3987 38.5 59.3875 38.612L60.3157 38.648L59.387 38.6175C59.3368 39.1214 59.2972 39.63 59.2567 40.1507M59.6264 36.5392L59.3991 36.5272C59.3705 37.1076 59.3479 37.6871 59.328 38.2643L58.4289 38.165L59.3279 38.2678C59.3239 38.3827 59.3201 38.4975 59.3163 38.6122L59.2567 40.1507M59.6264 36.5392L60.398 36.5753L59.6267 36.5372M59.2567 40.1507L59.2362 40.681L59.2361 40.6831L59.0848 44.8227M59.2567 40.1507C59.2561 40.1583 59.2555 40.166 59.2549 40.1736L59.25 40.2365C59.1985 40.8998 59.1447 41.5825 59.066 42.2653M59.0848 44.8227L58.0725 42.1512M59.0848 44.8227L60.0841 44.8618L59.0847 44.8252L58.8857 49.9222L58.8857 49.9222L58.8855 49.9277L58.7151 55.0146M59.0848 44.8227L58.5722 56.7039C58.5702 56.6914 58.5683 56.679 58.5664 56.6666C58.5547 56.5904 58.545 56.5139 58.5374 56.4373C58.536 56.4231 58.5347 56.409 58.5334 56.3948C58.533 56.3893 58.5325 56.3838 58.532 56.3784M59.066 42.2653C59.066 42.2652 59.066 42.2651 59.0661 42.2649L58.0725 42.1512M59.066 42.2653C59.066 42.2655 59.066 42.2656 59.066 42.2657L58.0725 42.1512M59.066 42.2653C58.9851 42.9719 58.9479 43.6792 58.9088 44.4222C58.9007 44.5763 58.8925 44.732 58.8838 44.8896C58.8347 45.7805 58.7703 46.7157 58.607 47.6563M58.0725 42.1512C57.9878 42.8912 57.9487 43.635 57.9096 44.3789C57.8546 45.4265 57.7995 46.4745 57.6169 47.513M58.607 47.6563C58.608 47.6472 58.6091 47.6382 58.6101 47.6292L57.6169 47.513M58.607 47.6563C58.5515 48.1478 58.5517 48.6439 58.6075 49.1354L58.611 49.1657L58.6126 49.1962C58.7233 51.3243 58.6984 53.4572 58.5378 55.5821L58.5371 55.5921L58.5361 55.6021C58.5114 55.8604 58.51 56.1202 58.532 56.3784M58.607 47.6563C58.6053 47.6662 58.6035 47.6762 58.6018 47.6861L57.6169 47.513M57.6169 47.513L58.532 56.3784M58.532 56.3784C58.5309 56.3835 58.5299 56.3887 58.5288 56.3938L58.5245 56.4141L58.5212 56.4346C58.5122 56.4888 58.4904 56.5408 58.457 56.5864C58.4236 56.632 58.3793 56.67 58.3271 56.6967L58.3175 56.7016L58.3081 56.7067C58.3085 56.7065 58.3154 56.7031 58.3285 56.6996C58.3417 56.6961 58.3611 56.6925 58.3863 56.6923C58.4216 56.692 58.4574 56.6983 58.4906 56.7102L58.3477 56.737L58.3265 56.741L57.5877 56.8798L58.3347 56.7562L58.3558 56.7527L58.532 56.3784ZM58.532 56.3784C58.6252 55.9286 58.6864 55.4729 58.7151 55.0146M58.7151 55.0146L58.7146 55.0288L59.7141 55.0623L58.7159 55.0011C58.7157 55.0056 58.7154 55.0101 58.7151 55.0146ZM58.5978 56.7823C58.5977 56.7824 58.5969 56.7812 58.5955 56.7786C58.5972 56.7809 58.5979 56.7822 58.5978 56.7823Z" stroke="#FF4500" stroke-width="2"/>
</g>
<g id="Vector_3">
<path d="M89.6878 43.9781L89.6868 43.9792L89.6878 43.9781ZM89.6878 43.9781L89.9689 43.6829L89.6878 43.9781ZM88.2627 45.6243C88.2745 45.6114 88.2864 45.5985 88.2983 45.5857C88.1667 45.7816 88.0266 45.9719 87.8782 46.156L87.2997 46.874L87.3138 46.8874C86.9745 47.2898 86.6339 47.6913 86.2921 48.092C85.963 48.4472 85.655 48.8211 85.3698 49.212L85.3634 49.2208L85.3572 49.2297C84.6628 50.2264 83.9914 51.237 83.3277 52.2364C82.6639 53.2331 81.9967 54.2209 81.3153 55.1956L81.314 55.1974C80.6243 56.1885 79.9266 57.173 79.2259 58.1616C79.0727 58.3777 78.9194 58.594 78.7659 58.8107C78.7654 58.8114 78.7649 58.8122 78.7643 58.8129L76.1979 62.3945C75.972 62.6826 75.7117 62.9431 75.4228 63.1702L75.4084 63.1815L75.4028 63.1863C75.3962 63.188 75.3838 63.1905 75.3636 63.1922C75.2946 63.1979 75.1721 63.1895 74.9878 63.1375L74.9876 63.1375C74.8027 63.0853 74.6818 62.9872 74.6284 62.9159C74.6237 62.9096 74.6199 62.9041 74.6167 62.8994C74.7045 62.6801 74.833 62.4782 74.9963 62.3045L75.0083 62.2918L75.0198 62.2787C76.2717 60.8502 77.3498 59.2805 78.2318 57.6018C78.2835 57.5041 78.3296 57.4158 78.3714 57.3356C78.5671 56.9601 78.6699 56.763 78.8341 56.6168L78.8341 56.6168L78.8372 56.614C79.5041 56.0154 80.04 55.3423 80.5178 54.7115C80.6207 54.5756 80.7203 54.4427 80.8177 54.3126C81.1874 53.8189 81.5271 53.3653 81.9115 52.9362L81.9138 52.9336C82.3187 52.4785 82.6979 52.0092 83.0608 51.5559C83.1019 51.5045 83.1428 51.4535 83.1834 51.4026C83.5065 50.9988 83.8174 50.6101 84.1409 50.2322L84.141 50.2321C84.8086 49.452 85.4821 48.6772 86.1614 47.9078L88.259 45.6283L88.259 45.6283L88.2627 45.6243ZM75.409 63.1841C75.4091 63.1842 75.4082 63.1846 75.4063 63.1852C75.408 63.1844 75.4089 63.1841 75.409 63.1841ZM74.6034 62.8749C74.6035 62.8749 74.604 62.876 74.6046 62.8782C74.6036 62.876 74.6033 62.8749 74.6034 62.8749Z" fill="#FF4500"/>
<path d="M89.6878 43.9781L89.6868 43.9792L89.6878 43.9781ZM89.6878 43.9781L89.9689 43.6829L89.6878 43.9781ZM88.2627 45.6243C88.2745 45.6114 88.2864 45.5985 88.2983 45.5857C88.1667 45.7816 88.0266 45.9719 87.8782 46.156L87.2997 46.874L87.3138 46.8874C86.9745 47.2898 86.6339 47.6913 86.2921 48.092C85.963 48.4472 85.655 48.8211 85.3698 49.212L85.3634 49.2208L85.3572 49.2297C84.6628 50.2264 83.9914 51.237 83.3277 52.2364C82.6639 53.2331 81.9967 54.2209 81.3153 55.1956L81.314 55.1974C80.6243 56.1885 79.9266 57.173 79.2259 58.1616C79.0727 58.3777 78.9194 58.594 78.7659 58.8107C78.7654 58.8114 78.7649 58.8122 78.7643 58.8129L76.1979 62.3945C75.972 62.6826 75.7117 62.9431 75.4228 63.1702L75.4084 63.1815L75.4028 63.1863C75.3962 63.188 75.3838 63.1905 75.3636 63.1922C75.2946 63.1979 75.1721 63.1895 74.9878 63.1375L74.9876 63.1375C74.8027 63.0853 74.6818 62.9872 74.6284 62.9159C74.6237 62.9096 74.6199 62.9041 74.6167 62.8994C74.7045 62.6801 74.833 62.4782 74.9963 62.3045L75.0083 62.2918L75.0198 62.2787C76.2717 60.8502 77.3498 59.2805 78.2318 57.6018C78.2835 57.5041 78.3296 57.4158 78.3714 57.3356C78.5671 56.9601 78.6699 56.763 78.8341 56.6168L78.8341 56.6168L78.8372 56.614C79.5041 56.0154 80.04 55.3423 80.5178 54.7115C80.6207 54.5756 80.7203 54.4427 80.8177 54.3126C81.1874 53.8189 81.5271 53.3653 81.9115 52.9362L81.9138 52.9336C82.3187 52.4785 82.6979 52.0092 83.0608 51.5559C83.1019 51.5045 83.1428 51.4535 83.1834 51.4026C83.5065 50.9988 83.8174 50.6101 84.1409 50.2322L84.141 50.2321C84.8086 49.452 85.4821 48.6772 86.1614 47.9078L88.259 45.6283L88.259 45.6283L88.2627 45.6243ZM75.409 63.1841C75.4091 63.1842 75.4082 63.1846 75.4063 63.1852C75.408 63.1844 75.4089 63.1841 75.409 63.1841ZM74.6034 62.8749C74.6035 62.8749 74.604 62.876 74.6046 62.8782C74.6036 62.876 74.6033 62.8749 74.6034 62.8749Z" fill="black" fill-opacity="0.2"/>
<path d="M89.6878 43.9781L89.6868 43.9792L89.6878 43.9781ZM89.6878 43.9781L89.9689 43.6829L89.6878 43.9781ZM88.2627 45.6243C88.2745 45.6114 88.2864 45.5985 88.2983 45.5857C88.1667 45.7816 88.0266 45.9719 87.8782 46.156L87.2997 46.874L87.3138 46.8874C86.9745 47.2898 86.6339 47.6913 86.2921 48.092C85.963 48.4472 85.655 48.8211 85.3698 49.212L85.3634 49.2208L85.3572 49.2297C84.6628 50.2264 83.9914 51.237 83.3277 52.2364C82.6639 53.2331 81.9967 54.2209 81.3153 55.1956L81.314 55.1974C80.6243 56.1885 79.9266 57.173 79.2259 58.1616C79.0727 58.3777 78.9194 58.594 78.7659 58.8107C78.7654 58.8114 78.7649 58.8122 78.7643 58.8129L76.1979 62.3945C75.972 62.6826 75.7117 62.9431 75.4228 63.1702L75.4084 63.1815L75.4028 63.1863C75.3962 63.188 75.3838 63.1905 75.3636 63.1922C75.2946 63.1979 75.1721 63.1895 74.9878 63.1375L74.9876 63.1375C74.8027 63.0853 74.6818 62.9872 74.6284 62.9159C74.6237 62.9096 74.6199 62.9041 74.6167 62.8994C74.7045 62.6801 74.833 62.4782 74.9963 62.3045L75.0083 62.2918L75.0198 62.2787C76.2717 60.8502 77.3498 59.2805 78.2318 57.6018C78.2835 57.5041 78.3296 57.4158 78.3714 57.3356C78.5671 56.9601 78.6699 56.763 78.8341 56.6168L78.8341 56.6168L78.8372 56.614C79.5041 56.0154 80.04 55.3423 80.5178 54.7115C80.6207 54.5756 80.7203 54.4427 80.8177 54.3126C81.1874 53.8189 81.5271 53.3653 81.9115 52.9362L81.9138 52.9336C82.3187 52.4785 82.6979 52.0092 83.0608 51.5559C83.1019 51.5045 83.1428 51.4535 83.1834 51.4026C83.5065 50.9988 83.8174 50.6101 84.1409 50.2322L84.141 50.2321C84.8086 49.452 85.4821 48.6772 86.1614 47.9078L88.259 45.6283L88.259 45.6283L88.2627 45.6243ZM75.409 63.1841C75.4091 63.1842 75.4082 63.1846 75.4063 63.1852C75.408 63.1844 75.4089 63.1841 75.409 63.1841ZM74.6034 62.8749C74.6035 62.8749 74.604 62.876 74.6046 62.8782C74.6036 62.876 74.6033 62.8749 74.6034 62.8749Z" stroke="#FF4500" stroke-width="2"/>
</g>
<g id="Vector_4">
<mask id="path-4-inside-1_1295_28411" fill="white">
<path d="M94.8567 71.3813C94.6492 71.4777 94.4454 71.5816 94.2316 71.6656L93.589 71.9155C93.3597 71.998 93.1378 72.0995 92.9256 72.2189C92.3712 72.5575 91.8279 72.9181 91.2685 73.2463C90.7124 73.5812 90.1545 73.9128 89.586 74.2233C88.8863 74.6066 88.1804 74.9776 87.4626 75.325L85.3094 76.3677C85.0762 76.461 84.8275 76.5103 84.576 76.5131C84.3301 76.5302 84.0548 76.3092 83.7856 75.9751C83.3934 75.4884 83.2221 74.8463 83.4428 74.566C83.5842 74.3994 83.7753 74.2816 83.9886 74.2297C84.9298 73.9515 85.8061 73.491 86.5666 72.875C86.7806 72.7047 86.9846 72.4898 87.2585 72.4554C88.1293 72.3373 88.8078 71.8224 89.607 71.558C90.2029 71.3655 90.7441 71.0557 91.3331 70.8463C92.3812 70.4682 93.4171 70.0668 94.4815 69.7219C94.9197 69.5726 95.3939 69.562 95.8384 69.6916C95.8927 69.7084 95.9425 69.7369 95.9845 69.7748C96.0265 69.8128 96.0596 69.8594 96.0815 69.9114C96.1034 69.9634 96.1136 70.0196 96.1113 70.0759C96.109 70.1322 96.0943 70.1873 96.0683 70.2374C95.9765 70.3662 95.8795 70.4922 95.7786 70.6139C95.6821 70.7353 95.5754 70.8484 95.4594 70.9518C95.2673 71.1037 95.0615 71.2379 94.8447 71.3526L94.8567 71.3813Z"/>
</mask>
<path d="M94.8567 71.3813C94.6492 71.4777 94.4454 71.5816 94.2316 71.6656L93.589 71.9155C93.3597 71.998 93.1378 72.0995 92.9256 72.2189C92.3712 72.5575 91.8279 72.9181 91.2685 73.2463C90.7124 73.5812 90.1545 73.9128 89.586 74.2233C88.8863 74.6066 88.1804 74.9776 87.4626 75.325L85.3094 76.3677C85.0762 76.461 84.8275 76.5103 84.576 76.5131C84.3301 76.5302 84.0548 76.3092 83.7856 75.9751C83.3934 75.4884 83.2221 74.8463 83.4428 74.566C83.5842 74.3994 83.7753 74.2816 83.9886 74.2297C84.9298 73.9515 85.8061 73.491 86.5666 72.875C86.7806 72.7047 86.9846 72.4898 87.2585 72.4554C88.1293 72.3373 88.8078 71.8224 89.607 71.558C90.2029 71.3655 90.7441 71.0557 91.3331 70.8463C92.3812 70.4682 93.4171 70.0668 94.4815 69.7219C94.9197 69.5726 95.3939 69.562 95.8384 69.6916C95.8927 69.7084 95.9425 69.7369 95.9845 69.7748C96.0265 69.8128 96.0596 69.8594 96.0815 69.9114C96.1034 69.9634 96.1136 70.0196 96.1113 70.0759C96.109 70.1322 96.0943 70.1873 96.0683 70.2374C95.9765 70.3662 95.8795 70.4922 95.7786 70.6139C95.6821 70.7353 95.5754 70.8484 95.4594 70.9518C95.2673 71.1037 95.0615 71.2379 94.8447 71.3526L94.8567 71.3813Z" fill="#FF4500"/>
<path d="M94.8567 71.3813C94.6492 71.4777 94.4454 71.5816 94.2316 71.6656L93.589 71.9155C93.3597 71.998 93.1378 72.0995 92.9256 72.2189C92.3712 72.5575 91.8279 72.9181 91.2685 73.2463C90.7124 73.5812 90.1545 73.9128 89.586 74.2233C88.8863 74.6066 88.1804 74.9776 87.4626 75.325L85.3094 76.3677C85.0762 76.461 84.8275 76.5103 84.576 76.5131C84.3301 76.5302 84.0548 76.3092 83.7856 75.9751C83.3934 75.4884 83.2221 74.8463 83.4428 74.566C83.5842 74.3994 83.7753 74.2816 83.9886 74.2297C84.9298 73.9515 85.8061 73.491 86.5666 72.875C86.7806 72.7047 86.9846 72.4898 87.2585 72.4554C88.1293 72.3373 88.8078 71.8224 89.607 71.558C90.2029 71.3655 90.7441 71.0557 91.3331 70.8463C92.3812 70.4682 93.4171 70.0668 94.4815 69.7219C94.9197 69.5726 95.3939 69.562 95.8384 69.6916C95.8927 69.7084 95.9425 69.7369 95.9845 69.7748C96.0265 69.8128 96.0596 69.8594 96.0815 69.9114C96.1034 69.9634 96.1136 70.0196 96.1113 70.0759C96.109 70.1322 96.0943 70.1873 96.0683 70.2374C95.9765 70.3662 95.8795 70.4922 95.7786 70.6139C95.6821 70.7353 95.5754 70.8484 95.4594 70.9518C95.2673 71.1037 95.0615 71.2379 94.8447 71.3526L94.8567 71.3813Z" fill="black" fill-opacity="0.2"/>
<path d="M94.8567 71.3813L95.6992 73.1952L97.4444 72.3846L96.7017 70.6094L94.8567 71.3813ZM94.2316 71.6656L94.9565 73.5296L94.9629 73.5271L94.2316 71.6656ZM93.589 71.9155L94.2664 73.7973L94.2903 73.7887L94.3139 73.7795L93.589 71.9155ZM92.9256 72.2189L91.9447 70.476L91.9137 70.4935L91.8833 70.512L92.9256 72.2189ZM91.2685 73.2463L90.2565 71.5212L90.2465 71.5271L90.2366 71.533L91.2685 73.2463ZM89.586 74.2233L88.6274 72.468L88.6251 72.4692L89.586 74.2233ZM87.4626 75.325L86.5914 73.5247L86.5909 73.5249L87.4626 75.325ZM85.3094 76.3677L86.0522 78.2247L86.1177 78.1985L86.1812 78.1677L85.3094 76.3677ZM84.576 76.5131L84.5537 74.5132L84.4953 74.5139L84.437 74.5179L84.576 76.5131ZM83.7856 75.9751L82.2283 77.23L82.2284 77.2301L83.7856 75.9751ZM83.4428 74.566L81.918 73.2718L81.8942 73.2998L81.8715 73.3287L83.4428 74.566ZM83.9886 74.2297L84.4617 76.173L84.5089 76.1615L84.5555 76.1477L83.9886 74.2297ZM86.5666 72.875L85.3213 71.31L85.3145 71.3154L85.3077 71.3209L86.5666 72.875ZM87.2585 72.4554L87.5073 74.4399L87.5174 74.4386L87.5275 74.4373L87.2585 72.4554ZM89.607 71.558L88.992 69.6549L88.9789 69.6592L89.607 71.558ZM91.3331 70.8463L92.0031 72.7308L92.0117 72.7277L91.3331 70.8463ZM94.4815 69.7219L95.098 71.6245L95.1124 71.6199L95.1268 71.615L94.4815 69.7219ZM95.8384 69.6916L96.4326 67.7819L96.4155 67.7765L96.3982 67.7715L95.8384 69.6916ZM96.0683 70.2374L97.6966 71.3987L97.7783 71.2842L97.8431 71.1595L96.0683 70.2374ZM95.7786 70.6139L94.2391 69.3372L94.2256 69.3535L94.2125 69.37L95.7786 70.6139ZM95.4594 70.9518L96.7 72.5205L96.7466 72.4837L96.7908 72.4442L95.4594 70.9518ZM94.8447 71.3526L93.9095 69.5847L92.2944 70.439L92.9996 72.1245L94.8447 71.3526ZM94.0142 69.5675C93.7181 69.705 93.6394 69.7494 93.5004 69.8041L94.9629 73.5271C95.2514 73.4138 95.5803 73.2505 95.6992 73.1952L94.0142 69.5675ZM93.5067 69.8016L92.8642 70.0515L94.3139 73.7795L94.9565 73.5296L93.5067 69.8016ZM92.9116 70.0337C92.5776 70.1539 92.2541 70.3019 91.9447 70.476L93.9064 73.9619C94.0214 73.8972 94.1418 73.8421 94.2664 73.7973L92.9116 70.0337ZM91.8833 70.512C91.2155 70.9198 90.823 71.1889 90.2565 71.5212L92.2805 74.9714C92.8328 74.6473 93.5268 74.1952 93.9679 73.9258L91.8833 70.512ZM90.2366 71.533C89.6839 71.8659 89.1565 72.179 88.6274 72.468L90.5446 75.9786C91.1526 75.6466 91.7409 75.2965 92.3003 74.9596L90.2366 71.533ZM88.6251 72.4692C87.9449 72.8419 87.2701 73.1962 86.5914 73.5247L88.3338 77.1252C89.0907 76.7589 89.8278 76.3713 90.5469 75.9773L88.6251 72.4692ZM86.5909 73.5249L84.4377 74.5677L86.1812 78.1677L88.3343 77.125L86.5909 73.5249ZM84.5667 74.5107C84.563 74.5122 84.5586 74.5132 84.5537 74.5132L84.5982 78.513C85.0963 78.5074 85.5894 78.4098 86.0522 78.2247L84.5667 74.5107ZM84.437 74.5179C84.9656 74.4811 85.2958 74.7083 85.3499 74.7468C85.4226 74.7986 85.4173 74.8125 85.3429 74.7202L82.2284 77.2301C82.4232 77.4718 82.6902 77.7633 83.0293 78.0048C83.3497 78.2331 83.9405 78.5622 84.7149 78.5083L84.437 74.5179ZM85.343 74.7202C85.3124 74.6823 85.3122 74.6584 85.3244 74.7068C85.3309 74.7331 85.3548 74.8366 85.3413 75.0004C85.3282 75.1602 85.2689 75.4797 85.0141 75.8033L81.8715 73.3287C81.1735 74.215 81.3342 75.2398 81.4444 75.6794C81.5851 76.2407 81.8667 76.7812 82.2283 77.23L85.343 74.7202ZM84.9676 75.8602C84.8344 76.0171 84.6567 76.1255 84.4617 76.173L83.5155 72.2865C82.894 72.4378 82.334 72.7817 81.918 73.2718L84.9676 75.8602ZM84.5555 76.1477C85.7484 75.7951 86.8599 75.2112 87.8255 74.4291L85.3077 71.3209C84.7522 71.7709 84.1113 72.1079 83.4217 72.3118L84.5555 76.1477ZM87.8119 74.4399C87.8573 74.4038 87.8982 74.3699 87.9297 74.3436C87.9454 74.3305 87.961 74.3173 87.9735 74.3068C87.9868 74.2956 87.9976 74.2866 88.0078 74.2781C88.052 74.2411 88.0569 74.2386 88.046 74.2463C88.0261 74.2604 87.8306 74.3994 87.5073 74.4399L87.0098 70.4709C86.4125 70.5458 85.978 70.8094 85.7342 70.9821C85.6113 71.0691 85.5079 71.1544 85.4452 71.2067C85.3629 71.2754 85.3507 71.2866 85.3213 71.31L87.8119 74.4399ZM87.5275 74.4373C88.272 74.3362 88.8827 74.0711 89.3052 73.874C89.8012 73.6426 89.9833 73.5401 90.2352 73.4568L88.9789 69.6592C88.4315 69.8403 87.8748 70.1274 87.614 70.2491C87.2798 70.4051 87.1158 70.4565 86.9896 70.4736L87.5275 74.4373ZM90.222 73.4611C90.6379 73.3267 91.0142 73.1581 91.2942 73.032C91.6035 72.8926 91.8025 72.8021 92.0031 72.7308L90.6631 68.9619C90.2746 69.1 89.9086 69.269 89.6511 69.385C89.3643 69.5142 89.1721 69.5967 88.9921 69.6549L90.222 73.4611ZM92.0117 72.7277C93.1195 72.3281 94.0743 71.9562 95.098 71.6245L93.8651 67.8193C92.76 68.1774 91.643 68.6084 90.6545 68.965L92.0117 72.7277ZM95.1268 71.615C95.1755 71.5984 95.2289 71.5971 95.2786 71.6116L96.3982 67.7715C95.5589 67.5268 94.6639 67.5468 93.8363 67.8289L95.1268 71.615ZM95.2442 71.6012C95.0221 71.5321 94.8167 71.4154 94.6428 71.258L97.3262 68.2917C97.0683 68.0584 96.7632 67.8847 96.4326 67.7819L95.2442 71.6012ZM94.6428 71.258C94.4688 71.1006 94.3303 70.9062 94.2383 70.6878L97.9247 69.1351C97.7889 68.8127 97.5842 68.525 97.3262 68.2917L94.6428 71.258ZM94.2383 70.6878C94.1463 70.4693 94.1033 70.2328 94.1129 69.9951L98.1097 70.1566C98.1238 69.8063 98.0605 69.4576 97.9247 69.1351L94.2383 70.6878ZM94.1129 69.9951C94.1225 69.7575 94.1844 69.5254 94.2936 69.3153L97.8431 71.1595C98.0043 70.8492 98.0955 70.5069 98.1097 70.1566L94.1129 69.9951ZM94.44 69.0761C94.3763 69.1654 94.3089 69.253 94.2391 69.3372L97.3181 71.8905C97.45 71.7315 97.5766 71.567 97.6966 71.3987L94.44 69.0761ZM94.2125 69.37C94.1871 69.4019 94.1589 69.4318 94.1281 69.4593L96.7908 72.4442C96.9918 72.265 97.1771 72.0688 97.3447 71.8578L94.2125 69.37ZM94.2189 69.383C94.1224 69.4593 94.0189 69.5268 93.9095 69.5847L95.7798 73.1205C96.1042 72.949 96.4122 72.7481 96.7 72.5205L94.2189 69.383ZM92.9996 72.1245L93.0117 72.1533L96.7017 70.6094L96.6897 70.5807L92.9996 72.1245Z" fill="#FF4500" mask="url(#path-4-inside-1_1295_28411)"/>
</g>
<g id="Vector_5">
<path d="M20.1159 70.991C19.3287 70.4598 18.519 69.962 17.6956 69.4889C17.0221 69.1114 16.3355 68.7601 15.6359 68.4351C14.9347 68.113 14.2284 67.8044 13.5201 67.5042L20.1159 70.991ZM20.1159 70.991C20.9033 71.5219 21.6757 72.0738 22.433 72.6467L20.1159 70.991ZM13.6794 68.6598C14.195 68.8822 14.7076 69.1091 15.2164 69.3429C15.8908 69.6563 16.5527 69.9948 17.2021 70.3587C18.0068 70.8211 18.7941 71.3054 19.5566 71.82L19.5569 71.8202C20.3221 72.3361 21.0729 72.8723 21.8092 73.4287C21.9121 73.5165 22.0031 73.6164 22.0804 73.7261C22.0687 73.765 22.0509 73.8137 22.0252 73.8723C21.9986 73.9323 21.9641 73.9889 21.9258 74.0377C21.9239 74.0401 21.9221 74.0424 21.9202 74.0447C21.9201 74.0446 21.9199 74.0445 21.9198 74.0443L21.9064 74.0297L21.8924 74.0156C21.0153 73.1311 19.9703 72.4285 18.8182 71.9482C18.7497 71.9189 18.6781 71.8903 18.6211 71.8676C18.6076 71.8622 18.595 71.8571 18.5834 71.8525C18.513 71.8242 18.4632 71.8034 18.4211 71.7835C18.3792 71.7638 18.358 71.7508 18.35 71.7455C17.9261 71.2797 17.441 70.9537 17.014 70.6928C16.8608 70.5992 16.722 70.5175 16.5924 70.4412C16.3246 70.2837 16.0962 70.1493 15.8619 69.9809L15.8619 69.9809L15.8568 69.9773C15.541 69.7532 15.2132 69.5462 14.875 69.357C14.7213 69.2669 14.5889 69.1917 14.4628 69.1201C14.2996 69.0273 14.1467 68.9405 13.9713 68.8348L13.9703 68.8342C13.8736 68.7761 13.7766 68.7179 13.6794 68.6598Z" fill="#FF4500"/>
<path d="M20.1159 70.991C19.3287 70.4598 18.519 69.962 17.6956 69.4889C17.0221 69.1114 16.3355 68.7601 15.6359 68.4351C14.9347 68.113 14.2284 67.8044 13.5201 67.5042L20.1159 70.991ZM20.1159 70.991C20.9033 71.5219 21.6757 72.0738 22.433 72.6467L20.1159 70.991ZM13.6794 68.6598C14.195 68.8822 14.7076 69.1091 15.2164 69.3429C15.8908 69.6563 16.5527 69.9948 17.2021 70.3587C18.0068 70.8211 18.7941 71.3054 19.5566 71.82L19.5569 71.8202C20.3221 72.3361 21.0729 72.8723 21.8092 73.4287C21.9121 73.5165 22.0031 73.6164 22.0804 73.7261C22.0687 73.765 22.0509 73.8137 22.0252 73.8723C21.9986 73.9323 21.9641 73.9889 21.9258 74.0377C21.9239 74.0401 21.9221 74.0424 21.9202 74.0447C21.9201 74.0446 21.9199 74.0445 21.9198 74.0443L21.9064 74.0297L21.8924 74.0156C21.0153 73.1311 19.9703 72.4285 18.8182 71.9482C18.7497 71.9189 18.6781 71.8903 18.6211 71.8676C18.6076 71.8622 18.595 71.8571 18.5834 71.8525C18.513 71.8242 18.4632 71.8034 18.4211 71.7835C18.3792 71.7638 18.358 71.7508 18.35 71.7455C17.9261 71.2797 17.441 70.9537 17.014 70.6928C16.8608 70.5992 16.722 70.5175 16.5924 70.4412C16.3246 70.2837 16.0962 70.1493 15.8619 69.9809L15.8619 69.9809L15.8568 69.9773C15.541 69.7532 15.2132 69.5462 14.875 69.357C14.7213 69.2669 14.5889 69.1917 14.4628 69.1201C14.2996 69.0273 14.1467 68.9405 13.9713 68.8348L13.9703 68.8342C13.8736 68.7761 13.7766 68.7179 13.6794 68.6598Z" fill="black" fill-opacity="0.2"/>
<path d="M20.1159 70.991C19.3287 70.4598 18.519 69.962 17.6956 69.4889C17.0221 69.1114 16.3355 68.7601 15.6359 68.4351C14.9347 68.113 14.2284 67.8044 13.5201 67.5042L20.1159 70.991ZM20.1159 70.991C20.9033 71.5219 21.6757 72.0738 22.433 72.6467L20.1159 70.991ZM13.6794 68.6598C14.195 68.8822 14.7076 69.1091 15.2164 69.3429C15.8908 69.6563 16.5527 69.9948 17.2021 70.3587C18.0068 70.8211 18.7941 71.3054 19.5566 71.82L19.5569 71.8202C20.3221 72.3361 21.0729 72.8723 21.8092 73.4287C21.9121 73.5165 22.0031 73.6164 22.0804 73.7261C22.0687 73.765 22.0509 73.8137 22.0252 73.8723C21.9986 73.9323 21.9641 73.9889 21.9258 74.0377C21.9239 74.0401 21.9221 74.0424 21.9202 74.0447C21.9201 74.0446 21.9199 74.0445 21.9198 74.0443L21.9064 74.0297L21.8924 74.0156C21.0153 73.1311 19.9703 72.4285 18.8182 71.9482C18.7497 71.9189 18.6781 71.8903 18.6211 71.8676C18.6076 71.8622 18.595 71.8571 18.5834 71.8525C18.513 71.8242 18.4632 71.8034 18.4211 71.7835C18.3792 71.7638 18.358 71.7508 18.35 71.7455C17.9261 71.2797 17.441 70.9537 17.014 70.6928C16.8608 70.5992 16.722 70.5175 16.5924 70.4412C16.3246 70.2837 16.0962 70.1493 15.8619 69.9809L15.8619 69.9809L15.8568 69.9773C15.541 69.7532 15.2132 69.5462 14.875 69.357C14.7213 69.2669 14.5889 69.1917 14.4628 69.1201C14.2996 69.0273 14.1467 68.9405 13.9713 68.8348L13.9703 68.8342C13.8736 68.7761 13.7766 68.7179 13.6794 68.6598Z" stroke="#FF4500" stroke-width="2"/>
</g>
</g>
</svg>
