<svg width="105" height="104" viewBox="0 0 105 104" fill="none" xmlns="http://www.w3.org/2000/svg">
<path d="M25.5419 32.1203L25.4038 32.2335L25.4024 32.2346L24.9762 32.5839C24.9675 32.476 24.9602 32.368 24.9541 32.2598C24.9277 31.8103 25.2136 31.7215 25.5419 32.1203ZM25.5419 32.1203L25.4044 32.2335L25.4031 32.2346L24.9763 32.5859C24.9834 32.6738 24.9913 32.7617 25.0001 32.8494C25.096 32.8703 25.2218 32.8776 25.3678 32.8394C25.6058 32.7773 25.7581 32.6319 25.8448 32.5017C25.7725 32.4077 25.6991 32.3145 25.6247 32.2221C25.6243 32.2216 25.6239 32.2211 25.6235 32.2206C25.5964 32.1871 25.5692 32.1536 25.5419 32.1203ZM25.9895 32.6927C26.0183 32.9954 26.058 33.2971 26.1086 33.5971C26.1532 33.8238 26.2048 34.0491 26.2633 34.2726C26.2634 34.2729 26.2635 34.2731 26.2635 34.2734C26.3279 34.519 26.4006 34.7625 26.4816 35.0035L25.9895 32.6927ZM25.9895 32.6927C26.2874 33.0921 26.5662 33.5052 26.8251 33.9308C26.9834 34.1903 27.1273 34.4601 27.2597 34.7358L25.9895 32.6927ZM28.8676 41.5547C29.0994 42.0794 29.3315 42.6028 29.5633 43.1253C30.5506 45.3516 31.5317 47.5639 32.4534 49.8057C33.201 51.6489 33.9293 53.4998 34.6384 55.3585C34.6386 55.3589 34.6388 55.3594 34.639 55.3599L35.6953 58.1544L36.7164 60.9506C36.8903 61.4706 37.0223 62.0035 37.111 62.5442L37.1146 62.5665L37.1193 62.5885C37.1375 62.6751 37.1348 62.7647 37.1111 62.8501C37.0923 62.918 37.0606 62.9822 37.0175 63.0392C37.0025 63.0215 36.9856 62.9988 36.9676 62.97C36.7469 62.5827 36.5755 62.1699 36.4572 61.7411L36.4546 61.7318L36.4519 61.7225C36.098 60.5301 35.6942 59.3573 35.2406 58.2039C34.7916 57.0502 34.295 55.9149 33.7511 54.7982L32.8521 55.2362L33.7515 54.7991C33.687 54.6665 33.6251 54.5419 33.5663 54.4236C33.3228 53.9334 33.1326 53.5507 33.0359 53.1487L33.0356 53.1475C32.774 52.0654 32.4019 51.0361 32.0257 50.0552C31.9341 49.8163 31.8428 49.5816 31.7525 49.3497C31.4655 48.6121 31.1893 47.902 30.9479 47.1725L30.9477 47.1719C30.638 46.238 30.2721 45.2875 29.9167 44.364C29.7094 43.8255 29.5057 43.2962 29.3187 42.7847L29.3183 42.7839L28.8676 41.5547Z" fill="#FF4500"/>
<path d="M25.5419 32.1203L25.4038 32.2335L25.4024 32.2346L24.9762 32.5839C24.9675 32.476 24.9602 32.368 24.9541 32.2598C24.9277 31.8103 25.2136 31.7215 25.5419 32.1203ZM25.5419 32.1203L25.4044 32.2335L25.4031 32.2346L24.9763 32.5859C24.9834 32.6738 24.9913 32.7617 25.0001 32.8494C25.096 32.8703 25.2218 32.8776 25.3678 32.8394C25.6058 32.7773 25.7581 32.6319 25.8448 32.5017C25.7725 32.4077 25.6991 32.3145 25.6247 32.2221C25.6243 32.2216 25.6239 32.2211 25.6235 32.2206C25.5964 32.1871 25.5692 32.1536 25.5419 32.1203ZM25.9895 32.6927C26.0183 32.9954 26.058 33.2971 26.1086 33.5971C26.1532 33.8238 26.2048 34.0491 26.2633 34.2726C26.2634 34.2729 26.2635 34.2731 26.2635 34.2734C26.3279 34.519 26.4006 34.7625 26.4816 35.0035L25.9895 32.6927ZM25.9895 32.6927C26.2874 33.0921 26.5662 33.5052 26.8251 33.9308C26.9834 34.1903 27.1273 34.4601 27.2597 34.7358L25.9895 32.6927ZM28.8676 41.5547C29.0994 42.0794 29.3315 42.6028 29.5633 43.1253C30.5506 45.3516 31.5317 47.5639 32.4534 49.8057C33.201 51.6489 33.9293 53.4998 34.6384 55.3585C34.6386 55.3589 34.6388 55.3594 34.639 55.3599L35.6953 58.1544L36.7164 60.9506C36.8903 61.4706 37.0223 62.0035 37.111 62.5442L37.1146 62.5665L37.1193 62.5885C37.1375 62.6751 37.1348 62.7647 37.1111 62.8501C37.0923 62.918 37.0606 62.9822 37.0175 63.0392C37.0025 63.0215 36.9856 62.9988 36.9676 62.97C36.7469 62.5827 36.5755 62.1699 36.4572 61.7411L36.4546 61.7318L36.4519 61.7225C36.098 60.5301 35.6942 59.3573 35.2406 58.2039C34.7916 57.0502 34.295 55.9149 33.7511 54.7982L32.8521 55.2362L33.7515 54.7991C33.687 54.6665 33.6251 54.5419 33.5663 54.4236C33.3228 53.9334 33.1326 53.5507 33.0359 53.1487L33.0356 53.1475C32.774 52.0654 32.4019 51.0361 32.0257 50.0552C31.9341 49.8163 31.8428 49.5816 31.7525 49.3497C31.4655 48.6121 31.1893 47.902 30.9479 47.1725L30.9477 47.1719C30.638 46.238 30.2721 45.2875 29.9167 44.364C29.7094 43.8255 29.5057 43.2962 29.3187 42.7847L29.3183 42.7839L28.8676 41.5547Z" fill="black" fill-opacity="0.2"/>
<path d="M25.5419 32.1203L25.4038 32.2335L25.4024 32.2346L24.9762 32.5839C24.9675 32.476 24.9602 32.368 24.9541 32.2598C24.9277 31.8103 25.2136 31.7215 25.5419 32.1203ZM25.5419 32.1203L25.4044 32.2335L25.4031 32.2346L24.9763 32.5859C24.9834 32.6738 24.9913 32.7617 25.0001 32.8494C25.096 32.8703 25.2218 32.8776 25.3678 32.8394C25.6058 32.7773 25.7581 32.6319 25.8448 32.5017C25.7725 32.4077 25.6991 32.3145 25.6247 32.2221C25.6243 32.2216 25.6239 32.2211 25.6235 32.2206C25.5964 32.1871 25.5692 32.1536 25.5419 32.1203ZM25.9895 32.6927C26.0183 32.9954 26.058 33.2971 26.1086 33.5971C26.1532 33.8238 26.2048 34.0491 26.2633 34.2726C26.2634 34.2729 26.2635 34.2731 26.2635 34.2734C26.3279 34.519 26.4006 34.7625 26.4816 35.0035L25.9895 32.6927ZM25.9895 32.6927C26.2874 33.0921 26.5662 33.5052 26.8251 33.9308C26.9834 34.1903 27.1273 34.4601 27.2597 34.7358L25.9895 32.6927ZM28.8676 41.5547C29.0994 42.0794 29.3315 42.6028 29.5633 43.1253C30.5506 45.3516 31.5317 47.5639 32.4534 49.8057C33.201 51.6489 33.9293 53.4998 34.6384 55.3585C34.6386 55.3589 34.6388 55.3594 34.639 55.3599L35.6953 58.1544L36.7164 60.9506C36.8903 61.4706 37.0223 62.0035 37.111 62.5442L37.1146 62.5665L37.1193 62.5885C37.1375 62.6751 37.1348 62.7647 37.1111 62.8501C37.0923 62.918 37.0606 62.9822 37.0175 63.0392C37.0025 63.0215 36.9856 62.9988 36.9676 62.97C36.7469 62.5827 36.5755 62.1699 36.4572 61.7411L36.4546 61.7318L36.4519 61.7225C36.098 60.5301 35.6942 59.3573 35.2406 58.2039C34.7916 57.0502 34.295 55.9149 33.7511 54.7982L32.8521 55.2362L33.7515 54.7991C33.687 54.6665 33.6251 54.5419 33.5663 54.4236C33.3228 53.9334 33.1326 53.5507 33.0359 53.1487L33.0356 53.1475C32.774 52.0654 32.4019 51.0361 32.0257 50.0552C31.9341 49.8163 31.8428 49.5816 31.7525 49.3497C31.4655 48.6121 31.1893 47.902 30.9479 47.1725L30.9477 47.1719C30.638 46.238 30.2721 45.2875 29.9167 44.364C29.7094 43.8255 29.5057 43.2962 29.3187 42.7847L29.3183 42.7839L28.8676 41.5547Z" stroke="#FF4500" stroke-width="2"/>
<path d="M59.6263 36.5394C59.5564 37.1175 59.4888 37.6967 59.4225 38.2769C59.4102 38.3885 59.3985 38.5003 59.3874 38.6123L60.3155 38.6482L59.3868 38.6177C59.3367 39.1217 59.297 39.6303 59.2566 40.151M59.6263 36.5394L59.399 36.5275C59.3704 37.1078 59.3478 37.6874 59.3279 38.2645L58.4288 38.1653L59.3277 38.268C59.3238 38.3829 59.3199 38.4977 59.3162 38.6124L59.2566 40.151M59.6263 36.5394L60.3979 36.5756L59.6266 36.5375M59.2566 40.151L59.2361 40.6812L59.236 40.6834L59.0847 44.823M59.2566 40.151C59.256 40.1586 59.2554 40.1662 59.2548 40.1739L59.2499 40.2368C59.1984 40.9001 59.1446 41.5827 59.0659 42.2656M59.0847 44.823L58.0724 42.1514M59.0847 44.823L60.0839 44.862L59.0846 44.8255L58.8856 49.9224L58.8856 49.9224L58.8854 49.928L58.715 55.0149M59.0847 44.823L58.5721 56.7041C58.5701 56.6917 58.5681 56.6793 58.5662 56.6668C58.5545 56.5906 58.5449 56.5142 58.5373 56.4375C58.5359 56.4234 58.5346 56.4092 58.5333 56.395C58.5328 56.3896 58.5324 56.3841 58.5319 56.3786M59.0659 42.2656C59.0659 42.2654 59.0659 42.2653 59.0659 42.2652L58.0724 42.1514M59.0659 42.2656C59.0659 42.2657 59.0659 42.2658 59.0658 42.266L58.0724 42.1514M59.0659 42.2656C58.985 42.9721 58.9478 43.6794 58.9087 44.4224C58.9005 44.5766 58.8923 44.7323 58.8836 44.8898C58.8345 45.7807 58.7702 46.7159 58.6069 47.6565M58.0724 42.1514C57.9877 42.8915 57.9486 43.6352 57.9095 44.3791C57.8544 45.4268 57.7993 46.4748 57.6168 47.5132M58.6069 47.6565C58.6079 47.6475 58.6089 47.6385 58.61 47.6295L57.6168 47.5132M58.6069 47.6565C58.5514 48.148 58.5516 48.6441 58.6074 49.1356L58.6108 49.166L58.6124 49.1965C58.7232 51.3245 58.6983 53.4574 58.5377 55.5823L58.5369 55.5923L58.536 55.6023C58.5112 55.8607 58.5099 56.1205 58.5319 56.3786M58.6069 47.6565C58.6052 47.6665 58.6034 47.6764 58.6017 47.6864L57.6168 47.5132M57.6168 47.5132L58.5319 56.3786M58.5319 56.3786C58.5308 56.3838 58.5297 56.3889 58.5287 56.3941L58.5244 56.4144L58.521 56.4348C58.512 56.4891 58.4903 56.5411 58.4569 56.5867C58.4234 56.6323 58.3791 56.6703 58.327 56.697L58.3174 56.7019L58.3079 56.707C58.3083 56.7068 58.3153 56.7033 58.3284 56.6998C58.3416 56.6963 58.361 56.6928 58.3862 56.6925C58.4215 56.6922 58.4573 56.6986 58.4905 56.7104L58.3476 56.7373L58.3264 56.7413L57.5876 56.8801L58.3346 56.7565L58.3556 56.753L58.5319 56.3786ZM58.5319 56.3786C58.6251 55.9288 58.6862 55.4731 58.715 55.0149M58.715 55.0149L58.7145 55.0291L59.7139 55.0626L58.7158 55.0014C58.7155 55.0059 58.7153 55.0104 58.715 55.0149ZM58.5977 56.7825C58.5976 56.7826 58.5968 56.7815 58.5953 56.7788C58.597 56.7811 58.5977 56.7824 58.5977 56.7825Z" fill="#FF4500"/>
<path d="M59.6263 36.5394C59.5564 37.1175 59.4888 37.6967 59.4225 38.2769C59.4102 38.3885 59.3985 38.5003 59.3874 38.6123L60.3155 38.6482L59.3868 38.6177C59.3367 39.1217 59.297 39.6303 59.2566 40.151M59.6263 36.5394L59.399 36.5275C59.3704 37.1078 59.3478 37.6874 59.3279 38.2645L58.4288 38.1653L59.3277 38.268C59.3238 38.3829 59.3199 38.4977 59.3162 38.6124L59.2566 40.151M59.6263 36.5394L60.3979 36.5756L59.6266 36.5375M59.2566 40.151L59.2361 40.6812L59.236 40.6834L59.0847 44.823M59.2566 40.151C59.256 40.1586 59.2554 40.1662 59.2548 40.1739L59.2499 40.2368C59.1984 40.9001 59.1446 41.5827 59.0659 42.2656M59.0847 44.823L58.0724 42.1514M59.0847 44.823L60.0839 44.862L59.0846 44.8255L58.8856 49.9224L58.8856 49.9224L58.8854 49.928L58.715 55.0149M59.0847 44.823L58.5721 56.7041C58.5701 56.6917 58.5681 56.6793 58.5662 56.6668C58.5545 56.5906 58.5449 56.5142 58.5373 56.4375C58.5359 56.4234 58.5346 56.4092 58.5333 56.395C58.5328 56.3896 58.5324 56.3841 58.5319 56.3786M59.0659 42.2656C59.0659 42.2654 59.0659 42.2653 59.0659 42.2652L58.0724 42.1514M59.0659 42.2656C59.0659 42.2657 59.0659 42.2658 59.0658 42.266L58.0724 42.1514M59.0659 42.2656C58.985 42.9721 58.9478 43.6794 58.9087 44.4224C58.9005 44.5766 58.8923 44.7323 58.8836 44.8898C58.8345 45.7807 58.7702 46.7159 58.6069 47.6565M58.0724 42.1514C57.9877 42.8915 57.9486 43.6352 57.9095 44.3791C57.8544 45.4268 57.7993 46.4748 57.6168 47.5132M58.6069 47.6565C58.6079 47.6475 58.6089 47.6385 58.61 47.6295L57.6168 47.5132M58.6069 47.6565C58.5514 48.148 58.5516 48.6441 58.6074 49.1356L58.6108 49.166L58.6124 49.1965C58.7232 51.3245 58.6983 53.4574 58.5377 55.5823L58.5369 55.5923L58.536 55.6023C58.5112 55.8607 58.5099 56.1205 58.5319 56.3786M58.6069 47.6565C58.6052 47.6665 58.6034 47.6764 58.6017 47.6864L57.6168 47.5132M57.6168 47.5132L58.5319 56.3786M58.5319 56.3786C58.5308 56.3838 58.5297 56.3889 58.5287 56.3941L58.5244 56.4144L58.521 56.4348C58.512 56.4891 58.4903 56.5411 58.4569 56.5867C58.4234 56.6323 58.3791 56.6703 58.327 56.697L58.3174 56.7019L58.3079 56.707C58.3083 56.7068 58.3153 56.7033 58.3284 56.6998C58.3416 56.6963 58.361 56.6928 58.3862 56.6925C58.4215 56.6922 58.4573 56.6986 58.4905 56.7104L58.3476 56.7373L58.3264 56.7413L57.5876 56.8801L58.3346 56.7565L58.3556 56.753L58.5319 56.3786ZM58.5319 56.3786C58.6251 55.9288 58.6862 55.4731 58.715 55.0149M58.715 55.0149L58.7145 55.0291L59.7139 55.0626L58.7158 55.0014C58.7155 55.0059 58.7153 55.0104 58.715 55.0149ZM58.5977 56.7825C58.5976 56.7826 58.5968 56.7815 58.5953 56.7788C58.597 56.7811 58.5977 56.7824 58.5977 56.7825Z" fill="black" fill-opacity="0.2"/>
<path d="M59.6263 36.5394C59.5564 37.1175 59.4888 37.6967 59.4225 38.2769C59.4102 38.3885 59.3985 38.5003 59.3874 38.6123L60.3155 38.6482L59.3868 38.6177C59.3367 39.1217 59.297 39.6303 59.2566 40.151M59.6263 36.5394L59.399 36.5275C59.3704 37.1078 59.3478 37.6874 59.3279 38.2645L58.4288 38.1653L59.3277 38.268C59.3238 38.3829 59.3199 38.4977 59.3162 38.6124L59.2566 40.151M59.6263 36.5394L60.3979 36.5756L59.6266 36.5375M59.2566 40.151L59.2361 40.6812L59.236 40.6834L59.0847 44.823M59.2566 40.151C59.256 40.1586 59.2554 40.1662 59.2548 40.1739L59.2499 40.2368C59.1984 40.9001 59.1446 41.5827 59.0659 42.2656M59.0847 44.823L58.0724 42.1514M59.0847 44.823L60.0839 44.862L59.0846 44.8255L58.8856 49.9224L58.8856 49.9224L58.8854 49.928L58.715 55.0149M59.0847 44.823L58.5721 56.7041C58.5701 56.6917 58.5681 56.6793 58.5662 56.6668C58.5545 56.5906 58.5449 56.5142 58.5373 56.4375C58.5359 56.4234 58.5346 56.4092 58.5333 56.395C58.5328 56.3896 58.5324 56.3841 58.5319 56.3786M59.0659 42.2656C59.0659 42.2654 59.0659 42.2653 59.0659 42.2652L58.0724 42.1514M59.0659 42.2656C59.0659 42.2657 59.0659 42.2658 59.0658 42.266L58.0724 42.1514M59.0659 42.2656C58.985 42.9721 58.9478 43.6794 58.9087 44.4224C58.9005 44.5766 58.8923 44.7323 58.8836 44.8898C58.8345 45.7807 58.7702 46.7159 58.6069 47.6565M58.0724 42.1514C57.9877 42.8915 57.9486 43.6352 57.9095 44.3791C57.8544 45.4268 57.7993 46.4748 57.6168 47.5132M58.6069 47.6565C58.6079 47.6475 58.6089 47.6385 58.61 47.6295L57.6168 47.5132M58.6069 47.6565C58.5514 48.148 58.5516 48.6441 58.6074 49.1356L58.6108 49.166L58.6124 49.1965C58.7232 51.3245 58.6983 53.4574 58.5377 55.5823L58.5369 55.5923L58.536 55.6023C58.5112 55.8607 58.5099 56.1205 58.5319 56.3786M58.6069 47.6565C58.6052 47.6665 58.6034 47.6764 58.6017 47.6864L57.6168 47.5132M57.6168 47.5132L58.5319 56.3786M58.5319 56.3786C58.5308 56.3838 58.5297 56.3889 58.5287 56.3941L58.5244 56.4144L58.521 56.4348C58.512 56.4891 58.4903 56.5411 58.4569 56.5867C58.4234 56.6323 58.3791 56.6703 58.327 56.697L58.3174 56.7019L58.3079 56.707C58.3083 56.7068 58.3153 56.7033 58.3284 56.6998C58.3416 56.6963 58.361 56.6928 58.3862 56.6925C58.4215 56.6922 58.4573 56.6986 58.4905 56.7104L58.3476 56.7373L58.3264 56.7413L57.5876 56.8801L58.3346 56.7565L58.3556 56.753L58.5319 56.3786ZM58.5319 56.3786C58.6251 55.9288 58.6862 55.4731 58.715 55.0149M58.715 55.0149L58.7145 55.0291L59.7139 55.0626L58.7158 55.0014C58.7155 55.0059 58.7153 55.0104 58.715 55.0149ZM58.5977 56.7825C58.5976 56.7826 58.5968 56.7815 58.5953 56.7788C58.597 56.7811 58.5977 56.7824 58.5977 56.7825Z" stroke="#FF4500" stroke-width="2"/>
<path d="M89.6879 43.9779L89.6869 43.9789L89.6879 43.9779ZM89.6879 43.9779L89.9691 43.6827L89.6879 43.9779ZM88.2628 45.6241C88.2746 45.6111 88.2865 45.5983 88.2984 45.5855C88.1668 45.7814 88.0267 45.9717 87.8783 46.1558L87.2998 46.8738L87.3139 46.8872C86.9746 47.2895 86.6341 47.6911 86.2923 48.0918C85.9631 48.4469 85.6551 48.8209 85.3699 49.2118L85.3636 49.2206L85.3574 49.2295C84.6629 50.2261 83.9915 51.2368 83.3278 52.2362C82.664 53.2328 81.9968 54.2207 81.3154 55.1953L81.3141 55.1972C80.6245 56.1883 79.9267 57.1728 79.226 58.1613C79.0728 58.3775 78.9195 58.5938 78.7661 58.8104C78.7655 58.8112 78.765 58.8119 78.7645 58.8127L76.198 62.3942C75.9721 62.6824 75.7119 62.9429 75.4229 63.1699L75.4085 63.1813L75.4029 63.186C75.3963 63.1878 75.3839 63.1902 75.3637 63.1919C75.2947 63.1977 75.1722 63.1893 74.9879 63.1373L74.9878 63.1372C74.8029 63.085 74.6819 62.9869 74.6285 62.9156C74.6239 62.9094 74.62 62.9039 74.6169 62.8991C74.7046 62.6798 74.8331 62.478 74.9964 62.3043L75.0084 62.2915L75.0199 62.2784C76.2718 60.85 77.3499 59.2802 78.2319 57.6015C78.2837 57.5039 78.3297 57.4156 78.3715 57.3354C78.5672 56.9599 78.67 56.7628 78.8342 56.6166L78.8342 56.6166L78.8373 56.6138C79.5043 56.0152 80.0401 55.3421 80.5179 54.7113C80.6209 54.5753 80.7204 54.4425 80.8178 54.3124C81.1875 53.8187 81.5272 53.3651 81.9117 52.9359L81.9139 52.9334C82.3188 52.4782 82.698 52.0089 83.0609 51.5556C83.102 51.5043 83.1429 51.4532 83.1836 51.4024C83.5066 50.9985 83.8175 50.6099 84.141 50.2319L84.1411 50.2318C84.8087 49.4517 85.4822 48.677 86.1616 47.9076L88.2592 45.6281L88.2592 45.6281L88.2628 45.6241ZM75.4091 63.1839C75.4092 63.1839 75.4084 63.1843 75.4064 63.185C75.4081 63.1841 75.409 63.1838 75.4091 63.1839ZM74.6035 62.8747C74.6036 62.8747 74.6041 62.8758 74.6047 62.8779C74.6037 62.8757 74.6034 62.8747 74.6035 62.8747Z" fill="#FF4500"/>
<path d="M89.6879 43.9779L89.6869 43.9789L89.6879 43.9779ZM89.6879 43.9779L89.9691 43.6827L89.6879 43.9779ZM88.2628 45.6241C88.2746 45.6111 88.2865 45.5983 88.2984 45.5855C88.1668 45.7814 88.0267 45.9717 87.8783 46.1558L87.2998 46.8738L87.3139 46.8872C86.9746 47.2895 86.6341 47.6911 86.2923 48.0918C85.9631 48.4469 85.6551 48.8209 85.3699 49.2118L85.3636 49.2206L85.3574 49.2295C84.6629 50.2261 83.9915 51.2368 83.3278 52.2362C82.664 53.2328 81.9968 54.2207 81.3154 55.1953L81.3141 55.1972C80.6245 56.1883 79.9267 57.1728 79.226 58.1613C79.0728 58.3775 78.9195 58.5938 78.7661 58.8104C78.7655 58.8112 78.765 58.8119 78.7645 58.8127L76.198 62.3942C75.9721 62.6824 75.7119 62.9429 75.4229 63.1699L75.4085 63.1813L75.4029 63.186C75.3963 63.1878 75.3839 63.1902 75.3637 63.1919C75.2947 63.1977 75.1722 63.1893 74.9879 63.1373L74.9878 63.1372C74.8029 63.085 74.6819 62.9869 74.6285 62.9156C74.6239 62.9094 74.62 62.9039 74.6169 62.8991C74.7046 62.6798 74.8331 62.478 74.9964 62.3043L75.0084 62.2915L75.0199 62.2784C76.2718 60.85 77.3499 59.2802 78.2319 57.6015C78.2837 57.5039 78.3297 57.4156 78.3715 57.3354C78.5672 56.9599 78.67 56.7628 78.8342 56.6166L78.8342 56.6166L78.8373 56.6138C79.5043 56.0152 80.0401 55.3421 80.5179 54.7113C80.6209 54.5753 80.7204 54.4425 80.8178 54.3124C81.1875 53.8187 81.5272 53.3651 81.9117 52.9359L81.9139 52.9334C82.3188 52.4782 82.698 52.0089 83.0609 51.5556C83.102 51.5043 83.1429 51.4532 83.1836 51.4024C83.5066 50.9985 83.8175 50.6099 84.141 50.2319L84.1411 50.2318C84.8087 49.4517 85.4822 48.677 86.1616 47.9076L88.2592 45.6281L88.2592 45.6281L88.2628 45.6241ZM75.4091 63.1839C75.4092 63.1839 75.4084 63.1843 75.4064 63.185C75.4081 63.1841 75.409 63.1838 75.4091 63.1839ZM74.6035 62.8747C74.6036 62.8747 74.6041 62.8758 74.6047 62.8779C74.6037 62.8757 74.6034 62.8747 74.6035 62.8747Z" fill="black" fill-opacity="0.2"/>
<path d="M89.6879 43.9779L89.6869 43.9789L89.6879 43.9779ZM89.6879 43.9779L89.9691 43.6827L89.6879 43.9779ZM88.2628 45.6241C88.2746 45.6111 88.2865 45.5983 88.2984 45.5855C88.1668 45.7814 88.0267 45.9717 87.8783 46.1558L87.2998 46.8738L87.3139 46.8872C86.9746 47.2895 86.6341 47.6911 86.2923 48.0918C85.9631 48.4469 85.6551 48.8209 85.3699 49.2118L85.3636 49.2206L85.3574 49.2295C84.6629 50.2261 83.9915 51.2368 83.3278 52.2362C82.664 53.2328 81.9968 54.2207 81.3154 55.1953L81.3141 55.1972C80.6245 56.1883 79.9267 57.1728 79.226 58.1613C79.0728 58.3775 78.9195 58.5938 78.7661 58.8104C78.7655 58.8112 78.765 58.8119 78.7645 58.8127L76.198 62.3942C75.9721 62.6824 75.7119 62.9429 75.4229 63.1699L75.4085 63.1813L75.4029 63.186C75.3963 63.1878 75.3839 63.1902 75.3637 63.1919C75.2947 63.1977 75.1722 63.1893 74.9879 63.1373L74.9878 63.1372C74.8029 63.085 74.6819 62.9869 74.6285 62.9156C74.6239 62.9094 74.62 62.9039 74.6169 62.8991C74.7046 62.6798 74.8331 62.478 74.9964 62.3043L75.0084 62.2915L75.0199 62.2784C76.2718 60.85 77.3499 59.2802 78.2319 57.6015C78.2837 57.5039 78.3297 57.4156 78.3715 57.3354C78.5672 56.9599 78.67 56.7628 78.8342 56.6166L78.8342 56.6166L78.8373 56.6138C79.5043 56.0152 80.0401 55.3421 80.5179 54.7113C80.6209 54.5753 80.7204 54.4425 80.8178 54.3124C81.1875 53.8187 81.5272 53.3651 81.9117 52.9359L81.9139 52.9334C82.3188 52.4782 82.698 52.0089 83.0609 51.5556C83.102 51.5043 83.1429 51.4532 83.1836 51.4024C83.5066 50.9985 83.8175 50.6099 84.141 50.2319L84.1411 50.2318C84.8087 49.4517 85.4822 48.677 86.1616 47.9076L88.2592 45.6281L88.2592 45.6281L88.2628 45.6241ZM75.4091 63.1839C75.4092 63.1839 75.4084 63.1843 75.4064 63.185C75.4081 63.1841 75.409 63.1838 75.4091 63.1839ZM74.6035 62.8747C74.6036 62.8747 74.6041 62.8758 74.6047 62.8779C74.6037 62.8757 74.6034 62.8747 74.6035 62.8747Z" stroke="#FF4500" stroke-width="2"/>
<mask id="path-4-inside-1_1747_13674" fill="white">
<path d="M94.8567 71.3813C94.6492 71.4777 94.4455 71.5816 94.2317 71.6656L93.5891 71.9155C93.3598 71.998 93.1378 72.0995 92.9256 72.2189C92.3712 72.5575 91.828 72.9181 91.2685 73.2463C90.7125 73.5812 90.1546 73.9128 89.5861 74.2233C88.8864 74.6066 88.1805 74.9776 87.4627 75.325L85.3095 76.3677C85.0763 76.461 84.8275 76.5103 84.576 76.5131C84.3302 76.5302 84.0549 76.3092 83.7857 75.9751C83.3935 75.4884 83.2222 74.8463 83.4429 74.566C83.5843 74.3994 83.7754 74.2816 83.9887 74.2297C84.9299 73.9515 85.8061 73.491 86.5667 72.875C86.7807 72.7047 86.9846 72.4898 87.2586 72.4554C88.1294 72.3373 88.8078 71.8224 89.6071 71.558C90.203 71.3655 90.7441 71.0557 91.3331 70.8463C92.3813 70.4682 93.4172 70.0668 94.4816 69.7219C94.9198 69.5726 95.3939 69.562 95.8385 69.6916C95.8927 69.7084 95.9426 69.7369 95.9846 69.7748C96.0265 69.8128 96.0597 69.8594 96.0816 69.9114C96.1035 69.9634 96.1136 70.0196 96.1113 70.0759C96.1091 70.1322 96.0944 70.1873 96.0684 70.2374C95.9765 70.3662 95.8795 70.4922 95.7787 70.6139C95.6822 70.7353 95.5754 70.8484 95.4595 70.9518C95.2674 71.1037 95.0616 71.2379 94.8447 71.3526L94.8567 71.3813Z"/>
</mask>
<path d="M94.8567 71.3813C94.6492 71.4777 94.4455 71.5816 94.2317 71.6656L93.5891 71.9155C93.3598 71.998 93.1378 72.0995 92.9256 72.2189C92.3712 72.5575 91.828 72.9181 91.2685 73.2463C90.7125 73.5812 90.1546 73.9128 89.5861 74.2233C88.8864 74.6066 88.1805 74.9776 87.4627 75.325L85.3095 76.3677C85.0763 76.461 84.8275 76.5103 84.576 76.5131C84.3302 76.5302 84.0549 76.3092 83.7857 75.9751C83.3935 75.4884 83.2222 74.8463 83.4429 74.566C83.5843 74.3994 83.7754 74.2816 83.9887 74.2297C84.9299 73.9515 85.8061 73.491 86.5667 72.875C86.7807 72.7047 86.9846 72.4898 87.2586 72.4554C88.1294 72.3373 88.8078 71.8224 89.6071 71.558C90.203 71.3655 90.7441 71.0557 91.3331 70.8463C92.3813 70.4682 93.4172 70.0668 94.4816 69.7219C94.9198 69.5726 95.3939 69.562 95.8385 69.6916C95.8927 69.7084 95.9426 69.7369 95.9846 69.7748C96.0265 69.8128 96.0597 69.8594 96.0816 69.9114C96.1035 69.9634 96.1136 70.0196 96.1113 70.0759C96.1091 70.1322 96.0944 70.1873 96.0684 70.2374C95.9765 70.3662 95.8795 70.4922 95.7787 70.6139C95.6822 70.7353 95.5754 70.8484 95.4595 70.9518C95.2674 71.1037 95.0616 71.2379 94.8447 71.3526L94.8567 71.3813Z" fill="#FF4500"/>
<path d="M94.8567 71.3813C94.6492 71.4777 94.4455 71.5816 94.2317 71.6656L93.5891 71.9155C93.3598 71.998 93.1378 72.0995 92.9256 72.2189C92.3712 72.5575 91.828 72.9181 91.2685 73.2463C90.7125 73.5812 90.1546 73.9128 89.5861 74.2233C88.8864 74.6066 88.1805 74.9776 87.4627 75.325L85.3095 76.3677C85.0763 76.461 84.8275 76.5103 84.576 76.5131C84.3302 76.5302 84.0549 76.3092 83.7857 75.9751C83.3935 75.4884 83.2222 74.8463 83.4429 74.566C83.5843 74.3994 83.7754 74.2816 83.9887 74.2297C84.9299 73.9515 85.8061 73.491 86.5667 72.875C86.7807 72.7047 86.9846 72.4898 87.2586 72.4554C88.1294 72.3373 88.8078 71.8224 89.6071 71.558C90.203 71.3655 90.7441 71.0557 91.3331 70.8463C92.3813 70.4682 93.4172 70.0668 94.4816 69.7219C94.9198 69.5726 95.3939 69.562 95.8385 69.6916C95.8927 69.7084 95.9426 69.7369 95.9846 69.7748C96.0265 69.8128 96.0597 69.8594 96.0816 69.9114C96.1035 69.9634 96.1136 70.0196 96.1113 70.0759C96.1091 70.1322 96.0944 70.1873 96.0684 70.2374C95.9765 70.3662 95.8795 70.4922 95.7787 70.6139C95.6822 70.7353 95.5754 70.8484 95.4595 70.9518C95.2674 71.1037 95.0616 71.2379 94.8447 71.3526L94.8567 71.3813Z" fill="black" fill-opacity="0.2"/>
<path d="M94.8567 71.3813L95.6993 73.1952L97.4445 72.3846L96.7018 70.6094L94.8567 71.3813ZM94.2317 71.6656L94.9566 73.5296L94.9629 73.5271L94.2317 71.6656ZM93.5891 71.9155L94.2665 73.7973L94.2903 73.7887L94.314 73.7795L93.5891 71.9155ZM92.9256 72.2189L91.9448 70.476L91.9137 70.4935L91.8833 70.512L92.9256 72.2189ZM91.2685 73.2463L90.2565 71.5212L90.2466 71.5271L90.2367 71.533L91.2685 73.2463ZM89.5861 74.2233L88.6275 72.468L88.6252 72.4692L89.5861 74.2233ZM87.4627 75.325L86.5914 73.5247L86.5909 73.5249L87.4627 75.325ZM85.3095 76.3677L86.0523 78.2247L86.1177 78.1985L86.1812 78.1677L85.3095 76.3677ZM84.576 76.5131L84.5538 74.5132L84.4954 74.5139L84.4371 74.5179L84.576 76.5131ZM83.7857 75.9751L82.2284 77.23L82.2284 77.2301L83.7857 75.9751ZM83.4429 74.566L81.9181 73.2718L81.8943 73.2998L81.8716 73.3287L83.4429 74.566ZM83.9887 74.2297L84.4618 76.173L84.509 76.1615L84.5556 76.1477L83.9887 74.2297ZM86.5667 72.875L85.3213 71.31L85.3145 71.3154L85.3078 71.3209L86.5667 72.875ZM87.2586 72.4554L87.5073 74.4399L87.5174 74.4386L87.5275 74.4373L87.2586 72.4554ZM89.6071 71.558L88.9921 69.6549L88.979 69.6592L89.6071 71.558ZM91.3331 70.8463L92.0031 72.7308L92.0118 72.7277L91.3331 70.8463ZM94.4816 69.7219L95.098 71.6245L95.1125 71.6199L95.1268 71.615L94.4816 69.7219ZM95.8385 69.6916L96.4327 67.7819L96.4155 67.7765L96.3983 67.7715L95.8385 69.6916ZM96.0684 70.2374L97.6967 71.3987L97.7783 71.2842L97.8431 71.1595L96.0684 70.2374ZM95.7787 70.6139L94.2391 69.3372L94.2256 69.3535L94.2125 69.37L95.7787 70.6139ZM95.4595 70.9518L96.7001 72.5205L96.7466 72.4837L96.7909 72.4442L95.4595 70.9518ZM94.8447 71.3526L93.9096 69.5847L92.2945 70.439L92.9997 72.1245L94.8447 71.3526ZM94.0142 69.5675C93.7181 69.705 93.6395 69.7494 93.5004 69.8041L94.9629 73.5271C95.2515 73.4138 95.5803 73.2505 95.6993 73.1952L94.0142 69.5675ZM93.5068 69.8016L92.8642 70.0515L94.314 73.7795L94.9566 73.5296L93.5068 69.8016ZM92.9117 70.0337C92.5776 70.1539 92.2542 70.3019 91.9448 70.476L93.9065 73.9619C94.0215 73.8972 94.1419 73.8421 94.2665 73.7973L92.9117 70.0337ZM91.8833 70.512C91.2156 70.9198 90.8231 71.1889 90.2565 71.5212L92.2805 74.9714C92.8329 74.6473 93.5269 74.1952 93.968 73.9258L91.8833 70.512ZM90.2367 71.533C89.684 71.8659 89.1566 72.179 88.6275 72.468L90.5447 75.9786C91.1526 75.6466 91.741 75.2965 92.3004 74.9596L90.2367 71.533ZM88.6252 72.4692C87.9449 72.8419 87.2702 73.1962 86.5914 73.5247L88.3339 77.1252C89.0908 76.7589 89.8278 76.3713 90.547 75.9773L88.6252 72.4692ZM86.5909 73.5249L84.4378 74.5677L86.1812 78.1677L88.3344 77.125L86.5909 73.5249ZM84.5667 74.5107C84.5631 74.5122 84.5587 74.5132 84.5538 74.5132L84.5983 78.513C85.0964 78.5074 85.5894 78.4098 86.0523 78.2247L84.5667 74.5107ZM84.4371 74.5179C84.9657 74.4811 85.2959 74.7083 85.3499 74.7468C85.4226 74.7986 85.4174 74.8125 85.343 74.7202L82.2284 77.2301C82.4232 77.4718 82.6902 77.7633 83.0293 78.0048C83.3498 78.2331 83.9406 78.5622 84.715 78.5083L84.4371 74.5179ZM85.343 74.7202C85.3125 74.6823 85.3123 74.6584 85.3244 74.7068C85.331 74.7331 85.3549 74.8366 85.3414 75.0004C85.3282 75.1602 85.269 75.4797 85.0142 75.8033L81.8716 73.3287C81.1736 74.215 81.3343 75.2398 81.4445 75.6794C81.5852 76.2407 81.8667 76.7812 82.2284 77.23L85.343 74.7202ZM84.9677 75.8602C84.8344 76.0171 84.6568 76.1255 84.4618 76.173L83.5156 72.2865C82.894 72.4378 82.3341 72.7817 81.9181 73.2718L84.9677 75.8602ZM84.5556 76.1477C85.7484 75.7951 86.86 75.2112 87.8255 74.4291L85.3078 71.3209C84.7523 71.7709 84.1113 72.1079 83.4217 72.3118L84.5556 76.1477ZM87.812 74.4399C87.8574 74.4038 87.8983 74.3699 87.9297 74.3436C87.9454 74.3305 87.961 74.3173 87.9735 74.3068C87.9869 74.2956 87.9976 74.2866 88.0078 74.2781C88.0521 74.2411 88.0569 74.2386 88.0461 74.2463C88.0262 74.2604 87.8307 74.3994 87.5073 74.4399L87.0098 70.4709C86.4125 70.5458 85.9781 70.8094 85.7342 70.9821C85.6114 71.0691 85.508 71.1544 85.4453 71.2067C85.363 71.2754 85.3508 71.2866 85.3213 71.31L87.812 74.4399ZM87.5275 74.4373C88.272 74.3362 88.8827 74.0711 89.3052 73.874C89.8012 73.6426 89.9834 73.5401 90.2352 73.4568L88.979 69.6592C88.4315 69.8403 87.8748 70.1274 87.6141 70.2491C87.2798 70.4051 87.1159 70.4565 86.9896 70.4736L87.5275 74.4373ZM90.2221 73.4611C90.6379 73.3267 91.0142 73.1581 91.2942 73.032C91.6035 72.8926 91.8026 72.8021 92.0031 72.7308L90.6631 68.9619C90.2747 69.1 89.9087 69.269 89.6512 69.385C89.3644 69.5142 89.1722 69.5967 88.9921 69.6549L90.2221 73.4611ZM92.0118 72.7277C93.1196 72.3281 94.0744 71.9562 95.098 71.6245L93.8651 67.8193C92.76 68.1774 91.643 68.6084 90.6545 68.965L92.0118 72.7277ZM95.1268 71.615C95.1756 71.5984 95.229 71.5971 95.2787 71.6116L96.3983 67.7715C95.5589 67.5268 94.6639 67.5468 93.8363 67.8289L95.1268 71.615ZM95.2443 71.6012C95.0222 71.5321 94.8168 71.4154 94.6428 71.258L97.3263 68.2917C97.0684 68.0584 96.7633 67.8847 96.4327 67.7819L95.2443 71.6012ZM94.6428 71.258C94.4689 71.1006 94.3304 70.9062 94.2384 70.6878L97.9247 69.1351C97.7889 68.8127 97.5842 68.525 97.3263 68.2917L94.6428 71.258ZM94.2384 70.6878C94.1464 70.4693 94.1034 70.2328 94.113 69.9951L98.1097 70.1566C98.1239 69.8063 98.0606 69.4576 97.9247 69.1351L94.2384 70.6878ZM94.113 69.9951C94.1226 69.7575 94.1845 69.5254 94.2936 69.3153L97.8431 71.1595C98.0043 70.8492 98.0956 70.5069 98.1097 70.1566L94.113 69.9951ZM94.4401 69.0761C94.3764 69.1654 94.309 69.253 94.2391 69.3372L97.3182 71.8905C97.4501 71.7315 97.5767 71.567 97.6967 71.3987L94.4401 69.0761ZM94.2125 69.37C94.1872 69.4019 94.159 69.4318 94.1281 69.4593L96.7909 72.4442C96.9919 72.265 97.1772 72.0688 97.3448 71.8578L94.2125 69.37ZM94.2189 69.383C94.1225 69.4593 94.0189 69.5268 93.9096 69.5847L95.7798 73.1205C96.1042 72.949 96.4123 72.7481 96.7001 72.5205L94.2189 69.383ZM92.9997 72.1245L93.0117 72.1533L96.7018 70.6094L96.6897 70.5807L92.9997 72.1245Z" fill="#FF4500" mask="url(#path-4-inside-1_1747_13674)"/>
<path d="M20.1161 70.9915C19.3288 70.4603 18.5191 69.9624 17.6958 69.4894C17.0222 69.1119 16.3356 68.7606 15.636 68.4356C14.9348 68.1134 14.2285 67.8049 13.5202 67.5047L20.1161 70.9915ZM20.1161 70.9915C20.9034 71.5224 21.6758 72.0743 22.4332 72.6472L20.1161 70.9915ZM13.6796 68.6603C14.1951 68.8827 14.7077 69.1096 15.2165 69.3434C15.891 69.6568 16.5529 69.9953 17.2022 70.3592C18.0069 70.8216 18.7942 71.3059 19.5567 71.8204L19.557 71.8207C20.3223 72.3366 21.073 72.8728 21.8094 73.4292C21.9122 73.517 22.0033 73.6169 22.0805 73.7266C22.0688 73.7655 22.051 73.8142 22.0253 73.8728C21.9987 73.9328 21.9642 73.9894 21.9259 74.0382C21.924 74.0406 21.9222 74.0429 21.9203 74.0452C21.9202 74.0451 21.9201 74.045 21.9199 74.0448L21.9065 74.0302L21.8925 74.016C21.0154 73.1316 19.9704 72.429 18.8183 71.9487C18.7499 71.9194 18.6783 71.8908 18.6212 71.868C18.6078 71.8627 18.5951 71.8576 18.5835 71.853C18.5131 71.8247 18.4633 71.8039 18.4212 71.784C18.3793 71.7643 18.3582 71.7513 18.3501 71.746C17.9262 71.2802 17.4411 70.9541 17.0141 70.6933C16.861 70.5997 16.7221 70.518 16.5925 70.4417C16.3247 70.2842 16.0963 70.1498 15.862 69.9814L15.862 69.9814L15.857 69.9778C15.5411 69.7537 15.2133 69.5467 14.8751 69.3575C14.7214 69.2674 14.5891 69.1922 14.4629 69.1205C14.2997 69.0278 14.1469 68.941 13.9714 68.8353L13.9704 68.8347C13.8737 68.7766 13.7767 68.7184 13.6796 68.6603Z" fill="#FF4500"/>
<path d="M20.1161 70.9915C19.3288 70.4603 18.5191 69.9624 17.6958 69.4894C17.0222 69.1119 16.3356 68.7606 15.636 68.4356C14.9348 68.1134 14.2285 67.8049 13.5202 67.5047L20.1161 70.9915ZM20.1161 70.9915C20.9034 71.5224 21.6758 72.0743 22.4332 72.6472L20.1161 70.9915ZM13.6796 68.6603C14.1951 68.8827 14.7077 69.1096 15.2165 69.3434C15.891 69.6568 16.5529 69.9953 17.2022 70.3592C18.0069 70.8216 18.7942 71.3059 19.5567 71.8204L19.557 71.8207C20.3223 72.3366 21.073 72.8728 21.8094 73.4292C21.9122 73.517 22.0033 73.6169 22.0805 73.7266C22.0688 73.7655 22.051 73.8142 22.0253 73.8728C21.9987 73.9328 21.9642 73.9894 21.9259 74.0382C21.924 74.0406 21.9222 74.0429 21.9203 74.0452C21.9202 74.0451 21.9201 74.045 21.9199 74.0448L21.9065 74.0302L21.8925 74.016C21.0154 73.1316 19.9704 72.429 18.8183 71.9487C18.7499 71.9194 18.6783 71.8908 18.6212 71.868C18.6078 71.8627 18.5951 71.8576 18.5835 71.853C18.5131 71.8247 18.4633 71.8039 18.4212 71.784C18.3793 71.7643 18.3582 71.7513 18.3501 71.746C17.9262 71.2802 17.4411 70.9541 17.0141 70.6933C16.861 70.5997 16.7221 70.518 16.5925 70.4417C16.3247 70.2842 16.0963 70.1498 15.862 69.9814L15.862 69.9814L15.857 69.9778C15.5411 69.7537 15.2133 69.5467 14.8751 69.3575C14.7214 69.2674 14.5891 69.1922 14.4629 69.1205C14.2997 69.0278 14.1469 68.941 13.9714 68.8353L13.9704 68.8347C13.8737 68.7766 13.7767 68.7184 13.6796 68.6603Z" fill="black" fill-opacity="0.2"/>
<path d="M20.1161 70.9915C19.3288 70.4603 18.5191 69.9624 17.6958 69.4894C17.0222 69.1119 16.3356 68.7606 15.636 68.4356C14.9348 68.1134 14.2285 67.8049 13.5202 67.5047L20.1161 70.9915ZM20.1161 70.9915C20.9034 71.5224 21.6758 72.0743 22.4332 72.6472L20.1161 70.9915ZM13.6796 68.6603C14.1951 68.8827 14.7077 69.1096 15.2165 69.3434C15.891 69.6568 16.5529 69.9953 17.2022 70.3592C18.0069 70.8216 18.7942 71.3059 19.5567 71.8204L19.557 71.8207C20.3223 72.3366 21.073 72.8728 21.8094 73.4292C21.9122 73.517 22.0033 73.6169 22.0805 73.7266C22.0688 73.7655 22.051 73.8142 22.0253 73.8728C21.9987 73.9328 21.9642 73.9894 21.9259 74.0382C21.924 74.0406 21.9222 74.0429 21.9203 74.0452C21.9202 74.0451 21.9201 74.045 21.9199 74.0448L21.9065 74.0302L21.8925 74.016C21.0154 73.1316 19.9704 72.429 18.8183 71.9487C18.7499 71.9194 18.6783 71.8908 18.6212 71.868C18.6078 71.8627 18.5951 71.8576 18.5835 71.853C18.5131 71.8247 18.4633 71.8039 18.4212 71.784C18.3793 71.7643 18.3582 71.7513 18.3501 71.746C17.9262 71.2802 17.4411 70.9541 17.0141 70.6933C16.861 70.5997 16.7221 70.518 16.5925 70.4417C16.3247 70.2842 16.0963 70.1498 15.862 69.9814L15.862 69.9814L15.857 69.9778C15.5411 69.7537 15.2133 69.5467 14.8751 69.3575C14.7214 69.2674 14.5891 69.1922 14.4629 69.1205C14.2997 69.0278 14.1469 68.941 13.9714 68.8353L13.9704 68.8347C13.8737 68.7766 13.7767 68.7184 13.6796 68.6603Z" stroke="#FF4500" stroke-width="2"/>
</svg>
