<svg width="424" height="228" viewBox="0 0 424 228" fill="none" xmlns="http://www.w3.org/2000/svg">
<path d="M392.872 80.1543H228.032C222.783 80.1543 218.527 76.4191 218.527 71.8118V25.8723C218.527 21.265 222.783 17.5298 228.032 17.5298H246.136L240.114 -4.57764e-05L259.544 17.5298H392.872C398.121 17.5298 402.376 21.265 402.376 25.8723V71.8118C402.376 76.4191 398.121 80.1543 392.872 80.1543Z" fill="#F47458"/>
<path d="M384.843 56.7644H236.055C234.726 56.7644 233.648 57.8415 233.648 59.1703C233.648 60.4988 234.726 61.5762 236.055 61.5762H384.843C386.172 61.5762 387.25 60.4988 387.25 59.1703C387.25 57.8415 386.172 56.7644 384.843 56.7644Z" fill="#ABABAB"/>
<path d="M384.843 48.1926H236.055C234.726 48.1926 233.648 49.2699 233.648 50.5987C233.648 51.9275 234.726 53.0049 236.055 53.0049H384.843C386.172 53.0049 387.25 51.9275 387.25 50.5987C387.25 49.2697 386.172 48.1926 384.843 48.1926Z" fill="#ABABAB"/>
<path d="M348.084 38.7192H236.055C234.726 38.7192 233.648 39.7966 233.648 41.1254C233.648 42.4542 234.726 43.5312 236.055 43.5312H348.084C349.413 43.5312 350.49 42.4542 350.49 41.1254C350.49 39.7963 349.413 38.7192 348.084 38.7192Z" fill="#ABABAB"/>
<path d="M414.493 227.903H249.653C244.404 227.903 240.148 224.086 240.148 219.376V172.419C240.148 167.71 244.404 163.892 249.653 163.892H267.34L261.735 147.216L279.819 163.892H414.493C419.742 163.892 423.997 167.71 423.997 172.419V219.376C423.997 224.086 419.742 227.903 414.493 227.903Z" fill="#F47458"/>
<path d="M403.863 198.033H260.281C259.043 198.033 258.039 199.037 258.039 200.275V200.71C258.039 201.948 259.043 202.952 260.281 202.952H403.863C405.101 202.952 406.105 201.948 406.105 200.71V200.275C406.105 199.037 405.101 198.033 403.863 198.033Z" fill="#ABABAB"/>
<path d="M403.863 189.272H260.281C259.043 189.272 258.039 190.276 258.039 191.514V191.949C258.039 193.187 259.043 194.19 260.281 194.19H403.863C405.101 194.19 406.105 193.187 406.105 191.949V191.514C406.105 190.276 405.101 189.272 403.863 189.272Z" fill="#ABABAB"/>
<path d="M403.863 206.829H260.281C259.043 206.829 258.039 207.832 258.039 209.07V209.505C258.039 210.744 259.043 211.747 260.281 211.747H403.863C405.101 211.747 406.105 210.743 406.105 209.505V209.07C406.105 207.832 405.101 206.829 403.863 206.829Z" fill="#ABABAB"/>
<path d="M368.428 179.589H260.281C259.043 179.589 258.039 180.593 258.039 181.831V182.266C258.039 183.504 259.043 184.508 260.281 184.508H368.428C369.666 184.508 370.67 183.504 370.67 182.266V181.831C370.67 180.593 369.666 179.589 368.428 179.589Z" fill="#ABABAB"/>
<path d="M174.344 145.635H9.50462C4.25517 145.635 0 142.222 0 138.014V96.0456C0 91.8366 4.25542 88.4244 9.50462 88.4244H151.438L168.457 74.3968L163.182 88.4244H174.344C179.593 88.4244 183.849 91.8366 183.849 96.0456V138.014C183.849 142.222 179.593 145.635 174.344 145.635Z" fill="#F7CE83"/>
<path d="M159.625 115.74H24.2318C23.0186 115.74 22.0352 116.723 22.0352 117.936V117.939C22.0352 119.153 23.0186 120.136 24.2318 120.136H159.625C160.837 120.136 161.821 119.153 161.821 117.939V117.936C161.821 116.723 160.838 115.74 159.625 115.74Z" fill="#ABABAB"/>
<path d="M159.625 107.909H24.2318C23.0186 107.909 22.0352 108.893 22.0352 110.106V110.109C22.0352 111.322 23.0186 112.306 24.2318 112.306H159.625C160.837 112.306 161.821 111.322 161.821 110.109V110.106C161.821 108.892 160.838 107.909 159.625 107.909Z" fill="#ABABAB"/>
<path d="M159.625 123.734H24.2318C23.0186 123.734 22.0352 124.717 22.0352 125.931V125.934C22.0352 127.147 23.0186 128.13 24.2318 128.13H159.625C160.837 128.13 161.821 127.147 161.821 125.934V125.931C161.821 124.717 160.838 123.734 159.625 123.734Z" fill="#ABABAB"/>
<path d="M159.625 131.528H24.2318C23.0186 131.528 22.0352 132.511 22.0352 133.724V133.727C22.0352 134.94 23.0186 135.924 24.2318 135.924H159.625C160.837 135.924 161.821 134.94 161.821 133.727V133.724C161.821 132.511 160.838 131.528 159.625 131.528Z" fill="#ABABAB"/>
<path d="M126.172 99.2547H24.2318C23.0186 99.2547 22.0352 100.238 22.0352 101.451V101.454C22.0352 102.667 23.0186 103.65 24.2318 103.65H126.172C127.384 103.65 128.368 102.667 128.368 101.454V101.451C128.368 100.238 127.384 99.2547 126.172 99.2547Z" fill="#ABABAB"/>
</svg>
