<svg width="601" height="1269" viewBox="0 0 601 1269" fill="none" xmlns="http://www.w3.org/2000/svg">
<g opacity="0.08">
<path d="M774.837 -164.441C409.525 -284.228 66.361 -237.921 8.38078 -60.9665C-31.123 59.5547 71.8885 209.568 257.038 330.861C294.918 71.6532 408.25 -115.545 550.339 -121.961C733.709 -130.233 896.521 165.736 917.664 542.143C1129.6 549.72 1292.87 489.882 1331.25 372.8C1389.27 195.885 1140.15 -44.6546 774.837 -164.441Z" fill="#2A3362"/>
<path d="M918.485 558.229C918.25 552.855 917.943 547.482 917.674 542.147C896.526 165.741 733.759 -130.227 550.349 -121.956C408.26 -115.539 294.928 71.6204 257.048 330.871C245.336 410.996 240.852 497.966 244.911 588.649C262.227 972.706 427.045 1277.22 613.043 1268.83C799.044 1260.45 935.803 942.287 918.485 558.229Z" fill="#FF4500"/>
<path d="M550.3 -121.956C408.211 -115.539 294.879 71.6204 256.999 330.871C343.659 387.611 448.255 438.094 564.72 476.281C688.293 516.788 809.278 538.283 917.586 542.147C896.438 165.741 733.71 -130.227 550.3 -121.956Z" fill="#009E3A"/>
</g>
</svg>
