<svg width="56" height="56" viewBox="0 0 56 56" fill="none" xmlns="http://www.w3.org/2000/svg">
<rect x="0.5" y="0.5" width="55" height="55" rx="27.5" stroke="#1D1D1D" stroke-opacity="0.1"/>
<path d="M41.9467 19.9997C40.92 20.4663 39.8133 20.773 38.6667 20.9197C39.84 20.213 40.7467 19.093 41.1733 17.7463C40.0667 18.413 38.84 18.8797 37.5467 19.1463C36.4933 17.9997 35.0133 17.333 33.3333 17.333C30.2 17.333 27.64 19.893 27.64 23.053C27.64 23.5063 27.6933 23.9463 27.7867 24.3597C23.04 24.1197 18.8133 21.8397 16 18.3863C15.5067 19.2263 15.2267 20.213 15.2267 21.253C15.2267 23.2397 16.2267 24.9997 17.7733 25.9997C16.8267 25.9997 15.9467 25.733 15.1733 25.333V25.373C15.1733 28.1463 17.1467 30.4663 19.76 30.9863C18.921 31.216 18.0401 31.2479 17.1867 31.0797C17.5488 32.2163 18.2581 33.2109 19.2147 33.9236C20.1713 34.6363 21.3273 35.0313 22.52 35.053C20.4982 36.6536 17.992 37.5188 15.4133 37.5063C14.96 37.5063 14.5067 37.4797 14.0533 37.4263C16.5867 39.053 19.6 39.9997 22.8267 39.9997C33.3333 39.9997 39.1067 31.2797 39.1067 23.7197C39.1067 23.4663 39.1067 23.2263 39.0933 22.973C40.2133 22.173 41.1733 21.1597 41.9467 19.9997Z" fill="black"/>
</svg>
