<svg width="20" height="20" viewBox="0 0 20 20" fill="none" xmlns="http://www.w3.org/2000/svg">
<g id="icon / user-group">
<g id="icon">
<path fill-rule="evenodd" clip-rule="evenodd" d="M10 4.16663C8.15906 4.16663 6.66668 5.65901 6.66668 7.49996C6.66668 9.34091 8.15906 10.8333 10 10.8333C11.841 10.8333 13.3333 9.34091 13.3333 7.49996C13.3333 5.65901 11.841 4.16663 10 4.16663ZM8.33334 7.49996C8.33334 6.57949 9.07954 5.83329 10 5.83329C10.9205 5.83329 11.6667 6.57949 11.6667 7.49996C11.6667 8.42043 10.9205 9.16663 10 9.16663C9.07954 9.16663 8.33334 8.42043 8.33334 7.49996Z" fill="white"/>
<path fill-rule="evenodd" clip-rule="evenodd" d="M10 18.3333C9.05261 18.3333 7.68657 18.1094 6.64988 17.633C6.14134 17.3993 5.5957 17.0526 5.27384 16.534C5.10393 16.2603 4.99658 15.9376 5.00009 15.5784C5.00357 15.2226 5.11514 14.8852 5.29783 14.576C6.13323 13.1622 7.8663 11.6666 10 11.6666C12.1337 11.6666 13.8668 13.1622 14.7022 14.576C14.8849 14.8852 14.9964 15.2226 14.9999 15.5784C15.0034 15.9376 14.8961 16.2603 14.7262 16.534C14.4043 17.0526 13.8587 17.3993 13.3501 17.633C12.3134 18.1094 10.9474 18.3333 10 18.3333ZM6.73273 15.4239C6.6689 15.5319 6.66677 15.5855 6.66668 15.5947C6.66661 15.6007 6.6664 15.6172 6.68994 15.6552C6.75611 15.7618 6.94826 15.9359 7.34583 16.1186C8.12134 16.4749 9.24071 16.6666 10 16.6666C10.7593 16.6666 11.8787 16.4749 12.6542 16.1186C13.0518 15.9359 13.2439 15.7618 13.3101 15.6552C13.3336 15.6172 13.3334 15.6011 13.3333 15.5951C13.3333 15.5859 13.3311 15.5319 13.2673 15.4239C12.6196 14.3278 11.3529 13.3333 10 13.3333C8.64708 13.3333 7.3804 14.3278 6.73273 15.4239Z" fill="white"/>
<path fill-rule="evenodd" clip-rule="evenodd" d="M2.08334 9.99996C2.08334 8.61925 3.20263 7.49996 4.58334 7.49996C5.96406 7.49996 7.08334 8.61925 7.08334 9.99996C7.08334 11.3807 5.96406 12.5 4.58334 12.5C3.20263 12.5 2.08334 11.3807 2.08334 9.99996ZM4.58334 9.16663C4.12311 9.16663 3.75001 9.53972 3.75001 9.99996C3.75001 10.4602 4.12311 10.8333 4.58334 10.8333C5.04358 10.8333 5.41668 10.4602 5.41668 9.99996C5.41668 9.53972 5.04358 9.16663 4.58334 9.16663Z" fill="white"/>
<path d="M2.41312 16.2038C2.2085 16.616 1.70843 16.7844 1.29618 16.5797C0.883935 16.3751 0.715616 15.875 0.920234 15.4628C1.22639 14.846 1.68978 14.2267 2.27272 13.7528C2.85588 13.2788 3.60315 12.9166 4.45599 12.9166C4.91623 12.9166 5.28932 13.2897 5.28932 13.75C5.28932 14.2102 4.91623 14.5833 4.45599 14.5833C4.0885 14.5833 3.70066 14.7399 3.32401 15.0461C2.94714 15.3524 2.62604 15.7748 2.41312 16.2038Z" fill="white"/>
<path fill-rule="evenodd" clip-rule="evenodd" d="M13.1751 9.99996C13.1751 8.61925 14.2943 7.49996 15.6751 7.49996C17.0558 7.49996 18.1751 8.61925 18.1751 9.99996C18.1751 11.3807 17.0558 12.5 15.6751 12.5C14.2943 12.5 13.1751 11.3807 13.1751 9.99996ZM15.6751 9.16663C15.2148 9.16663 14.8417 9.53972 14.8417 9.99996C14.8417 10.4602 15.2148 10.8333 15.6751 10.8333C16.1353 10.8333 16.5084 10.4602 16.5084 9.99996C16.5084 9.53972 16.1353 9.16663 15.6751 9.16663Z" fill="white"/>
<path d="M19.0835 15.4628C19.2881 15.875 19.1198 16.3751 18.7075 16.5797C18.2953 16.7844 17.7952 16.616 17.5906 16.2038C17.3776 15.7748 17.0566 15.3524 16.6797 15.0461C16.303 14.7399 15.9152 14.5833 15.5477 14.5833C15.0875 14.5833 14.7144 14.2102 14.7144 13.75C14.7144 13.2897 15.0875 12.9166 15.5477 12.9166C16.4005 12.9166 17.1478 13.2788 17.731 13.7528C18.3139 14.2267 18.7773 14.846 19.0835 15.4628Z" fill="white"/>
</g>
</g>
</svg>
