<svg width="21" height="20" viewBox="0 0 21 20" fill="none" xmlns="http://www.w3.org/2000/svg">
<g id="icon / user-group">
<g id="icon">
<path fill-rule="evenodd" clip-rule="evenodd" d="M10.4999 4.16675C8.65891 4.16675 7.16653 5.65913 7.16653 7.50008C7.16653 9.34103 8.65891 10.8334 10.4999 10.8334C12.3408 10.8334 13.8332 9.34103 13.8332 7.50008C13.8332 5.65913 12.3408 4.16675 10.4999 4.16675ZM8.83319 7.50008C8.83319 6.57961 9.57938 5.83341 10.4999 5.83341C11.4203 5.83341 12.1665 6.57961 12.1665 7.50008C12.1665 8.42056 11.4203 9.16675 10.4999 9.16675C9.57938 9.16675 8.83319 8.42056 8.83319 7.50008Z" fill="#01020D"/>
<path fill-rule="evenodd" clip-rule="evenodd" d="M10.4999 18.3334C9.55245 18.3334 8.18642 18.1095 7.14973 17.6331C6.64119 17.3994 6.09554 17.0528 5.77369 16.5342C5.60378 16.2604 5.49643 15.9377 5.49994 15.5785C5.50342 15.2227 5.61499 14.8853 5.79768 14.5762C6.63308 13.1624 8.36615 11.6667 10.4999 11.6667C12.6336 11.6667 14.3666 13.1624 15.202 14.5762C15.3847 14.8853 15.4963 15.2227 15.4998 15.5785C15.5033 15.9377 15.3959 16.2604 15.226 16.5342C14.9042 17.0528 14.3585 17.3994 13.85 17.6331C12.8133 18.1095 11.4473 18.3334 10.4999 18.3334ZM7.23257 15.424C7.16875 15.532 7.16662 15.5857 7.16653 15.5948C7.16646 15.6008 7.16625 15.6174 7.18979 15.6553C7.25595 15.7619 7.44811 15.936 7.84568 16.1187C8.62119 16.4751 9.74055 16.6667 10.4999 16.6667C11.2592 16.6667 12.3785 16.4751 13.154 16.1187C13.5516 15.936 13.7438 15.7619 13.8099 15.6553C13.8335 15.6174 13.8333 15.6012 13.8332 15.5952C13.8331 15.5861 13.831 15.532 13.7671 15.424C13.1195 14.3279 11.8528 13.3334 10.4999 13.3334C9.14693 13.3334 7.88025 14.3279 7.23257 15.424Z" fill="#01020D"/>
<path fill-rule="evenodd" clip-rule="evenodd" d="M2.58319 10.0001C2.58319 8.61937 3.70248 7.50008 5.08319 7.50008C6.4639 7.50008 7.58319 8.61937 7.58319 10.0001C7.58319 11.3808 6.4639 12.5001 5.08319 12.5001C3.70248 12.5001 2.58319 11.3808 2.58319 10.0001ZM5.08319 9.16675C4.62295 9.16675 4.24986 9.53984 4.24986 10.0001C4.24986 10.4603 4.62295 10.8334 5.08319 10.8334C5.54343 10.8334 5.91653 10.4603 5.91653 10.0001C5.91653 9.53984 5.54343 9.16675 5.08319 9.16675Z" fill="#01020D"/>
<path d="M2.91297 16.2039C2.70835 16.6162 2.20828 16.7845 1.79603 16.5799C1.38378 16.3752 1.21546 15.8752 1.42008 15.4629C1.72624 14.8461 2.18963 14.2268 2.77257 13.7529C3.35573 13.2789 4.103 12.9167 4.95584 12.9167C5.41607 12.9167 5.78917 13.2898 5.78917 13.7501C5.78917 14.2103 5.41607 14.5834 4.95584 14.5834C4.58835 14.5834 4.20051 14.74 3.82386 15.0462C3.44699 15.3526 3.12589 15.7749 2.91297 16.2039Z" fill="#01020D"/>
<path fill-rule="evenodd" clip-rule="evenodd" d="M13.6749 10.0001C13.6749 8.61937 14.7942 7.50008 16.1749 7.50008C17.5556 7.50008 18.6749 8.61937 18.6749 10.0001C18.6749 11.3808 17.5556 12.5001 16.1749 12.5001C14.7942 12.5001 13.6749 11.3808 13.6749 10.0001ZM16.1749 9.16675C15.7147 9.16675 15.3416 9.53984 15.3416 10.0001C15.3416 10.4603 15.7147 10.8334 16.1749 10.8334C16.6351 10.8334 17.0082 10.4603 17.0082 10.0001C17.0082 9.53984 16.6351 9.16675 16.1749 9.16675Z" fill="#01020D"/>
<path d="M19.5833 15.4629C19.7879 15.8752 19.6196 16.3752 19.2074 16.5799C18.7951 16.7845 18.295 16.6162 18.0904 16.2039C17.8775 15.7749 17.5564 15.3526 17.1795 15.0462C16.8029 14.74 16.415 14.5834 16.0475 14.5834C15.5873 14.5834 15.2142 14.2103 15.2142 13.7501C15.2142 13.2898 15.5873 12.9167 16.0475 12.9167C16.9004 12.9167 17.6477 13.2789 18.2308 13.7529C18.8138 14.2268 19.2772 14.8461 19.5833 15.4629Z" fill="#01020D"/>
</g>
</g>
</svg>
