<svg width="144" height="48" viewBox="0 0 144 48" fill="none" xmlns="http://www.w3.org/2000/svg">
<g id="logo 3" clip-path="url(#clip0_1295_28576)">
<path id="Vector" d="M20.1551 2.45838C10.6526 -0.657515 1.72618 0.547013 0.218001 5.14996C-0.80957 8.28496 1.86996 12.1871 6.68607 15.3422C7.6714 8.59966 10.6194 3.73027 14.3154 3.56337C19.0852 3.3482 23.3203 11.0469 23.8703 20.838C29.3831 21.0351 33.6301 19.4786 34.6285 16.4331C36.1377 11.8312 29.6576 5.57427 20.1551 2.45838Z" fill="white"/>
<path id="Vector_2" d="M23.8915 21.2569C23.8854 21.1172 23.8774 20.9774 23.8704 20.8386C23.3203 11.0476 19.0864 3.34882 14.3156 3.56397C10.6195 3.73088 7.67155 8.59927 6.68621 15.3429C6.38155 17.4271 6.26492 19.6894 6.37049 22.0482C6.82093 32.0383 11.1082 39.9593 15.9463 39.7411C20.7846 39.523 24.342 31.247 23.8915 21.2569Z" fill="#FF4500"/>
<path id="Vector_3" d="M14.3144 3.56397C10.6183 3.73088 7.67034 8.59927 6.685 15.3429C8.93921 16.8188 11.66 18.132 14.6894 19.1253C17.9038 20.179 21.0509 20.7381 23.8682 20.8386C23.3181 11.0476 19.0852 3.34882 14.3144 3.56397Z" fill="#009E3A"/>
<path id="Vector_4" d="M57.7913 30.1724L59.2864 32.9434C59.1818 33.048 59.0371 33.1716 58.85 33.3175C58.663 33.4633 58.2477 33.6553 57.6042 33.8935C56.9607 34.1319 56.2861 34.2515 55.5804 34.2515C54.0439 34.2515 52.7309 33.774 51.641 32.8188C50.5511 31.8646 50.0061 30.6189 50.0061 29.0825V21.8583H46.8922V18.8068H48.4487C48.9886 18.8068 49.4189 18.6409 49.7407 18.3081C50.0624 17.9763 50.2233 17.5299 50.2233 16.9689V13.855H53.9907V18.5263H57.914V21.8583H53.9907V28.8332C53.9907 29.352 54.1827 29.7933 54.5668 30.1564C54.9508 30.5203 55.4234 30.7012 55.9836 30.7012C56.2529 30.7012 56.5385 30.655 56.8401 30.5616C57.1408 30.4681 57.3741 30.3805 57.5409 30.2972L57.7913 30.1724Z" fill="white"/>
<path id="Vector_5" d="M72.0526 18.5264H76.2564V34.0959H73.1425L72.5825 32.3524H72.1773C71.1598 33.6192 69.6446 34.2516 67.6307 34.2516C65.6169 34.2516 64.0704 33.5981 62.9905 32.29C61.9107 30.982 61.3718 29.2073 61.3718 26.9652V18.5264H65.6067V26.0311C65.6067 26.6535 65.6329 27.1783 65.6842 27.6036C65.7354 28.029 65.8451 28.5015 66.0109 29.0204C66.1769 29.5392 66.4675 29.9394 66.8826 30.2188C67.2979 30.4994 67.8167 30.6391 68.4401 30.6391C68.8342 30.6391 69.2183 30.5767 69.5924 30.4521C69.9664 30.3274 70.3495 30.1042 70.7446 29.7824C71.1387 29.4607 71.4554 28.9631 71.6947 28.2873C71.9331 27.6127 72.0526 26.7983 72.0526 25.8431V18.5264Z" fill="white"/>
<path id="Vector_6" d="M82.1423 16.7825C81.4155 16.7825 80.788 16.5232 80.2581 16.0044C79.7292 15.4855 79.4637 14.8732 79.4637 14.1674C79.4637 13.4203 79.7232 12.7919 80.2421 12.2832C80.7609 11.7744 81.3942 11.52 82.1413 11.52C82.8883 11.52 83.4856 11.7744 83.9944 12.2832C84.5032 12.7919 84.7576 13.4193 84.7576 14.1674C84.7576 14.8732 84.4981 15.4855 83.9792 16.0044C83.4605 16.5232 82.8472 16.7825 82.1423 16.7825ZM84.1352 18.526V34.0954H80.1496V18.526H84.1352Z" fill="white"/>
<path id="Vector_7" d="M97.5559 30.1724L99.0509 32.9434C98.9465 33.048 98.8016 33.1716 98.6146 33.3175C98.4276 33.4633 98.0124 33.6553 97.3689 33.8935C96.7254 34.1319 96.0508 34.2515 95.3449 34.2515C93.8086 34.2515 92.4954 33.774 91.4055 32.8188C90.3156 31.8646 89.7706 30.6189 89.7706 29.0825V21.8583H86.6567V18.8068H88.2143C88.7542 18.8068 89.1844 18.6409 89.5062 18.3081C89.8279 17.9763 89.9888 17.5299 89.9888 16.9689V13.855H93.7562V18.5263H97.6796V21.8583H93.7562V28.8332C93.7562 29.352 93.9484 29.7933 94.3324 30.1564C94.7165 30.5203 95.1891 30.7012 95.7491 30.7012C96.0185 30.7012 96.3042 30.655 96.6057 30.5616C96.9063 30.4681 97.1396 30.3805 97.3065 30.2972L97.5559 30.1724Z" fill="white"/>
<path id="Vector_8" d="M103.068 16.7825C102.341 16.7825 101.713 16.5232 101.184 16.0044C100.654 15.4855 100.389 14.8732 100.389 14.1674C100.389 13.4203 100.649 12.7919 101.167 12.2832C101.686 11.7744 102.32 11.52 103.067 11.52C103.814 11.52 104.411 11.7744 104.92 12.2832C105.429 12.7919 105.683 13.4193 105.683 14.1674C105.683 14.8732 105.424 15.4855 104.905 16.0044C104.386 16.5232 103.773 16.7825 103.068 16.7825ZM105.061 18.526V34.0954H101.075V18.526H105.061Z" fill="white"/>
<path id="Vector_9" d="M121.828 32.0554C120.261 33.5192 118.377 34.2503 116.177 34.2503C113.977 34.2503 112.108 33.5233 110.571 32.0704C109.035 30.6176 108.267 28.7072 108.267 26.3403C108.267 23.9735 109.061 22.0281 110.649 20.5641C112.236 19.1001 114.121 18.3691 116.3 18.3691C118.48 18.3691 120.337 19.0961 121.875 20.5489C123.411 22.0019 124.179 23.9123 124.179 26.2791C124.179 28.6458 123.395 30.5914 121.828 32.0554ZM113.452 29.3929C114.189 30.2234 115.138 30.6387 116.301 30.6387C117.465 30.6387 118.388 30.2295 119.072 29.409C119.757 28.5895 120.1 27.5559 120.1 26.3102C120.1 25.0644 119.757 24.0318 119.072 23.2115C118.388 22.392 117.464 21.9818 116.301 21.9818C115.139 21.9818 114.189 22.3969 113.452 23.2275C112.715 24.058 112.347 25.0855 112.347 26.3102C112.347 27.5348 112.715 28.5635 113.452 29.3929Z" fill="white"/>
<path id="Vector_10" d="M136.106 18.3702C138.057 18.3702 139.542 19.0298 140.559 20.3479C141.576 21.666 142.084 23.4356 142.084 25.6567V34.0954H137.943V26.5907L137.974 26.3102C137.974 26.1232 137.969 25.9574 137.959 25.8115C137.948 25.6667 137.938 25.4637 137.928 25.2042C137.917 24.9448 137.886 24.7115 137.834 24.5034C137.782 24.2963 137.72 24.063 137.647 23.8026C137.575 23.5433 137.47 23.315 137.336 23.1179C137.201 22.9208 137.045 22.7399 136.868 22.5729C136.691 22.4071 136.468 22.2723 136.198 22.1677C135.928 22.0641 135.638 22.0019 135.327 21.9808C134.911 21.9606 134.491 22.0119 134.066 22.1366C133.641 22.2612 133.204 22.4845 132.758 22.8062C132.311 23.128 131.948 23.6317 131.668 24.3163C131.387 25.0011 131.248 25.8215 131.248 26.7767V34.0944H127.137V18.5251H130.313L130.842 20.4243H131.372C132.513 19.0539 134.092 18.3702 136.106 18.3702Z" fill="white"/>
<path id="Vector_11" d="M94.0376 41.5908C94.5584 41.5908 94.9947 41.7798 95.3478 42.1588C95.6996 42.5379 95.8766 43.0315 95.8766 43.6419C95.8766 44.2522 95.7056 44.7399 95.3638 45.1209C95.0219 45.5019 94.5936 45.6931 94.0778 45.6931C93.562 45.6931 93.1598 45.4929 92.8702 45.0938H92.7838L92.6651 45.6145H92.0579V39.9971H92.8542V42.1981C93.0804 41.7929 93.4746 41.5908 94.0376 41.5908ZM93.1578 44.593C93.36 44.8374 93.6244 44.96 93.9511 44.96C94.2779 44.96 94.5453 44.8363 94.7555 44.5891C94.9656 44.3417 95.0713 44.026 95.0713 43.6419C95.0713 43.2579 94.9677 42.9361 94.7595 42.6907C94.5514 42.4464 94.2819 42.3238 93.9511 42.3238C93.6203 42.3238 93.361 42.4464 93.1578 42.6907C92.9558 42.9351 92.8542 43.2518 92.8542 43.6419C92.8542 44.032 92.9558 44.3478 93.1578 44.593Z" fill="white"/>
<path id="Vector_12" d="M99.2851 41.6704H100.13L98.6467 46.0572C98.52 46.4464 98.345 46.746 98.1218 46.9571C97.8986 47.1673 97.5869 47.2729 97.1868 47.2729C96.7866 47.2729 96.4557 47.1572 96.2396 46.926L96.5714 46.3498C96.7605 46.5027 96.9555 46.5791 97.1557 46.5791C97.3135 46.5791 97.4543 46.5197 97.5779 46.4012C97.7016 46.2825 97.7951 46.1316 97.8584 45.9476L97.969 45.6159H97.6533L96.1069 41.6714H96.9827L98.1741 44.7884H98.2525L99.2851 41.6704Z" fill="white"/>
<path id="Vector_13" d="M106.495 40.8895H103.852V42.5305H106.147V43.2956H103.852V45.6152H103.007V40.0923H106.494L106.495 40.8895Z" fill="white"/>
<path id="Vector_14" d="M107.229 40.0127H108.049V45.614H107.229V40.0127Z" fill="white"/>
<path id="Vector_15" d="M110.488 45.6947C110.052 45.6947 109.695 45.5459 109.419 45.2493C109.143 44.9517 109.005 44.5303 109.005 43.9834V41.6719H109.849V43.8416C109.849 44.2047 109.934 44.4791 110.102 44.6662C110.27 44.8531 110.494 44.9466 110.772 44.9466C111.025 44.9466 111.238 44.8572 111.412 44.6781C111.586 44.4992 111.672 44.2307 111.672 43.8738V41.6729H112.524V45.6173H111.877L111.759 45.1276H111.687C111.409 45.5066 111.009 45.6947 110.488 45.6947Z" fill="white"/>
<path id="Vector_16" d="M115.56 45.5045C115.35 45.6312 115.119 45.6936 114.865 45.6936C114.166 45.6936 113.816 45.3174 113.816 44.5654V42.3323H113.043V41.733H113.279C113.689 41.733 113.894 41.549 113.894 41.181V40.6763H114.628V41.6707H115.582V42.3333H114.628V44.487C114.628 44.8127 114.757 44.9766 115.014 44.9766C115.135 44.9766 115.251 44.9394 115.361 44.8661L115.558 45.5055L115.56 45.5045Z" fill="white"/>
<path id="Vector_17" d="M118.401 45.5045C118.191 45.6312 117.959 45.6936 117.706 45.6936C117.006 45.6936 116.656 45.3174 116.656 44.5654V42.3323H115.883V41.733H116.119C116.529 41.733 116.735 41.549 116.735 41.181V40.6763H117.469V41.6707H118.423V42.3333H117.469V44.487C117.469 44.8127 117.597 44.9766 117.855 44.9766C117.975 44.9766 118.091 44.9394 118.202 44.8661L118.399 45.5055L118.401 45.5045Z" fill="white"/>
<path id="Vector_18" d="M120.689 41.5904C121.252 41.5904 121.71 41.7793 122.062 42.1584C122.413 42.5374 122.566 43.0974 122.519 43.8385H119.568C119.599 44.2014 119.715 44.487 119.915 44.6941C120.115 44.9022 120.396 45.0058 120.759 45.0058C120.981 45.0058 121.179 44.9576 121.355 44.86C121.531 44.7626 121.658 44.6198 121.738 44.4296H122.519C122.424 44.8299 122.214 45.1396 121.888 45.3607C121.562 45.5819 121.183 45.6925 120.751 45.6925C120.146 45.6925 119.667 45.5046 119.316 45.1286C118.964 44.7524 118.787 44.2518 118.787 43.6253C118.787 42.999 118.967 42.5435 119.328 42.1614C119.688 41.7803 120.141 41.5904 120.689 41.5904ZM119.6 43.2312H121.762C121.751 42.9578 121.651 42.7255 121.462 42.5335C121.273 42.3414 121.023 42.2459 120.713 42.2459C120.424 42.2459 120.18 42.3344 119.983 42.5104C119.786 42.6862 119.658 42.9265 119.6 43.2312Z" fill="white"/>
<path id="Vector_19" d="M125.336 41.5908H125.597V42.4112C125.502 42.385 125.384 42.3721 125.242 42.3721C124.937 42.3721 124.679 42.4816 124.469 42.6998C124.259 42.9179 124.153 43.2457 124.153 43.682V45.6145H123.316V41.6702H123.956L124.083 42.2222H124.154C124.438 41.8019 124.832 41.5908 125.336 41.5908Z" fill="white"/>
<path id="Vector_20" d="M130.835 41.6704H131.592L130.653 45.6148H129.652L128.918 42.7986H128.846L128.096 45.6148H127.102L126.163 41.6704H126.928L127.607 44.7552H127.678L128.42 41.9459H129.343L130.092 44.7552H130.163L130.835 41.6704Z" fill="white"/>
<path id="Vector_21" d="M135.348 44.5658C135.348 44.7076 135.375 44.8062 135.43 44.8615C135.485 44.9168 135.573 44.944 135.694 44.944V45.6145H135.545C135.113 45.6145 134.848 45.4406 134.747 45.0938C134.417 45.4939 133.964 45.6929 133.39 45.6929C132.99 45.6929 132.665 45.5955 132.416 45.4014C132.166 45.2074 132.041 44.9309 132.041 44.5729C132.041 43.7947 132.632 43.3584 133.816 43.2628L134.565 43.2075V43.113C134.565 42.8395 134.498 42.6224 134.364 42.4625C134.231 42.3025 134.041 42.2222 133.8 42.2222C133.559 42.2222 133.363 42.2935 133.228 42.4353C133.094 42.5771 133.014 42.746 132.988 42.9401H132.215C132.252 42.5459 132.41 42.2222 132.688 41.9699C132.967 41.7174 133.335 41.5908 133.793 41.5908C134.252 41.5908 134.631 41.7286 134.917 42.0049C135.204 42.2814 135.348 42.6686 135.348 43.1683V44.5658ZM133.486 45.0394C133.775 45.0394 134.027 44.9479 134.243 44.7629C134.458 44.5789 134.566 44.3236 134.566 43.9978V43.7927L133.967 43.84C133.225 43.8983 132.855 44.1265 132.855 44.5267C132.855 44.6945 132.914 44.8222 133.033 44.9098C133.152 44.9962 133.302 45.0394 133.486 45.0394Z" fill="white"/>
<path id="Vector_22" d="M139.08 41.6704H139.924L138.52 45.6148H137.352L135.948 41.6704H136.799L137.904 44.8819H137.984L139.08 41.6704Z" fill="white"/>
<path id="Vector_23" d="M142.077 41.5904C142.64 41.5904 143.098 41.7793 143.449 42.1584C143.801 42.5374 143.954 43.0974 143.907 43.8385H140.956C140.987 44.2014 141.103 44.487 141.303 44.6941C141.503 44.9022 141.784 45.0058 142.147 45.0058C142.369 45.0058 142.567 44.9576 142.743 44.86C142.919 44.7626 143.046 44.6198 143.126 44.4296H143.907C143.812 44.8299 143.602 45.1396 143.275 45.3607C142.95 45.5819 142.571 45.6925 142.139 45.6925C141.534 45.6925 141.055 45.5046 140.704 45.1286C140.352 44.7524 140.175 44.2518 140.175 43.6253C140.175 42.999 140.355 42.5435 140.716 42.1614C141.076 41.7803 141.529 41.5904 142.077 41.5904ZM140.988 43.2312H143.15C143.139 42.9578 143.039 42.7255 142.85 42.5335C142.661 42.3414 142.411 42.2459 142.101 42.2459C141.812 42.2459 141.568 42.3344 141.371 42.5104C141.174 42.6862 141.046 42.9265 140.988 43.2312Z" fill="white"/>
</g>
<defs>
<clipPath id="clip0_1295_28576">
<rect width="144" height="48" fill="white"/>
</clipPath>
</defs>
</svg>
