<svg width="22" height="23" viewBox="0 0 22 23" fill="none" xmlns="http://www.w3.org/2000/svg">
<g clip-path="url(#clip0_1212_8921)">
<path d="M21.0623 8.55446L19.1661 6.65825C19.0131 6.50732 18.8092 6.41919 18.5944 6.41124C18.3796 6.40328 18.1697 6.47608 18.006 6.61528C17.7532 6.83044 17.4288 6.94278 17.0971 6.93005C16.7654 6.91731 16.4506 6.78043 16.215 6.54653C15.9812 6.31101 15.8444 5.99628 15.8317 5.66467C15.819 5.33307 15.9312 5.00877 16.1463 4.75602C16.2855 4.59229 16.3583 4.38234 16.3503 4.16759C16.3424 3.95283 16.2542 3.74885 16.1033 3.59586L14.2054 1.6975C14.045 1.53742 13.8276 1.44751 13.601 1.44751C13.3744 1.44751 13.1571 1.53742 12.9967 1.6975L9.97382 4.71992C9.78719 4.90722 9.64645 5.13518 9.56261 5.38594C9.54628 5.43415 9.51907 5.47795 9.48308 5.51395C9.44708 5.54994 9.40328 5.57715 9.35507 5.59348C9.10421 5.67731 8.87622 5.81822 8.68905 6.00512L0.937493 13.7567C0.777409 13.9171 0.6875 14.1344 0.6875 14.361C0.6875 14.5876 0.777409 14.805 0.937493 14.9654L2.83585 16.8616C2.98884 17.0125 3.19282 17.1007 3.40758 17.1086C3.62233 17.1166 3.83228 17.0438 3.99601 16.9046C4.24818 16.6877 4.57301 16.5741 4.9054 16.5866C5.2378 16.599 5.55319 16.7367 5.78839 16.9719C6.02359 17.2071 6.16122 17.5225 6.17371 17.8549C6.18619 18.1873 6.0726 18.5121 5.85569 18.7643C5.7165 18.928 5.6437 19.1379 5.65166 19.3527C5.65961 19.5674 5.74774 19.7714 5.89866 19.9244L7.79487 21.8206C7.95527 21.9807 8.17262 22.0706 8.39923 22.0706C8.62584 22.0706 8.84319 21.9807 9.00358 21.8206L16.7551 14.0691C16.9419 13.882 17.0828 13.6542 17.1668 13.4035C17.183 13.3551 17.2103 13.3112 17.2464 13.2751C17.2824 13.239 17.3264 13.2118 17.3748 13.1955C17.6254 13.1117 17.8532 12.9709 18.0403 12.7843L21.0628 9.76145C21.2223 9.60107 21.3118 9.38405 21.3117 9.15786C21.3116 8.93167 21.2219 8.71472 21.0623 8.55446ZM11.2496 7.28043C11.1857 7.34429 11.1099 7.39494 11.0265 7.4295C10.9431 7.46406 10.8537 7.48185 10.7634 7.48185C10.6731 7.48185 10.5837 7.46406 10.5002 7.4295C10.4168 7.39494 10.341 7.34429 10.2772 7.28043L9.78261 6.78586C9.65682 6.65628 9.58706 6.48241 9.58842 6.30182C9.58978 6.12122 9.66214 5.94842 9.78987 5.82075C9.9176 5.69308 10.0904 5.62079 10.271 5.61951C10.4516 5.61823 10.6255 5.68806 10.755 5.81391L11.2496 6.30805C11.3134 6.37189 11.3641 6.44769 11.3986 6.53111C11.4332 6.61453 11.451 6.70394 11.451 6.79424C11.451 6.88454 11.4332 6.97395 11.3986 7.05737C11.3641 7.14079 11.3134 7.21659 11.2496 7.28043ZM13.1402 9.17106C13.0113 9.29989 12.8365 9.37226 12.6542 9.37226C12.472 9.37226 12.2972 9.29989 12.1682 9.17106L11.6956 8.6984C11.6317 8.63455 11.5811 8.55876 11.5465 8.47533C11.512 8.39191 11.4942 8.3025 11.4942 8.21221C11.4942 8.12192 11.512 8.03251 11.5465 7.94909C11.5811 7.86566 11.6317 7.78987 11.6956 7.72602C11.8245 7.59707 11.9994 7.52463 12.1818 7.52463C12.2721 7.52463 12.3615 7.54242 12.4449 7.57697C12.5283 7.61152 12.6041 7.66217 12.668 7.72602L13.1406 8.19867C13.2047 8.26251 13.2555 8.33837 13.2903 8.42189C13.325 8.50542 13.3429 8.59497 13.3429 8.68542C13.3429 8.77587 13.3251 8.86544 13.2905 8.949C13.2559 9.03255 13.2051 9.10845 13.141 9.17235L13.1402 9.17106ZM15.0308 11.0617C14.967 11.1255 14.8912 11.1762 14.8077 11.2108C14.7243 11.2453 14.6349 11.2631 14.5446 11.2631C14.4543 11.2631 14.3649 11.2453 14.2815 11.2108C14.1981 11.1762 14.1223 11.1255 14.0584 11.0617L13.5858 10.589C13.46 10.4594 13.3902 10.2856 13.3916 10.105C13.3929 9.92439 13.4653 9.75159 13.593 9.62391C13.7208 9.49624 13.8936 9.42395 14.0742 9.42267C14.2548 9.42139 14.4286 9.49122 14.5582 9.61707L15.0308 10.0897C15.0951 10.1535 15.1461 10.2293 15.181 10.3128C15.2159 10.3963 15.234 10.4858 15.2342 10.5763C15.2344 10.6668 15.2167 10.7565 15.1822 10.8401C15.1476 10.9238 15.0969 10.9998 15.033 11.0638L15.0308 11.0617ZM16.9399 12.9755C16.8761 13.0394 16.8003 13.09 16.7169 13.1246C16.6334 13.1591 16.544 13.1769 16.4537 13.1769C16.3634 13.1769 16.274 13.1591 16.1906 13.1246C16.1072 13.09 16.0314 13.0394 15.9675 12.9755L15.476 12.4814C15.4108 12.4177 15.3589 12.3417 15.3233 12.2579C15.2877 12.174 15.2692 12.0838 15.2688 11.9927C15.2683 11.9016 15.286 11.8113 15.3208 11.7271C15.3555 11.6429 15.4067 11.5664 15.4713 11.5021C15.5359 11.4379 15.6126 11.3871 15.697 11.3527C15.7814 11.3183 15.8718 11.3011 15.9629 11.302C16.054 11.3029 16.144 11.3218 16.2277 11.3578C16.3114 11.3938 16.3872 11.4461 16.4505 11.5116L16.9425 12.0053C17.0063 12.0691 17.0569 12.145 17.0915 12.2284C17.126 12.3118 17.1437 12.4013 17.1437 12.4916C17.1437 12.5819 17.1258 12.6713 17.0912 12.7547C17.0566 12.8381 17.0059 12.9138 16.9421 12.9777L16.9399 12.9755Z" fill="white"/>
</g>
<defs>
<clipPath id="clip0_1212_8921">
<rect width="22" height="22" fill="white" transform="translate(0 0.76001)"/>
</clipPath>
</defs>
</svg>
